<svg width="50" height="50" viewBox="0 0 50 50" fill="none" xmlns="http://www.w3.org/2000/svg">
<path class="icon__color-element" d="M13.7269 7.20065C14.1206 7.20065 14.4398 6.88148 14.4398 6.48798C14.4398 6.09448 14.1206 5.77515 13.7269 5.77515C13.3333 5.77515 13.0143 6.09431 13.0143 6.48798C13.0143 6.88165 13.3334 7.20065 13.7269 7.20065V7.20065Z" fill="#2B2A29"/>
<path class="icon__color-element" d="M8.89286 15.6667C9.26103 15.6667 9.55953 15.3682 9.55953 15V13.6667C9.55953 13.2985 9.26103 13 8.89286 13C8.5247 13 8.2262 13.2985 8.2262 13.6667V15C8.2262 15.3682 8.5247 15.6667 8.89286 15.6667Z" fill="#2B2A29"/>
<path class="icon__color-element" d="M8.89286 17C8.5247 17 8.2262 17.2985 8.2262 17.6667V19C8.2262 19.3682 8.5247 19.6667 8.89286 19.6667C9.26103 19.6667 9.55953 19.3682 9.55953 19V17.6667C9.55953 17.2985 9.26103 17 8.89286 17Z" fill="#2B2A29"/>
<path class="icon__color-element" d="M7.55963 15.6667H6.2263C5.85813 15.6667 5.55963 15.9652 5.55963 16.3334C5.55963 16.7016 5.85813 17.0001 6.2263 17.0001H7.55963C7.9278 17.0001 8.2263 16.7016 8.2263 16.3334C8.2263 15.9652 7.9278 15.6667 7.55963 15.6667Z" fill="#2B2A29"/>
<path class="icon__color-element" d="M11.5596 15.6667H10.2262C9.85807 15.6667 9.55957 15.9652 9.55957 16.3334C9.55957 16.7016 9.85807 17.0001 10.2262 17.0001H11.5596C11.9277 17.0001 12.2262 16.7016 12.2262 16.3334C12.2262 15.9652 11.9277 15.6667 11.5596 15.6667Z" fill="#2B2A29"/>
<path class="icon__color-element" d="M41.893 27C40.6065 27 39.5597 28.0468 39.5597 29.3333C39.5597 30.6198 40.6065 31.6667 41.893 31.6667C43.1795 31.6667 44.2264 30.6198 44.2264 29.3333C44.2264 28.0468 43.1795 27 41.893 27V27ZM41.893 30.3333C41.3415 30.3333 40.893 29.8848 40.893 29.3333C40.893 28.7818 41.3415 28.3333 41.893 28.3333C42.4445 28.3333 42.893 28.7818 42.893 29.3333C42.893 29.8848 42.4445 30.3333 41.893 30.3333V30.3333Z" fill="#2B2A29"/>
<path class="icon__color-element" d="M43.7273 15.7751C43.3336 15.7751 43.0146 16.0943 43.0146 16.488C43.0146 16.8816 43.3338 17.2006 43.7273 17.2006C44.1208 17.2006 44.4401 16.8815 44.4401 16.488C44.4401 16.0945 44.121 15.7751 43.7273 15.7751Z" fill="#2B2A29"/>
<path class="icon__color-element" d="M30.9101 29.0001H28.2261V27.9676C31.0081 27.0762 33.0971 24.6362 33.4865 21.6667H34.5595C35.846 21.6667 36.8928 20.6199 36.8928 19.3334C36.8928 18.0469 35.846 17.0001 34.5595 17.0001H33.5595V9.53191C33.5595 7.40075 31.8255 5.66675 29.6943 5.66675H22.0913C19.9601 5.66675 18.2261 7.40075 18.2261 9.53191V17.0001H17.2261C15.9396 17.0001 14.8928 18.0469 14.8928 19.3334C14.8928 20.6199 15.9396 21.6667 17.2261 21.6667H18.2991C18.6885 24.6364 20.7775 27.0764 23.5595 27.9676V29.0001H21.5421C16.4051 29.0001 12.2261 33.1791 12.2261 38.3161V43.6667C12.2261 44.0349 12.5246 44.3334 12.8928 44.3334H39.5595C39.9276 44.3334 40.2261 44.0349 40.2261 43.6667V38.3161C40.2261 33.1791 36.0471 29.0001 30.9101 29.0001V29.0001ZM19.5595 20.6667V16.3334H23.338C23.7395 17.3552 24.7301 18.0831 25.8928 18.0831C27.0555 18.0831 28.0461 17.3552 28.4476 16.3334H32.2261V20.6667C32.2261 21.5026 32.0595 22.2991 31.7641 23.0304L30.1568 22.3876C28.9608 21.9094 27.7015 21.6669 26.4136 21.6669H25.5568C24.1375 21.6669 22.7606 21.9592 21.4633 22.5357L20.07 23.1551C19.7423 22.3906 19.5595 21.5497 19.5595 20.6667V20.6667ZM32.2261 15.0001H28.6088C28.5476 14.5012 28.357 14.0466 28.0646 13.6667H32.2261V15.0001ZM27.3091 15.3334C27.3091 16.1144 26.6738 16.7497 25.8928 16.7497C25.1118 16.7497 24.4765 16.1144 24.4765 15.3334C24.4765 14.5524 25.1118 13.9171 25.8928 13.9171C26.6738 13.9171 27.3091 14.5524 27.3091 15.3334ZM23.1768 15.0001H19.5595V13.6667H23.721C23.4288 14.0466 23.2381 14.5012 23.1768 15.0001ZM34.5595 18.3334C35.111 18.3334 35.5595 18.7819 35.5595 19.3334C35.5595 19.8849 35.111 20.3334 34.5595 20.3334H33.5595V18.3334H34.5595ZM22.0913 7.00008H29.6941C31.0903 7.00008 32.226 8.13575 32.226 9.53191V12.3334H19.5593V9.53191C19.5595 8.13575 20.6951 7.00008 22.0913 7.00008ZM16.2261 19.3334C16.2261 18.7819 16.6746 18.3334 17.2261 18.3334H18.2261V20.3334H17.2261C16.6746 20.3334 16.2261 19.8849 16.2261 19.3334ZM20.7291 24.3209L22.0051 23.7536C23.1305 23.2536 24.3255 23.0001 25.557 23.0001H26.4138C27.5313 23.0001 28.6241 23.2107 29.6615 23.6257L31.1356 24.2154C29.9953 25.8944 28.071 27.0001 25.8928 27.0001C23.762 27.0001 21.8776 25.9391 20.7291 24.3209V24.3209ZM25.8928 28.3334C26.2325 28.3334 26.5646 28.3036 26.8928 28.2604V30.0001C26.8928 30.5516 26.4443 31.0001 25.8928 31.0001C25.3413 31.0001 24.8928 30.5516 24.8928 30.0001V28.2604C25.221 28.3036 25.5531 28.3334 25.8928 28.3334ZM34.2261 39.6667H30.2261V37.6667H34.2261V39.6667ZM38.8928 43.0001H35.5595V37.0001C35.5595 36.6319 35.261 36.3334 34.8928 36.3334H29.5595C29.1913 36.3334 28.8928 36.6319 28.8928 37.0001V40.3334C28.8928 40.7016 29.1913 41.0001 29.5595 41.0001H34.2261V43.0001H18.2261V37.0001C18.2261 36.6319 17.9276 36.3334 17.5595 36.3334C17.1913 36.3334 16.8928 36.6319 16.8928 37.0001V43.0001H13.5595V38.3161C13.5595 33.9144 17.1405 30.3334 21.5421 30.3334H23.5931C23.7566 31.4612 24.7205 32.3334 25.8928 32.3334C27.0651 32.3334 28.029 31.4612 28.1925 30.3334H30.9101C35.3118 30.3334 38.8928 33.9144 38.8928 38.3161V43.0001Z" fill="#2B2A29"/>
<path class="icon__color-element" d="M28.5597 20.5072C28.8397 20.5072 29.0667 20.2802 29.0667 20.0002C29.0667 19.7202 28.8397 19.4932 28.5597 19.4932C28.2797 19.4932 28.0527 19.7202 28.0527 20.0002C28.0527 20.2802 28.2797 20.5072 28.5597 20.5072Z" fill="#2B2A29"/>
<path class="icon__color-element" d="M23.2262 20.5072C23.5062 20.5072 23.7332 20.2802 23.7332 20.0002C23.7332 19.7202 23.5062 19.4932 23.2262 19.4932C22.9462 19.4932 22.7192 19.7202 22.7192 20.0002C22.7192 20.2802 22.9462 20.5072 23.2262 20.5072Z" fill="#2B2A29"/>
</svg>
