<svg width="50" height="50" viewBox="0 0 50 50" fill="none" xmlns="http://www.w3.org/2000/svg">
<path class="icon__color-element" d="M21.3939 9.5339C21.7875 9.5339 22.1067 9.21473 22.1067 8.82123C22.1067 8.42773 21.7875 8.1084 21.3939 8.1084C21.0002 8.1084 20.6812 8.42757 20.6812 8.82123C20.6812 9.2149 21.0004 9.5339 21.3939 9.5339Z" fill="#000000"/>
<path class="icon__color-element" d="M8.55973 7.99992C8.9279 7.99992 9.2264 7.70142 9.2264 7.33325V5.99992C9.2264 5.63175 8.9279 5.33325 8.55973 5.33325C8.19157 5.33325 7.89307 5.63175 7.89307 5.99992V7.33325C7.89307 7.70142 8.19157 7.99992 8.55973 7.99992Z" fill="#000000"/>
<path class="icon__color-element" d="M9.2264 9.99992C9.2264 9.63175 8.9279 9.33325 8.55973 9.33325C8.19157 9.33325 7.89307 9.63175 7.89307 9.99992V11.3333C7.89307 11.7014 8.19157 11.9999 8.55973 11.9999C8.9279 11.9999 9.2264 11.7014 9.2264 11.3333V9.99992Z" fill="#000000"/>
<path class="icon__color-element" d="M7.2265 8H5.89317C5.525 8 5.2265 8.2985 5.2265 8.66667C5.2265 9.03483 5.525 9.33333 5.89317 9.33333H7.2265C7.59467 9.33333 7.89317 9.03483 7.89317 8.66667C7.89317 8.2985 7.59467 8 7.2265 8Z" fill="#000000"/>
<path class="icon__color-element" d="M9.89311 9.33333H11.2264C11.5946 9.33333 11.8931 9.03483 11.8931 8.66667C11.8931 8.2985 11.5946 8 11.2264 8H9.89311C9.52494 8 9.22644 8.2985 9.22644 8.66667C9.22644 9.03483 9.52494 9.33333 9.89311 9.33333Z" fill="#000000"/>
<path class="icon__color-element" d="M44.5601 8.99984C44.5601 7.71334 43.5133 6.6665 42.2268 6.6665C40.9403 6.6665 39.8934 7.71334 39.8934 8.99984C39.8934 10.2863 40.9403 11.3332 42.2268 11.3332C43.5133 11.3332 44.5601 10.2863 44.5601 8.99984ZM42.2268 9.99984C41.6753 9.99984 41.2268 9.55134 41.2268 8.99984C41.2268 8.44834 41.6753 7.99984 42.2268 7.99984C42.7783 7.99984 43.2268 8.44834 43.2268 8.99984C43.2268 9.55134 42.7783 9.99984 42.2268 9.99984Z" fill="#000000"/>
<path class="icon__color-element" d="M44.0608 22.1084C43.6671 22.1084 43.3481 22.4276 43.3481 22.8212C43.3481 23.2149 43.6673 23.5339 44.0608 23.5339C44.4543 23.5339 44.7736 23.2147 44.7736 22.8212C44.7736 22.4277 44.4544 22.1084 44.0608 22.1084Z" fill="#000000"/>
<path class="icon__color-element" d="M37.1134 15.3332H35.2264V14.6665C35.2264 13.5637 34.3293 12.6665 33.2264 12.6665C32.1236 12.6665 31.2264 13.5637 31.2264 14.6665V15.3332H18.5598V14.6665C18.5598 13.5637 17.6626 12.6665 16.5598 12.6665C15.4569 12.6665 14.5598 13.5637 14.5598 14.6665V15.3332H12.6728C10.7724 15.3332 9.22644 16.879 9.22644 18.7792V41.6512C9.22644 43.314 10.5789 44.6665 12.2418 44.6665H37.5444C39.2073 44.6665 40.5598 43.314 40.5598 41.6512V18.7792C40.5598 16.879 39.0139 15.3332 37.1134 15.3332ZM32.5598 14.6665C32.5598 14.299 32.8589 13.9998 33.2264 13.9998C33.5939 13.9998 33.8931 14.299 33.8931 14.6665V17.3332C33.8931 17.7007 33.5939 17.9998 33.2264 17.9998C32.8589 17.9998 32.5598 17.7007 32.5598 17.3332V14.6665ZM15.8931 14.6665C15.8931 14.299 16.1923 13.9998 16.5598 13.9998C16.9273 13.9998 17.2264 14.299 17.2264 14.6665V17.3332C17.2264 17.7007 16.9273 17.9998 16.5598 17.9998C16.1923 17.9998 15.8931 17.7007 15.8931 17.3332V14.6665ZM12.6728 16.6665H14.5598V17.3332C14.5598 18.436 15.4569 19.3332 16.5598 19.3332C17.6626 19.3332 18.5598 18.436 18.5598 17.3332V16.6665H31.2264V17.3332C31.2264 18.436 32.1236 19.3332 33.2264 19.3332C34.3293 19.3332 35.2264 18.436 35.2264 17.3332V16.6665H37.1134C38.2784 16.6665 39.2264 17.6142 39.2264 18.7792V21.9998H10.5598V18.7792C10.5598 17.6142 11.5078 16.6665 12.6728 16.6665ZM37.5444 43.3332H12.2418C11.3144 43.3332 10.5598 42.5787 10.5598 41.6512V23.3332H39.2264V41.6512C39.2264 42.5787 38.4719 43.3332 37.5444 43.3332Z" fill="#000000"/>
<path class="icon__color-element" d="M24.8332 34.9248C25.0934 34.5286 25.0692 34.0139 24.773 33.6441L22.1634 30.3843L20.318 27.6756C20.2945 27.6411 20.2679 27.6093 20.2382 27.5796C19.2317 26.5724 17.4755 26.5724 16.469 27.5796C16.1527 27.8959 15.9195 28.2896 15.7955 28.7176C15.7167 28.9894 15.5234 29.1828 15.2519 29.2616C14.8239 29.3856 14.4302 29.6188 14.1139 29.9351C13.0745 30.9741 13.0745 32.6653 14.1139 33.7043C14.1432 33.7339 14.1754 33.7606 14.2099 33.7841L16.8775 35.5986L20.178 38.2396C20.3772 38.3984 20.6179 38.4789 20.8594 38.4789C21.067 38.4789 21.2757 38.4194 21.4587 38.2993C21.8549 38.0391 22.0372 37.5571 21.9125 37.1001L21.267 34.7329L23.6342 35.3788C24.0925 35.5038 24.5734 35.3206 24.8332 34.9248ZM21.4952 33.4131C21.0535 33.2936 20.596 33.4148 20.2715 33.7386C19.9477 34.0628 19.8265 34.5201 19.947 34.9619L20.4304 36.7344L17.669 34.5271L15.0174 32.7211C14.5375 32.1989 14.5505 31.3839 15.0564 30.8779C15.2165 30.7178 15.4072 30.6048 15.623 30.5423C16.328 30.3374 16.871 29.7946 17.0759 29.0891C17.1384 28.8733 17.2514 28.6826 17.4115 28.5224C17.9014 28.0326 18.7479 28.0169 19.2547 28.4834L21.0915 31.1761L23.2674 33.8964L21.4952 33.4131Z" fill="#000000"/>
<path class="icon__color-element" d="M14.2264 27.7155C14.6217 27.7155 14.9421 27.3951 14.9421 26.9998C14.9421 26.6046 14.6217 26.2842 14.2264 26.2842C13.8312 26.2842 13.5107 26.6046 13.5107 26.9998C13.5107 27.3951 13.8312 27.7155 14.2264 27.7155Z" fill="#000000"/>
<path class="icon__color-element" d="M14.2264 38.3823C14.6217 38.3823 14.9421 38.0619 14.9421 37.6666C14.9421 37.2713 14.6217 36.9509 14.2264 36.9509C13.8312 36.9509 13.5107 37.2713 13.5107 37.6666C13.5107 38.0619 13.8312 38.3823 14.2264 38.3823Z" fill="#000000"/>
<path class="icon__color-element" d="M24.8932 27.7155C25.2885 27.7155 25.6089 27.3951 25.6089 26.9998C25.6089 26.6046 25.2885 26.2842 24.8932 26.2842C24.498 26.2842 24.1776 26.6046 24.1776 26.9998C24.1776 27.3951 24.498 27.7155 24.8932 27.7155Z" fill="#000000"/>
<path class="icon__color-element" d="M24.8932 38.3823C25.2885 38.3823 25.6089 38.0619 25.6089 37.6666C25.6089 37.2713 25.2885 36.9509 24.8932 36.9509C24.498 36.9509 24.1776 37.2713 24.1776 37.6666C24.1776 38.0619 24.498 38.3823 24.8932 38.3823Z" fill="#000000"/>
<path class="icon__color-element" d="M30.2263 27.7155C30.6216 27.7155 30.942 27.3951 30.942 26.9998C30.942 26.6046 30.6216 26.2842 30.2263 26.2842C29.8311 26.2842 29.5107 26.6046 29.5107 26.9998C29.5107 27.3951 29.8311 27.7155 30.2263 27.7155Z" fill="#000000"/>
<path class="icon__color-element" d="M30.2265 34.6665C28.5722 34.6665 27.2265 36.0122 27.2265 37.6665C27.2265 39.3208 28.5722 40.6665 30.2265 40.6665C31.8808 40.6665 33.2265 39.3208 33.2265 37.6665C33.2265 36.0122 31.8808 34.6665 30.2265 34.6665ZM30.2265 39.3332C29.3075 39.3332 28.5598 38.5855 28.5598 37.6665C28.5598 36.7475 29.3075 35.9998 30.2265 35.9998C31.1455 35.9998 31.8932 36.7475 31.8932 37.6665C31.8932 38.5855 31.1455 39.3332 30.2265 39.3332Z" fill="#000000"/>
<path class="icon__color-element" d="M30.2263 33.049C30.6216 33.049 30.942 32.7286 30.942 32.3333C30.942 31.9381 30.6216 31.6177 30.2263 31.6177C29.8311 31.6177 29.5107 31.9381 29.5107 32.3333C29.5107 32.7286 29.8311 33.049 30.2263 33.049Z" fill="#000000"/>
<path class="icon__color-element" d="M30.2263 38.3823C30.6216 38.3823 30.942 38.0619 30.942 37.6666C30.942 37.2713 30.6216 36.9509 30.2263 36.9509C29.8311 36.9509 29.5107 37.2713 29.5107 37.6666C29.5107 38.0619 29.8311 38.3823 30.2263 38.3823Z" fill="#000000"/>
<path class="icon__color-element" d="M35.5598 27.7155C35.9551 27.7155 36.2755 27.3951 36.2755 26.9998C36.2755 26.6046 35.9551 26.2842 35.5598 26.2842C35.1646 26.2842 34.8442 26.6046 34.8442 26.9998C34.8442 27.3951 35.1646 27.7155 35.5598 27.7155Z" fill="#000000"/>
<path class="icon__color-element" d="M35.5598 33.049C35.9551 33.049 36.2755 32.7286 36.2755 32.3333C36.2755 31.9381 35.9551 31.6177 35.5598 31.6177C35.1646 31.6177 34.8442 31.9381 34.8442 32.3333C34.8442 32.7286 35.1646 33.049 35.5598 33.049Z" fill="#000000"/>
<path class="icon__color-element" d="M35.5598 38.3823C35.9551 38.3823 36.2755 38.0619 36.2755 37.6666C36.2755 37.2713 35.9551 36.9509 35.5598 36.9509C35.1646 36.9509 34.8442 37.2713 34.8442 37.6666C34.8442 38.0619 35.1646 38.3823 35.5598 38.3823Z" fill="#000000"/>
</svg>
