<svg width="50" height="50" viewBox="0 0 50 50" fill="none" xmlns="http://www.w3.org/2000/svg">
<path class="icon__color-element" d="M5.77333 17.1084C5.37967 17.1084 5.06067 17.4276 5.06067 17.8212C5.06067 18.2149 5.37984 18.5339 5.77333 18.5339C6.16683 18.5339 6.48617 18.2147 6.48617 17.8212C6.48617 17.4277 6.167 17.1084 5.77333 17.1084Z" fill="#2B2A29"/>
<path class="icon__color-element" d="M40.9388 37C40.5703 37 40.2722 37.2985 40.2722 37.6667V39C40.2722 39.3682 40.5703 39.6667 40.9388 39.6667C41.3073 39.6667 41.6055 39.3682 41.6055 39V37.6667C41.6055 37.2985 41.3073 37 40.9388 37Z" fill="#2B2A29"/>
<path class="icon__color-element" d="M40.9388 41C40.5703 41 40.2722 41.2985 40.2722 41.6667V43C40.2722 43.3682 40.5703 43.6667 40.9388 43.6667C41.3073 43.6667 41.6055 43.3682 41.6055 43V41.6667C41.6055 41.2985 41.3073 41 40.9388 41Z" fill="#2B2A29"/>
<path class="icon__color-element" d="M39.6056 39.6665H38.2723C37.9038 39.6665 37.6056 39.965 37.6056 40.3332C37.6056 40.7013 37.9038 40.9998 38.2723 40.9998H39.6056C39.9741 40.9998 40.2723 40.7013 40.2723 40.3332C40.2723 39.965 39.9741 39.6665 39.6056 39.6665Z" fill="#2B2A29"/>
<path class="icon__color-element" d="M43.6057 39.6665H42.2724C41.9039 39.6665 41.6057 39.965 41.6057 40.3332C41.6057 40.7013 41.9039 40.9998 42.2724 40.9998H43.6057C43.9742 40.9998 44.2724 40.7013 44.2724 40.3332C44.2724 39.965 43.9742 39.6665 43.6057 39.6665Z" fill="#2B2A29"/>
<path class="icon__color-element" d="M10.6058 10.9999C11.8923 10.9999 12.9391 9.95309 12.9391 8.66659C12.9391 7.38009 11.8923 6.33325 10.6058 6.33325C9.31929 6.33325 8.27246 7.38009 8.27246 8.66659C8.27246 9.95309 9.31946 10.9999 10.6058 10.9999ZM10.6058 7.66659C11.1573 7.66659 11.6058 8.11509 11.6058 8.66659C11.6058 9.21809 11.1573 9.66659 10.6058 9.66659C10.0543 9.66659 9.60579 9.21809 9.60579 8.66659C9.60579 8.11509 10.0545 7.66659 10.6058 7.66659Z" fill="#2B2A29"/>
<path class="icon__color-element" d="M13.7734 39.1084C13.3797 39.1084 13.0607 39.4276 13.0607 39.8212C13.0607 40.2149 13.3799 40.5339 13.7734 40.5339C14.1669 40.5339 14.4862 40.2147 14.4862 39.8212C14.4862 39.4277 14.1671 39.1084 13.7734 39.1084Z" fill="#2B2A29"/>
<path class="icon__color-element" d="M33.6058 17H35.6058V19C35.6058 19.3682 35.9039 19.6667 36.2724 19.6667H38.2724C38.6409 19.6667 38.9391 19.3682 38.9391 19V17H40.9391C41.3076 17 41.6058 16.7015 41.6058 16.3333V14.3333C41.6058 13.9652 41.3076 13.6667 40.9391 13.6667H38.9391V11.6667C38.9391 11.2985 38.6409 11 38.2724 11H36.2724C35.9039 11 35.6058 11.2985 35.6058 11.6667V13.6667H33.6058C33.2373 13.6667 32.9391 13.9652 32.9391 14.3333V16.3333C32.9391 16.7015 33.2374 17 33.6058 17ZM34.2724 15H36.2724C36.6409 15 36.9391 14.7015 36.9391 14.3333V12.3333H37.6058V14.3333C37.6058 14.7015 37.9039 15 38.2724 15H40.2724V15.6667H38.2724C37.9039 15.6667 37.6058 15.9652 37.6058 16.3333V18.3333H36.9391V16.3333C36.9391 15.9652 36.6409 15.6667 36.2724 15.6667H34.2724V15Z" fill="#2B2A29"/>
<path class="icon__color-element" d="M25.6056 23.6666H28.939C29.3075 23.6666 29.6056 23.3681 29.6056 22.9999C29.6056 22.6318 29.3075 22.3333 28.939 22.3333H25.6056C25.2371 22.3333 24.939 22.6318 24.939 22.9999C24.939 23.3681 25.2373 23.6666 25.6056 23.6666Z" fill="#2B2A29"/>
<path class="icon__color-element" d="M34.939 25.6665H25.6056C25.2371 25.6665 24.939 25.965 24.939 26.3332C24.939 26.7013 25.2371 26.9998 25.6056 26.9998H34.939C35.3075 26.9998 35.6056 26.7013 35.6056 26.3332C35.6056 25.965 35.3075 25.6665 34.939 25.6665Z" fill="#2B2A29"/>
<path class="icon__color-element" d="M34.939 29H25.6056C25.2371 29 24.939 29.2985 24.939 29.6667C24.939 30.0348 25.2371 30.3333 25.6056 30.3333H34.939C35.3075 30.3333 35.6056 30.0348 35.6056 29.6667C35.6056 29.2985 35.3075 29 34.939 29Z" fill="#2B2A29"/>
<path class="icon__color-element" d="M21.939 17.6665C21.2367 17.6665 20.6134 17.985 20.1854 18.4775C19.4944 18.3075 18.7466 18.383 18.1176 18.728C17.8246 18.8895 17.5024 18.8888 17.2081 18.728C16.7887 18.4972 16.3129 18.3752 15.8324 18.3752C14.2529 18.3752 12.9684 19.66 12.9684 21.2392C12.9684 21.2808 12.9722 21.3225 12.9801 21.3635L13.6434 24.8522L14.1571 29.4693C14.2111 29.959 14.5711 30.3547 15.0529 30.4547C15.1304 30.4707 15.2086 30.4785 15.2847 30.4785C15.6857 30.4785 16.0621 30.266 16.2672 29.9072L17.6521 27.445L19.0589 29.9068C19.3024 30.3342 19.7881 30.5557 20.2724 30.455C20.7542 30.3553 21.1149 29.9595 21.1695 29.47L21.6747 24.903L22.1664 22.3103C23.345 22.1942 24.2724 21.2087 24.2724 20C24.2724 18.7133 23.2255 17.6665 21.939 17.6665ZM19.9117 28.7127L18.8096 26.783C18.5712 26.3667 18.1429 26.118 17.6631 26.118H17.6624C17.1826 26.1183 16.7549 26.367 16.5172 26.7833L15.4144 28.7123L14.9612 24.654L14.3031 21.182C14.3331 20.3643 15.0076 19.7083 15.8324 19.7083C16.0889 19.7083 16.3427 19.7732 16.5654 19.8958C17.2529 20.2742 18.0739 20.2743 18.7601 19.8962C19.0261 19.7503 19.3339 19.696 19.6337 19.7223C19.6227 19.8143 19.6057 19.9047 19.6057 19.9997C19.6057 20.894 20.1172 21.6633 20.8581 22.0548L20.357 24.7047L19.9117 28.7127ZM21.939 20.9998C21.3875 20.9998 20.9391 20.5513 20.9391 19.9998C20.9391 19.4483 21.3875 18.9998 21.939 18.9998C22.4905 18.9998 22.939 19.4483 22.939 19.9998C22.939 20.5513 22.4905 20.9998 21.939 20.9998Z" fill="#2B2A29"/>
<path class="icon__color-element" d="M30.9388 40.3332H29.439C28.8773 38.3773 28.8027 36.625 29.2127 34.9998H39.961C41.2352 34.9998 42.2722 33.963 42.2722 32.6887V21.1323C43.9017 19.7253 44.9388 17.65 44.9388 15.3332C44.9388 11.1057 41.4993 7.6665 37.2722 7.6665C33.6178 7.6665 30.5572 10.2387 29.7933 13.6665H9.91682C8.64265 13.6665 7.60565 14.7033 7.60565 15.9777V32.6887C7.60565 33.963 8.64282 34.9998 9.91682 34.9998H21.4778C22.1513 36.789 22.0528 38.539 21.1872 40.3332H19.6057C18.135 40.3332 16.939 41.5295 16.939 42.9998C16.939 43.368 17.2372 43.6665 17.6057 43.6665H32.939C33.3075 43.6665 33.6057 43.368 33.6057 42.9998C33.6055 41.5295 32.4097 40.3332 30.9388 40.3332ZM37.2722 8.99984C40.7643 8.99984 43.6055 11.841 43.6055 15.3332C43.6055 18.8253 40.7643 21.6665 37.2722 21.6665C33.78 21.6665 30.9388 18.8253 30.9388 15.3332C30.9388 11.841 33.78 8.99984 37.2722 8.99984ZM8.93882 32.6887V15.9777C8.93882 15.4387 9.37765 14.9998 9.91665 14.9998H29.6223C29.6175 15.1112 29.6053 15.2207 29.6053 15.3332C29.6053 19.5607 33.0448 22.9998 37.272 22.9998C38.5995 22.9998 39.8487 22.66 40.9387 22.0638V32.6887C40.9387 33.2277 40.4998 33.6665 39.9608 33.6665H9.91682C9.37765 33.6665 8.93882 33.2277 8.93882 32.6887ZM22.8817 34.9998H27.8427C27.4832 36.659 27.5492 38.4158 28.0517 40.3332H22.648C23.361 38.5622 23.4363 36.7747 22.8817 34.9998ZM18.4513 42.3332C18.6818 41.935 19.1128 41.6665 19.6057 41.6665H30.939C31.4318 41.6665 31.8628 41.935 32.0933 42.3332H18.4513Z" fill="#2B2A29"/>
</svg>
