<svg width="50" height="50" viewBox="0 0 50 50" fill="none" xmlns="http://www.w3.org/2000/svg">
<path class="icon__color-element" d="M33.138 10.5286C33.013 10.4036 32.8435 10.3333 32.6667 10.3333H14.6667C14.2985 10.3333 14 10.6318 14 10.9999V42.9999C14 43.3681 14.2985 43.6666 14.6667 43.6666H38C38.3682 43.6666 38.6667 43.3681 38.6667 42.9999V16.3333C38.6667 16.1564 38.5963 15.9869 38.4713 15.8619L33.138 10.5286ZM33.3333 12.6093L36.3907 15.6666H33.3333V12.6093ZM15.3333 42.3333V11.6666H32V16.3333C32 16.7014 32.2985 16.9999 32.6667 16.9999H37.3333V42.3333H15.3333Z" fill="#2B2A29"/>
<path class="icon__color-element" d="M9.76894 22.9854C9.37527 22.9854 9.05627 23.3045 9.05627 23.698C9.05627 24.0915 9.37544 24.4109 9.76894 24.4109C10.1624 24.4109 10.4816 24.0917 10.4816 23.698C10.4816 23.3044 10.1624 22.9854 9.76894 22.9854Z" fill="#2B2A29"/>
<path class="icon__color-element" d="M7.99974 8.99992C8.3679 8.99992 8.66641 8.70142 8.66641 8.33325V6.99992C8.66641 6.63175 8.3679 6.33325 7.99974 6.33325C7.63157 6.33325 7.33307 6.63175 7.33307 6.99992V8.33325C7.33307 8.70142 7.63157 8.99992 7.99974 8.99992Z" fill="#2B2A29"/>
<path class="icon__color-element" d="M7.99974 10.3333C7.63157 10.3333 7.33307 10.6318 7.33307 10.9999V12.3333C7.33307 12.7014 7.63157 12.9999 7.99974 12.9999C8.3679 12.9999 8.66641 12.7014 8.66641 12.3333V10.9999C8.66641 10.6318 8.3679 10.3333 7.99974 10.3333Z" fill="#2B2A29"/>
<path class="icon__color-element" d="M6.6665 9H5.33317C4.965 9 4.6665 9.2985 4.6665 9.66667C4.6665 10.0348 4.965 10.3333 5.33317 10.3333H6.6665C7.03467 10.3333 7.33317 10.0348 7.33317 9.66667C7.33317 9.2985 7.03467 9 6.6665 9Z" fill="#2B2A29"/>
<path class="icon__color-element" d="M10.6664 9H9.33311C8.96494 9 8.66644 9.2985 8.66644 9.66667C8.66644 10.0348 8.96494 10.3333 9.33311 10.3333H10.6664C11.0346 10.3333 11.3331 10.0348 11.3331 9.66667C11.3331 9.2985 11.0346 9 10.6664 9Z" fill="#2B2A29"/>
<path class="icon__color-element" d="M42.9998 19.6665C41.7133 19.6665 40.6665 20.7133 40.6665 21.9998C40.6665 23.2863 41.7133 24.3332 42.9998 24.3332C44.2863 24.3332 45.3332 23.2863 45.3332 21.9998C45.3332 20.7133 44.2863 19.6665 42.9998 19.6665ZM42.9998 22.9998C42.4483 22.9998 41.9998 22.5513 41.9998 21.9998C41.9998 21.4483 42.4483 20.9998 42.9998 20.9998C43.5513 20.9998 43.9998 21.4483 43.9998 21.9998C43.9998 22.5513 43.5513 22.9998 42.9998 22.9998Z" fill="#2B2A29"/>
<path class="icon__color-element" d="M39.7689 7.65186C39.3752 7.65186 39.0562 7.97102 39.0562 8.36452C39.0562 8.75802 39.3754 9.07736 39.7689 9.07736C40.1624 9.07736 40.4815 8.75819 40.4815 8.36452C40.4815 7.97086 40.1624 7.65186 39.7689 7.65186Z" fill="#2B2A29"/>
<path class="icon__color-element" d="M18.9109 24.8413C18.9624 25.3052 19.3037 25.6802 19.7609 25.7747C19.834 25.79 19.9077 25.7975 19.9802 25.7975C20.36 25.7975 20.7172 25.5957 20.9112 25.2558L22.057 23.2507L23.2029 25.2562C23.4347 25.6612 23.8952 25.8713 24.3539 25.7747C24.8102 25.68 25.1517 25.305 25.2032 24.8413L25.644 20.8587L26.1269 18.3123C26.1959 18.3185 26.2625 18.3332 26.3332 18.3332C27.6197 18.3332 28.6665 17.2863 28.6665 15.9998C28.6665 14.7133 27.6197 13.6665 26.3332 13.6665C25.3589 13.6665 24.5242 14.268 24.1755 15.1183C23.5799 14.9987 22.9454 15.0822 22.4139 15.3752C22.184 15.5015 21.9305 15.5018 21.7007 15.3748C21.3219 15.1665 20.892 15.0565 20.4582 15.0565C19.0324 15.0565 17.8722 16.2167 17.8722 17.6425C17.8722 17.6842 17.876 17.7258 17.8839 17.7668L18.463 20.8078L18.9109 24.8413ZM26.333 14.9998C26.8845 14.9998 27.333 15.4483 27.333 15.9998C27.333 16.5513 26.8845 16.9998 26.333 16.9998C25.7815 16.9998 25.333 16.5513 25.333 15.9998C25.333 15.4483 25.7815 14.9998 26.333 14.9998ZM20.458 16.3898C20.6709 16.3898 20.8727 16.4417 21.0577 16.5432C21.6834 16.8878 22.4304 16.8878 23.0574 16.5432C23.3582 16.3775 23.7194 16.353 24.0462 16.4597C24.1545 16.9993 24.4557 17.4643 24.867 17.8002L24.3265 20.6608L23.9659 23.904L23.1315 22.4437C22.9085 22.0533 22.5069 21.82 22.057 21.82C21.6075 21.82 21.2059 22.0533 20.9829 22.4437L20.1479 23.9047L19.7804 20.61L19.2069 17.5865C19.236 16.9213 19.7862 16.3898 20.458 16.3898Z" fill="#2B2A29"/>
<path class="icon__color-element" d="M33.9999 19.6665H28.6666C28.2984 19.6665 27.9999 19.965 27.9999 20.3332C27.9999 20.7013 28.2984 20.9998 28.6666 20.9998H33.9999C34.3681 20.9998 34.6666 20.7013 34.6666 20.3332C34.6666 19.965 34.3681 19.6665 33.9999 19.6665Z" fill="#2B2A29"/>
<path class="icon__color-element" d="M33.9999 23.6665H28.6666C28.2984 23.6665 27.9999 23.965 27.9999 24.3332C27.9999 24.7013 28.2984 24.9998 28.6666 24.9998H33.9999C34.3681 24.9998 34.6666 24.7013 34.6666 24.3332C34.6666 23.965 34.3681 23.6665 33.9999 23.6665Z" fill="#2B2A29"/>
<path class="icon__color-element" d="M33.9999 27.6665H18.6666C18.2984 27.6665 17.9999 27.965 17.9999 28.3332C17.9999 28.7013 18.2984 28.9998 18.6666 28.9998H33.9999C34.3681 28.9998 34.6666 28.7013 34.6666 28.3332C34.6666 27.965 34.3681 27.6665 33.9999 27.6665Z" fill="#2B2A29"/>
<path class="icon__color-element" d="M33.9999 31.6665H18.6666C18.2984 31.6665 17.9999 31.965 17.9999 32.3332C17.9999 32.7013 18.2984 32.9998 18.6666 32.9998H33.9999C34.3681 32.9998 34.6666 32.7013 34.6666 32.3332C34.6666 31.965 34.3681 31.6665 33.9999 31.6665Z" fill="#2B2A29"/>
<path class="icon__color-element" d="M33.9999 35.6665H18.6666C18.2984 35.6665 17.9999 35.965 17.9999 36.3332C17.9999 36.7013 18.2984 36.9998 18.6666 36.9998H33.9999C34.3681 36.9998 34.6666 36.7013 34.6666 36.3332C34.6666 35.965 34.3681 35.6665 33.9999 35.6665Z" fill="#2B2A29"/>
</svg>
