<svg width="16" height="16" viewBox="0 0 16 16" fill="none" xmlns="http://www.w3.org/2000/svg">
<g opacity="0.5">
<path d="M7.33331 8.66659C7.33331 8.48977 7.40355 8.32021 7.52858 8.19518C7.6536 8.07016 7.82317 7.99992 7.99998 7.99992C8.17679 7.99992 8.34636 8.07016 8.47138 8.19518C8.59641 8.32021 8.66665 8.48977 8.66665 8.66659V10.6666C8.66665 10.8434 8.59641 11.013 8.47138 11.138C8.34636 11.263 8.17679 11.3333 7.99998 11.3333C7.82317 11.3333 7.6536 11.263 7.52858 11.138C7.40355 11.013 7.33331 10.8434 7.33331 10.6666V8.66659ZM7.99998 4.99992C7.73476 4.99992 7.48041 5.10528 7.29287 5.29281C7.10534 5.48035 6.99998 5.7347 6.99998 5.99992C6.99998 6.26514 7.10534 6.51949 7.29287 6.70703C7.48041 6.89456 7.73476 6.99992 7.99998 6.99992C8.2652 6.99992 8.51955 6.89456 8.70709 6.70703C8.89462 6.51949 8.99998 6.26514 8.99998 5.99992C8.99998 5.7347 8.89462 5.48035 8.70709 5.29281C8.51955 5.10528 8.2652 4.99992 7.99998 4.99992ZM1.33331 7.99992C1.33331 6.23181 2.03569 4.53612 3.28593 3.28587C4.53618 2.03563 6.23187 1.33325 7.99998 1.33325C9.76809 1.33325 11.4638 2.03563 12.714 3.28587C13.9643 4.53612 14.6666 6.23181 14.6666 7.99992C14.6666 9.76803 13.9643 11.4637 12.714 12.714C11.4638 13.9642 9.76809 14.6666 7.99998 14.6666C6.23187 14.6666 4.53618 13.9642 3.28593 12.714C2.03569 11.4637 1.33331 9.76803 1.33331 7.99992ZM7.99998 2.66659C6.58549 2.66659 5.22894 3.22849 4.22874 4.22868C3.22855 5.22888 2.66665 6.58543 2.66665 7.99992C2.66665 9.41441 3.22855 10.771 4.22874 11.7712C5.22894 12.7713 6.58549 13.3333 7.99998 13.3333C9.41447 13.3333 10.771 12.7713 11.7712 11.7712C12.7714 10.771 13.3333 9.41441 13.3333 7.99992C13.3333 6.58543 12.7714 5.22888 11.7712 4.22868C10.771 3.22849 9.41447 2.66659 7.99998 2.66659Z" fill="white"/>
</g>
</svg>
