<svg width="50" height="50" viewBox="0 0 50 50" fill="none" xmlns="http://www.w3.org/2000/svg">
<path class="icon__color-element" d="M27.5008 8.5339C27.8945 8.5339 28.2137 8.21473 28.2137 7.82123C28.2137 7.42773 27.8945 7.1084 27.5008 7.1084C27.1071 7.1084 26.7881 7.42757 26.7881 7.82123C26.7881 8.2149 27.1073 8.5339 27.5008 8.5339Z" fill="#2B2A29"/>
<path class="icon__color-element" d="M39.3337 8.99992C39.7022 8.99992 40.0003 8.70142 40.0003 8.33325V6.99992C40.0003 6.63175 39.7022 6.33325 39.3337 6.33325C38.9652 6.33325 38.667 6.63175 38.667 6.99992V8.33325C38.667 8.70142 38.9652 8.99992 39.3337 8.99992Z" fill="#2B2A29"/>
<path class="icon__color-element" d="M39.3337 10.3333C38.9652 10.3333 38.667 10.6318 38.667 10.9999V12.3333C38.667 12.7014 38.9652 12.9999 39.3337 12.9999C39.7022 12.9999 40.0003 12.7014 40.0003 12.3333V10.9999C40.0003 10.6318 39.7022 10.3333 39.3337 10.3333Z" fill="#2B2A29"/>
<path class="icon__color-element" d="M38 9H36.6667C36.2982 9 36 9.2985 36 9.66667C36 10.0348 36.2982 10.3333 36.6667 10.3333H38C38.3685 10.3333 38.6667 10.0348 38.6667 9.66667C38.6667 9.2985 38.3685 9 38 9Z" fill="#2B2A29"/>
<path class="icon__color-element" d="M42.0004 9H40.667C40.2985 9 40.0004 9.2985 40.0004 9.66667C40.0004 10.0348 40.2985 10.3333 40.667 10.3333H42.0004C42.3689 10.3333 42.667 10.0348 42.667 9.66667C42.667 9.2985 42.3689 9 42.0004 9Z" fill="#2B2A29"/>
<path class="icon__color-element" d="M36.0002 14.3333H8.00016C7.632 14.3333 7.3335 14.6318 7.3335 14.9999V42.9999C7.3335 43.1768 7.40383 43.3463 7.52883 43.4713C7.65383 43.5963 7.82333 43.6666 8.00016 43.6666L36.0002 43.6659C36.3687 43.6659 36.6668 43.3674 36.6668 42.9993V37.5663V23.3029V14.9999C36.6668 14.6318 36.3687 14.3333 36.0002 14.3333ZM23.8843 31.7821C23.3817 31.2776 22.7123 30.9999 22.0002 30.9999C21.288 30.9999 20.619 31.2776 20.116 31.7818C19.613 32.2859 19.337 32.9563 19.339 33.6684L19.3462 36.1544C19.3472 36.4451 19.2088 36.7046 18.9673 36.8661C18.855 36.9399 18.7392 36.9176 18.662 36.8853C18.5517 36.8394 18.4215 36.7281 18.3873 36.5549C18.3473 36.3479 18.3023 36.0764 18.2572 35.7776C18.0607 34.4809 17.757 33.1964 17.3562 31.9421C17.968 30.8578 18.7722 29.8814 19.7103 29.1153C21.059 28.0144 22.9425 28.0144 24.2902 29.1153C25.2287 29.8811 26.0327 30.8579 26.6447 31.9426C26.244 33.1961 25.9403 34.4806 25.7438 35.7778C25.6983 36.0756 25.654 36.3468 25.613 36.5544C25.5792 36.7286 25.449 36.8396 25.3383 36.8854C25.2608 36.9179 25.1457 36.9411 25.0337 36.8663C24.7915 36.7048 24.6535 36.4458 24.6548 36.1544L24.6613 33.6688C24.663 32.9563 24.3875 32.2864 23.8843 31.7821ZM32.2405 29.0006H29.0932C29.5695 27.4789 29.5762 26.8699 29.5203 26.5381C29.1832 24.5351 27.5378 22.9373 25.521 22.6521C25.4442 22.6411 25.3577 22.6329 25.2683 22.6283C24.6043 22.5908 23.9005 22.7464 23.1668 23.0849H23.1662C22.3823 23.4469 21.618 23.4463 20.8342 23.0849C20.0988 22.7461 19.3925 22.5908 18.7333 22.6283C18.6422 22.6328 18.5565 22.6409 18.4813 22.6518C16.4628 22.9373 14.8177 24.5353 14.4803 26.5378C14.4243 26.8699 14.431 27.4789 14.9073 29.0006H11.7598C12.2362 27.4789 12.2428 26.8699 12.187 26.5381C11.88 24.7161 10.4533 23.2159 8.66683 22.7611V18.9999H35.3335V22.7604C33.5408 23.2136 32.123 24.6984 31.8133 26.5378C31.7575 26.8698 31.7642 27.4789 32.2405 29.0006ZM25.1337 28.0826C23.2887 26.5754 20.7112 26.5761 18.867 28.0826C18.0827 28.7228 17.3845 29.4949 16.79 30.3443C15.741 27.5723 15.7758 26.8728 15.795 26.7594C16.0368 25.3233 17.2182 24.1768 18.67 23.9716C18.71 23.9658 18.7547 23.9621 18.8038 23.9596C18.8442 23.9573 18.8845 23.9563 18.9255 23.9563C19.338 23.9563 19.7813 24.0679 20.2758 24.2958C21.4193 24.8231 22.5808 24.8231 23.724 24.2958C24.2683 24.0454 24.7527 23.9406 25.198 23.9594C25.2455 23.9621 25.2905 23.9656 25.3328 23.9718C26.782 24.1766 27.9637 25.3229 28.2052 26.7596C28.2242 26.8726 28.2588 27.5721 27.2102 30.3443C26.6157 29.4949 25.9175 28.7228 25.1337 28.0826ZM8.66683 24.1436C9.79683 24.5569 10.6707 25.5643 10.8722 26.7598C10.8917 26.8759 10.9313 27.6064 9.78683 30.5833C9.31283 31.8156 8.939 33.0861 8.66666 34.3743V24.1436H8.66683ZM33.1285 26.7594C33.3297 25.5641 34.1818 24.5696 35.3335 24.1484V34.3643C35.0613 33.0784 34.6863 31.8116 34.2137 30.5833C33.0692 27.6064 33.1088 26.8759 33.1285 26.7594ZM35.3335 15.6666V17.6666H8.66683V15.6666H35.3335ZM8.66683 42.3326V38.0246C9.13716 37.7756 9.4845 37.3398 9.58833 36.8096C9.63166 36.5883 9.67983 36.2973 9.72833 35.9776C9.98183 34.3041 10.4203 32.6504 11.0313 31.0619C11.1308 30.8031 11.2197 30.5641 11.3038 30.3341H15.3635C15.4477 30.5643 15.5363 30.8031 15.636 31.0619C16.2467 32.6498 16.6852 34.3038 16.9387 35.9776C16.9872 36.2973 17.0353 36.5883 17.0787 36.8103C17.1935 37.3969 17.594 37.8851 18.15 38.1166C18.677 38.3356 19.2447 38.2846 19.708 37.9749C20.3187 37.5668 20.682 36.8848 20.6793 36.1508L20.6722 33.6651C20.6715 33.3096 20.8095 32.9753 21.0602 32.7238C21.5628 32.2204 22.4378 32.2204 22.9403 32.7238C23.191 32.9754 23.329 33.3098 23.3277 33.6651L23.3212 36.1504C23.3185 36.8848 23.6818 37.5671 24.2925 37.9749C24.566 38.1579 24.8765 38.2506 25.1935 38.2506C25.4122 38.2506 25.6348 38.2059 25.8498 38.1164C26.4058 37.8853 26.8068 37.3971 26.9215 36.8114C26.9652 36.5894 27.0133 36.2981 27.0615 35.9774C27.316 34.3023 27.7542 32.6483 28.3648 31.0618C28.4643 30.8029 28.5532 30.5639 28.6373 30.3339H32.6967C32.7807 30.5641 32.8695 30.8029 32.9692 31.0618C33.5798 32.6484 34.018 34.3023 34.2725 35.9774C34.3207 36.2981 34.3688 36.5894 34.4125 36.8098C34.5175 37.3484 34.865 37.7936 35.3337 38.0389V42.3333L8.66683 42.3326Z" fill="#2B2A29"/>
</svg>
