<svg width="430" height="560" viewBox="0 0 430 560" fill="none" xmlns="http://www.w3.org/2000/svg">
<path fill-rule="evenodd" clip-rule="evenodd" d="M282.228 539.431C307.26 540.141 330.393 534.682 346.993 514.59C364.022 493.981 362.946 465.863 359.258 435.725C358.689 431.075 358.058 426.377 357.424 421.654C356.009 411.117 354.577 400.46 353.784 389.954C352.634 374.729 352.815 359.752 356.329 345.779C362.227 322.329 376.392 302.916 390.265 283.901C392.157 281.309 394.043 278.724 395.902 276.138C411.433 254.527 425.088 232.78 424.734 205.365C423.961 145.585 393.525 87.9395 352.671 51.5791C311.353 14.8051 256.781 7.42385 204.768 9.68231C154.244 11.8761 102.322 25.0653 64.6519 64.0732C28.6762 101.327 9.11582 157.976 7.26403 214.149C6.46073 238.516 14.5169 260.098 24.7918 281.325C27.8775 287.7 31.1663 294.047 34.4723 300.427C42.1544 315.254 49.929 330.258 55.4613 346.198C60.5016 360.72 63.6448 376.158 66.7503 391.41C68.0571 397.829 69.3572 404.214 70.7892 410.485C75.633 431.695 81.9939 451.66 95.2034 467.499C124.379 502.485 165.106 519.671 206.485 527.386C212.205 528.453 218.092 529.658 224.082 530.884C243.115 534.781 263.181 538.89 282.228 539.431ZM223.829 531.925C217.852 530.701 211.986 529.5 206.297 528.439C164.816 520.705 123.878 503.458 94.5196 468.255C81.1517 452.225 74.7445 432.053 69.8904 410.797C68.4451 404.469 67.1382 398.049 65.8279 391.613C62.7293 376.394 59.6111 361.078 54.5967 346.63C49.0912 330.768 41.375 315.876 33.709 301.082C30.3942 294.685 27.0888 288.306 23.9756 281.874C13.6818 260.608 5.52306 238.82 6.33618 214.156C8.19567 157.749 27.837 100.791 64.0472 63.2951C101.97 24.0254 154.167 10.8138 204.774 8.61637C256.857 6.35486 311.693 13.7301 353.26 50.7252C394.272 87.2264 424.885 145.137 425.662 205.302C426.022 233.157 412.133 255.191 396.607 276.795C394.741 279.391 392.852 281.981 390.961 284.574C377.074 303.611 363.057 322.827 357.22 346.033C353.752 359.821 353.563 374.648 354.709 389.816C355.5 400.286 356.923 410.885 358.336 421.405C358.972 426.136 359.605 430.851 360.178 435.532C363.86 465.622 365.04 494.264 347.653 515.307C330.77 535.74 307.298 541.211 282.165 540.497C263.041 539.954 242.876 535.825 223.829 531.925Z" fill="#929292"/>
<path fill-rule="evenodd" clip-rule="evenodd" d="M280.615 520.556C303.784 521.214 325.187 516.16 340.545 497.574C356.296 478.51 355.303 452.499 351.889 424.597C351.363 420.294 350.779 415.945 350.191 411.573C348.881 401.818 347.556 391.949 346.821 382.222C345.756 368.126 345.923 354.255 349.179 341.313C354.641 319.595 367.76 301.615 380.603 284.013C382.354 281.614 384.1 279.221 385.82 276.827C400.198 256.82 412.831 236.699 412.503 211.335C411.788 156.008 383.618 102.652 345.804 68.9967C307.562 34.9612 257.052 28.1277 208.903 30.2183C162.133 32.2491 114.076 44.4582 79.2125 80.5603C45.9165 115.039 27.8114 167.471 26.0974 219.465C25.3541 242.011 32.8083 261.984 42.3197 281.633C45.1753 287.532 48.2194 293.407 51.2796 299.313C58.392 313.04 65.5915 326.935 70.714 341.694C75.381 355.141 78.2918 369.437 81.1669 383.558C82.3766 389.499 83.5799 395.409 84.9051 401.212C89.3888 420.846 95.2758 439.321 107.499 453.977C134.502 486.357 172.197 502.265 210.499 509.406C215.797 510.394 221.247 511.51 226.792 512.646C244.412 516.253 262.985 520.056 280.615 520.556ZM226.539 513.686C221.007 512.553 215.577 511.441 210.312 510.46C171.907 503.299 134 487.331 106.815 454.733C94.4337 439.886 88.5004 421.204 84.0063 401.525C82.6678 395.664 81.4577 389.72 80.2445 383.761C77.3762 369.673 74.4905 355.498 69.8494 342.126C64.7536 327.444 57.6124 313.662 50.5161 299.968C47.4472 294.045 44.3866 288.138 41.5035 282.182C31.9733 262.494 24.4165 242.316 25.1695 219.471C26.8913 167.244 45.0773 114.504 78.6078 79.7822C113.724 43.4184 162.056 31.1868 208.909 29.1524C257.128 27.0587 307.903 33.8861 346.392 68.1427C384.365 101.939 412.712 155.56 413.432 211.273C413.765 237.076 400.898 257.484 386.526 277.484C384.798 279.888 383.049 282.285 381.298 284.686C368.442 302.311 355.471 320.093 350.07 341.567C346.861 354.324 346.685 368.044 347.746 382.084C348.478 391.776 349.796 401.585 351.104 411.324C351.692 415.704 352.279 420.07 352.809 424.404C356.217 452.258 357.314 478.793 341.205 498.29C325.565 517.219 303.823 522.284 280.551 521.623C262.845 521.12 244.173 517.297 226.539 513.686Z" fill="#929292"/>
<path fill-rule="evenodd" clip-rule="evenodd" d="M281.114 498.479C301.931 499.07 321.149 494.529 334.936 477.842C349.073 460.732 348.187 437.383 345.118 412.305C344.645 408.439 344.12 404.531 343.593 400.603C342.415 391.835 341.224 382.964 340.563 374.22C339.606 361.549 339.756 349.076 342.684 337.435C347.596 317.905 359.393 301.737 370.934 285.92C372.508 283.763 374.077 281.613 375.622 279.462C388.544 261.481 399.885 243.413 399.591 220.641C398.949 170.939 373.642 123.002 339.666 92.7629C305.311 62.1867 259.931 56.0452 216.664 57.9239C174.637 59.7488 131.462 70.7198 100.143 103.151C70.232 134.125 53.9652 181.229 52.4251 227.944C51.7577 248.191 58.4515 266.13 66.9984 283.787C69.5633 289.085 72.2981 294.363 75.0478 299.67C81.4405 312.008 87.9135 324.501 92.5185 337.769C96.714 349.857 99.3312 362.711 101.915 375.403C103.002 380.741 104.083 386.051 105.274 391.263C109.303 408.906 114.591 425.498 125.567 438.661C149.826 467.749 183.691 482.042 218.108 488.459C222.87 489.347 227.77 490.35 232.754 491.371C248.588 494.613 265.274 498.029 281.114 498.479ZM232.501 492.411C227.53 491.393 222.651 490.394 217.921 489.512C183.401 483.076 149.324 468.723 124.884 439.416C113.749 426.064 108.414 409.264 104.375 391.576C103.171 386.306 102.083 380.962 100.993 375.606C98.4156 362.947 95.8235 350.214 91.6539 338.201C87.0758 325.01 80.6609 312.63 74.2844 300.325C71.5259 295.001 68.7745 289.691 66.1822 284.336C57.6165 266.64 50.82 248.495 51.4973 227.95C53.045 181.002 69.3927 133.589 99.5382 102.373C131.11 69.68 174.559 58.6864 216.67 56.8579C260.007 54.9762 305.652 61.1117 340.255 91.909C374.388 122.289 399.872 170.491 400.519 220.579C400.819 243.79 389.244 262.146 376.328 280.119C374.775 282.28 373.203 284.435 371.63 286.592C360.075 302.433 348.426 318.403 343.575 337.689C340.694 349.145 340.535 361.467 341.488 374.082C342.146 382.79 343.33 391.603 344.505 400.354C345.034 404.291 345.561 408.215 346.038 412.112C349.1 437.142 350.091 461.015 335.596 478.558C321.526 495.587 301.97 500.139 281.051 499.545C265.134 499.093 248.349 495.656 232.501 492.411Z" fill="#929292"/>
<path fill-rule="evenodd" clip-rule="evenodd" d="M285.573 473.492C303.444 473.999 319.924 470.1 331.745 455.793C343.86 441.13 343.106 421.114 340.471 399.574C340.065 396.256 339.614 392.902 339.161 389.529C338.15 381.997 337.126 374.374 336.558 366.863C335.736 355.977 335.864 345.254 338.382 335.244C342.605 318.454 352.747 304.555 362.657 290.973C364.009 289.121 365.356 287.275 366.683 285.428C377.78 269.986 387.504 254.489 387.251 234.964C386.7 192.306 364.979 151.156 335.812 125.197C306.325 98.9538 267.372 93.6791 230.218 95.2923C194.131 96.8592 157.072 106.28 130.193 134.113C104.522 160.696 90.5575 201.128 89.2355 241.23C88.6629 258.598 94.4043 273.989 101.743 289.15C103.944 293.696 106.291 298.227 108.652 302.783C114.143 313.381 119.707 324.118 123.663 335.518C127.268 345.905 129.518 356.952 131.737 367.855C132.671 372.438 133.599 376.996 134.62 381.468C138.079 396.616 142.617 410.851 152.033 422.141C172.853 447.107 201.922 459.378 231.472 464.888C235.564 465.651 239.774 466.512 244.055 467.389C257.652 470.173 271.975 473.105 285.573 473.492ZM243.802 468.43C239.534 467.556 235.345 466.698 231.285 465.941C201.632 460.412 172.352 448.081 151.349 422.897C141.775 411.417 137.191 396.974 133.721 381.78C132.687 377.25 131.752 372.659 130.815 368.058C128.602 357.188 126.378 346.262 122.799 335.95C118.869 324.627 113.364 314.003 107.889 303.437C105.519 298.864 103.155 294.302 100.927 289.699C93.5693 274.499 87.7253 258.902 88.3076 241.237C89.6373 200.901 103.683 160.161 129.588 133.335C156.72 105.24 194.054 95.7969 230.224 94.2263C267.447 92.61 306.665 97.8788 336.4 124.343C365.725 150.443 387.624 191.859 388.18 234.901C388.438 254.866 378.481 270.65 367.388 286.085C366.054 287.941 364.704 289.792 363.353 291.645C353.429 305.251 343.435 318.952 339.273 335.498C336.802 345.323 336.665 355.895 337.483 366.725C338.048 374.2 339.064 381.765 340.073 389.279C340.528 392.661 340.981 396.032 341.39 399.381C344.02 420.873 344.878 441.413 332.405 456.51C320.301 471.158 303.482 475.068 285.51 474.558C271.835 474.17 257.413 471.217 243.802 468.43Z" fill="#929292"/>
</svg>
