<svg width="11" height="10" viewBox="0 0 11 10" fill="none" xmlns="http://www.w3.org/2000/svg">
<g clip-path="url(#clip0)">
<path d="M5.17871 -0.000244141C3.111 -0.000244141 1.42871 1.68205 1.42871 3.74976C1.42871 5.6858 4.50767 9.42955 4.85892 9.85017C4.93809 9.94496 5.05517 9.99976 5.17871 9.99976C5.30225 9.99976 5.41934 9.94496 5.4985 9.85017C5.84975 9.42955 8.92871 5.6858 8.92871 3.74976C8.92871 1.68205 7.24642 -0.000244141 5.17871 -0.000244141ZM5.17871 8.92226C4.14163 7.61642 2.26204 4.99226 2.26204 3.74976C2.26204 2.14142 3.57038 0.833089 5.17871 0.833089C6.78704 0.833089 8.09538 2.14142 8.09538 3.74976C8.09538 4.99226 6.21579 7.61642 5.17871 8.92226Z" fill="#2B2A29"/>
<path d="M5.17879 1.6665C4.03004 1.6665 3.09546 2.60109 3.09546 3.74984C3.09546 4.89859 4.03004 5.83317 5.17879 5.83317C5.74504 5.83317 6.27463 5.60984 6.67004 5.20442C6.83067 5.03963 6.82733 4.77588 6.66275 4.61525C6.49796 4.45463 6.23421 4.45775 6.07358 4.62255C5.83629 4.86588 5.51858 4.99984 5.17879 4.99984C4.48942 4.99984 3.92879 4.43921 3.92879 3.74984C3.92879 3.06046 4.48942 2.49984 5.17879 2.49984C5.86817 2.49984 6.42879 3.06046 6.42879 3.74984C6.42879 3.97984 6.61546 4.1665 6.84546 4.1665C7.07546 4.1665 7.26213 3.97984 7.26213 3.74984C7.26213 2.60109 6.32754 1.6665 5.17879 1.6665Z" fill="#2B2A29"/>
</g>
<defs>
<clipPath id="clip0">
<rect width="10" height="10" fill="white" transform="translate(0.178711 -0.000244141)"/>
</clipPath>
</defs>
</svg>
