<svg width="25" height="25" viewBox="0 0 25 25" fill="none" xmlns="http://www.w3.org/2000/svg">
<g clip-path="url(#clip0_222_1328)">
<path d="M24.7748 6.05905L12.7231 18.1116C12.4197 18.4132 11.9288 18.4132 11.6254 18.1116L11.3831 17.8693L11.1201 17.6064L9.98209 16.4683L9.96594 16.4441L4.75413 11.1919C4.45256 10.8903 4.45256 10.3976 4.75413 10.096L6.39656 8.45539C6.69992 8.15113 7.18906 8.15113 7.49241 8.45539L12.1801 13.1781L22.0347 3.32076C22.338 3.0183 22.829 3.0183 23.1305 3.32076L24.7748 4.96499C25.0754 5.26566 25.0754 5.75749 24.7748 6.05905Z" fill="#CF2023"/>
<path d="M19.5611 20.2953C19.5611 21.1686 18.8494 21.8803 17.9743 21.8803H3.17268C2.29761 21.8803 1.58589 21.1686 1.58589 20.2953V4.70385C1.58589 3.83058 2.29761 3.11886 3.17268 3.11886H17.9743C18.8494 3.11886 19.5611 3.83058 19.5611 4.70385L20.6884 3.66095C20.8706 2.37752 19.5737 1.53476 17.9743 1.53476H3.17268C1.41985 1.53476 0 2.95282 0 4.70385V20.2953C0 22.0463 1.41985 23.4662 3.17268 23.4662H17.9743C19.7272 23.4662 21.147 22.0463 21.147 20.2953V11.0007L19.5602 12.7275L19.5611 20.2953Z" fill="#CF2023"/>
</g>
<defs>
<clipPath id="clip0_222_1328">
<rect width="25" height="25" fill="white"/>
</clipPath>
</defs>
</svg>
