<svg width="16" height="16" viewBox="0 0 16 16" fill="none" xmlns="http://www.w3.org/2000/svg">
<g opacity="0.5" clip-path="url(#clip0)">
<path d="M15.8559 3.87767L8.14282 11.5913C7.94868 11.7843 7.63448 11.7843 7.44033 11.5913L7.28524 11.4362L7.11694 11.2679L6.3886 10.5396L6.37826 10.5241L3.0427 7.16268C2.8497 6.96968 2.8497 6.65433 3.0427 6.46133L4.09386 5.41132C4.288 5.2166 4.60105 5.2166 4.7952 5.41132L7.79531 8.43383L14.1023 2.12516C14.2964 1.93159 14.6106 1.93159 14.8036 2.12516L15.8559 3.17747C16.0483 3.36989 16.0483 3.68467 15.8559 3.87767Z" fill="white"/>
<path d="M12.5191 12.9889C12.5191 13.5478 12.0636 14.0033 11.5036 14.0033H2.03052C1.47047 14.0033 1.01497 13.5478 1.01497 12.9889V3.0104C1.01497 2.4515 1.47047 1.996 2.03052 1.996H11.5036C12.0636 1.996 12.5191 2.4515 12.5191 3.0104L13.2406 2.34294C13.3572 1.52154 12.5272 0.982178 11.5036 0.982178H2.03052C0.908706 0.982178 0 1.88973 0 3.0104V12.9889C0 14.1096 0.908706 15.0183 2.03052 15.0183H11.5036C12.6254 15.0183 13.5341 14.1096 13.5341 12.9889V7.04041L12.5185 8.14556L12.5191 12.9889Z" fill="white"/>
</g>
<defs>
<clipPath id="clip0">
<rect width="16" height="16" fill="white"/>
</clipPath>
</defs>
</svg>
