<svg width="16" height="16" viewBox="0 0 16 16" fill="none" xmlns="http://www.w3.org/2000/svg">
<g opacity="0.5" clip-path="url(#clip0)">
<path d="M15.8558 3.87779L8.1427 11.5914C7.94855 11.7844 7.63436 11.7844 7.44021 11.5914L7.28512 11.4364L7.11682 11.2681L6.38847 10.5397L6.37814 10.5242L3.04258 7.1628C2.84958 6.9698 2.84958 6.65445 3.04258 6.46145L4.09373 5.41144C4.28788 5.21672 4.60093 5.21672 4.79508 5.41144L7.79519 8.43395L14.1021 2.12528C14.2963 1.93171 14.6105 1.93171 14.8035 2.12528L15.8558 3.17759C16.0482 3.37001 16.0482 3.68479 15.8558 3.87779Z" fill="#929292"/>
<path d="M12.5191 12.989C12.5191 13.5479 12.0636 14.0034 11.5036 14.0034H2.03052C1.47047 14.0034 1.01497 13.5479 1.01497 12.989V3.01046C1.01497 2.45156 1.47047 1.99606 2.03052 1.99606H11.5036C12.0636 1.99606 12.5191 2.45156 12.5191 3.01046L13.2406 2.343C13.3572 1.5216 12.5272 0.982239 11.5036 0.982239H2.03052C0.908706 0.982239 0 1.8898 0 3.01046V12.989C0 14.1096 0.908706 15.0184 2.03052 15.0184H11.5036C12.6254 15.0184 13.5341 14.1096 13.5341 12.989V7.04047L12.5185 8.14562L12.5191 12.989Z" fill="#929292"/>
</g>
<defs>
<clipPath id="clip0">
<rect width="16" height="16" fill="white"/>
</clipPath>
</defs>
</svg>
