<svg width="8" height="8" viewBox="0 0 8 8" fill="none" xmlns="http://www.w3.org/2000/svg">
<path d="M0.450568 2.05654L0.690781 1.79594C0.766381 1.71455 0.866961 1.66972 0.974458 1.66972C1.0819 1.66972 1.1826 1.71455 1.2582 1.79594L3.99838 4.7483L6.74173 1.79266C6.81721 1.71128 6.91791 1.6665 7.02534 1.6665C7.13278 1.6665 7.23354 1.71128 7.30908 1.79266L7.54935 2.05166C7.7058 2.22008 7.7058 2.49443 7.54935 2.66285L4.28307 6.19455C4.20759 6.27587 4.10701 6.33317 3.99862 6.33317H3.99737C3.88987 6.33317 3.78929 6.27581 3.71381 6.19455L0.450568 2.67242C0.374969 2.5911 0.333472 2.47946 0.333353 2.36371C0.333353 2.24789 0.374969 2.1378 0.450568 2.05654Z" fill="#2B2A29"/>
</svg>
