<svg viewBox="0 0 25 25" xmlns="http://www.w3.org/2000/svg">
<g clip-path="url(#clip0)">
<path d="M12.4999 0C9.05308 0 6.25 2.80308 6.25 6.2499C6.25 9.69672 9.05308 12.4998 12.4999 12.4998C15.9467 12.4998 18.7498 9.69672 18.7498 6.2499C18.7498 2.80308 15.9467 0 12.4999 0ZM12.4999 9.37485C10.7765 9.37485 9.37495 7.97331 9.37495 6.2499C9.37495 4.52649 10.7765 3.12495 12.4999 3.12495C14.2233 3.12495 15.6249 4.52649 15.6249 6.2499C15.6249 7.97331 14.2233 9.37485 12.4999 9.37485Z"/>
<path d="M20.7872 12.3264C20.1763 11.7155 19.1888 11.7155 18.5779 12.3264C15.2279 15.6764 9.77491 15.6764 6.4234 12.3264C5.81247 11.7155 4.82498 11.7155 4.21406 12.3264C3.60313 12.9374 3.60313 13.9248 4.21406 14.5373C6.15777 16.481 8.6218 17.5888 11.1624 17.8779L6.70777 22.3325C6.09684 22.9435 6.09684 23.9309 6.70777 24.5419C7.31869 25.1528 8.30618 25.1528 8.91711 24.5419L12.4999 20.9591L16.0826 24.5419C16.3873 24.8465 16.7873 24.9997 17.1873 24.9997C17.5873 24.9997 17.9873 24.8465 18.292 24.5419C18.9029 23.9309 18.9029 22.9435 18.292 22.3325L13.8373 17.8779C16.3779 17.5888 18.842 16.481 20.7857 14.5373C21.3966 13.9264 21.3966 12.9374 20.7872 12.3264Z"/>
</g>
<defs>
<clipPath id="clip0">
<rect width="25" height="25" fill="white"/>
</clipPath>
</defs>
</svg>
