<svg viewBox="0 0 25 25" xmlns="http://www.w3.org/2000/svg">
<g clip-path="url(#clip0)">
<path d="M22.3507 10.5703C24.9376 7.06806 24.3639 7.00245 25 5.9082H20.0426C20.0426 5.9082 19.6903 7.13139 19.5827 7.35035C18.6306 9.28688 16.4949 12.1925 15.2033 12.4895C13.9315 12.7821 14.1003 9.7765 14.1787 8.47454C14.2525 7.26776 14.2399 6.84547 14.2044 6.637C14.1525 6.3324 13.8969 6.11019 13.5902 6.07147C12.958 5.99136 11.8107 5.87807 10.5259 5.93758L9.37653 5.97572C9.82971 6.98948 10.1358 6.67877 10.3027 7.8516C10.4912 9.2247 10.417 12.5658 9.06467 12.5658C6.89678 12.5658 4.46339 6.05488 4.38595 5.9082H0L0.401306 6.91242C3.6356 15.0091 7.6807 18.7592 13.2153 19.071L13.9355 19.0918L13.987 18.3924C14.0648 17.3122 14.6067 15.7574 15.5678 15.7574C16.9878 15.7574 17.3981 16.1709 18.3346 17.3281C19.235 18.4376 19.8555 19.0918 21.3085 19.0918H25L24.4736 18.0332C23.6515 16.3828 22.0026 14.9679 21.3587 14.1472C21.1254 13.8382 20.8958 13.3497 21.1334 12.7588C21.3278 12.2442 21.9065 11.171 22.3507 10.5703Z"/>
</g>
<defs>
<clipPath id="clip0">
<rect width="25" height="25" fill="white"/>
</clipPath>
</defs>
</svg>
