<svg viewBox="0 0 25 25" fill="none" xmlns="http://www.w3.org/2000/svg">
<path d="M12.5 6.43945C15.6951 6.43945 18.3993 7.89587 20.1053 9.11786C22.1265 10.5656 23.1666 11.9659 23.4363 12.5001C23.1663 13.0341 22.1265 14.4345 20.1053 15.8823C18.3993 17.1042 15.6951 18.5606 12.5 18.5606C9.3049 18.5606 6.60075 17.1042 4.89468 15.8823C2.87308 14.4345 1.83331 13.0341 1.56322 12.5001C1.83331 11.9659 2.87308 10.5656 4.89429 9.11786C6.60075 7.89587 9.3049 6.43945 12.5 6.43945ZM12.5 4.92427C5.5966 4.92427 0 10.9849 0 12.5001C0 14.0152 5.5966 20.0758 12.5 20.0758C19.4034 20.0758 25 14.0152 25 12.5001C25 10.9849 19.4034 4.92427 12.5 4.92427ZM12.5 7.95462C9.98975 7.95462 7.95454 9.98983 7.95454 12.5001C7.95454 15.0102 9.98975 17.0455 12.5 17.0455C15.0102 17.0455 17.0454 15.0102 17.0454 12.5001C17.0454 9.98983 15.0102 7.95462 12.5 7.95462ZM11.2761 12.5001C10.214 12.5001 9.353 11.6391 9.353 10.5769C9.353 9.51481 10.214 8.65385 11.2761 8.65385C12.3382 8.65385 13.1993 9.51486 13.1993 10.5769C13.1993 11.6391 12.3382 12.5001 11.2761 12.5001Z"/>
</svg>
