<svg width="25" height="25" viewBox="0 0 25 25" fill="none" xmlns="http://www.w3.org/2000/svg">
<path d="M12.5 6.43942C15.6951 6.43942 18.3992 7.89584 20.1053 9.11783C22.1265 10.5656 23.1666 11.9659 23.4363 12.5C23.1663 13.0341 22.1265 14.4345 20.1053 15.8822C18.3992 17.1042 15.6951 18.5606 12.5 18.5606C9.3049 18.5606 6.60075 17.1042 4.89468 15.8822C2.87308 14.4345 1.83331 13.0341 1.56322 12.5C1.83331 11.9659 2.87308 10.5656 4.89429 9.11783C6.60075 7.89584 9.3049 6.43942 12.5 6.43942ZM12.5 4.92424C5.5966 4.92424 0 10.9849 0 12.5C0 14.0152 5.5966 20.0758 12.5 20.0758C19.4034 20.0758 25 14.0152 25 12.5C25 10.9849 19.4034 4.92424 12.5 4.92424ZM12.5 7.95459C9.98975 7.95459 7.95454 9.9898 7.95454 12.5C7.95454 15.0102 9.98975 17.0455 12.5 17.0455C15.0102 17.0455 17.0454 15.0102 17.0454 12.5C17.0454 9.9898 15.0102 7.95459 12.5 7.95459ZM11.2761 12.5C10.214 12.5 9.353 11.639 9.353 10.5769C9.353 9.51478 10.214 8.65382 11.2761 8.65382C12.3382 8.65382 13.1993 9.51482 13.1993 10.5769C13.1993 11.639 12.3382 12.5 11.2761 12.5Z" fill="#2B2A29"/>
<line x1="23.3448" y1="3.36207" x2="2.34483" y2="23.3621" stroke="#2B2A29"/>
<path d="M20.7583 7.21425L7.66187 19.6808" stroke="white"/>
</svg>
