<svg width="25" height="25" viewBox="0 0 25 25" fill="none" xmlns="http://www.w3.org/2000/svg">
<path d="M12.147 24.2794C11.8529 24.2794 11.6176 24.1912 11.4411 24.0147C11.2647 23.8382 11.1764 23.6029 11.1764 23.3088V13.6471H1.60291C1.30879 13.6471 1.0735 13.5588 0.89703 13.3823C0.72056 13.2059 0.632324 12.9706 0.632324 12.6765V12.0588C0.632324 11.7647 0.72056 11.5294 0.89703 11.3529C1.0735 11.1765 1.30879 11.0882 1.60291 11.0882H11.1764V1.69117C11.1764 1.39705 11.2647 1.16176 11.4411 0.985287C11.6176 0.808817 11.8529 0.720581 12.147 0.720581H12.8088C13.1029 0.720581 13.3382 0.808817 13.5147 0.985287C13.6911 1.16176 13.7794 1.39705 13.7794 1.69117V11.0882H23.397C23.6912 11.0882 23.9264 11.1765 24.1029 11.3529C24.2794 11.5294 24.3676 11.7647 24.3676 12.0588V12.6765C24.3676 12.9706 24.2794 13.2059 24.1029 13.3823C23.9264 13.5588 23.6912 13.6471 23.397 13.6471H13.7794V23.3088C13.7794 23.6029 13.6911 23.8382 13.5147 24.0147C13.3382 24.1912 13.1029 24.2794 12.8088 24.2794H12.147Z" fill="white"/>
</svg>
