<svg viewBox="0 0 20 20" xmlns="http://www.w3.org/2000/svg">
<g clip-path="url(#clip0)">
<path d="M8.21737 0C3.68176 0 0.00488281 3.67687 0.00488281 8.21249C0.00488281 12.7481 3.68176 16.425 8.21737 16.425C12.753 16.425 16.4299 12.7481 16.4299 8.21249C16.4259 3.67848 12.7514 0.00392771 8.21737 0ZM8.21737 13.5685C5.25936 13.5685 2.8614 11.1705 2.8614 8.21249C2.8614 5.25447 5.25936 2.85652 8.21737 2.85652C11.1754 2.85652 13.5733 5.25447 13.5733 8.21249C13.5694 11.1689 11.1738 13.5645 8.21737 13.5685Z"/>
<path d="M19.5778 17.5604L16.7213 14.7039C16.1632 14.1458 15.2584 14.1458 14.7003 14.7039C14.1422 15.262 14.1422 16.1668 14.7003 16.7249L17.5568 19.5814C18.1149 20.1395 19.0197 20.1395 19.5778 19.5814C20.1359 19.0233 20.1359 18.1185 19.5778 17.5604Z"/>
</g>
<defs>
<clipPath id="clip0">
</clipPath>
</defs>
</svg>
