<svg width="40" height="40" viewBox="0 0 40 40" fill="none" xmlns="http://www.w3.org/2000/svg">
<path d="M40 21.4754C40 22.0277 39.5523 22.4754 39 22.4754H26.0118L35.1985 31.6621C35.5921 32.0557 35.5885 32.695 35.1905 33.0842L33.0842 35.1437C32.6925 35.5267 32.0654 35.5232 31.678 35.1358L22.4754 25.9332V38.984C22.4754 39.5425 22.018 39.9927 21.4596 39.9839L18.5087 39.937C17.9627 39.9284 17.5246 39.4833 17.5246 38.9372V25.9332L8.33787 35.1928C7.94471 35.5891 7.30324 35.5867 6.91297 35.1876L4.85634 33.0842C4.47329 32.6925 4.47681 32.0654 4.86424 31.678L14.0668 22.4754H1C0.447715 22.4754 0 22.0277 0 21.4754V18.5246C0 17.9723 0.447715 17.5246 1 17.5246H14.0668L4.86656 8.2513C4.47867 7.86033 4.47991 7.22932 4.86935 6.83989L6.91288 4.79635C7.3045 4.40473 7.93982 4.40599 8.32988 4.79915L17.5246 14.0668V1C17.5246 0.447715 17.9723 0 18.5246 0H21.4754C22.0277 0 22.4754 0.447715 22.4754 1V14.0668L31.7487 4.79355C32.1392 4.40303 32.7724 4.40303 33.1629 4.79355L35.2092 6.83989C35.5987 7.22932 35.5999 7.86033 35.212 8.2513L26.0118 17.5246H39C39.5523 17.5246 40 17.9723 40 18.5246V21.4754Z" fill="#CF2023"/>
</svg>
