<svg width="30" height="30" viewBox="0 0 30 30" fill="none" xmlns="http://www.w3.org/2000/svg">
<path d="M29.94 12.8423C29.836 12.6208 29.6138 12.4791 29.3681 12.4791H27.4998C26.312 6.03304 20.6517 1.13293 13.8674 1.13293C6.22136 1.13293 0 7.35429 0 15.0003C0 22.6463 6.22072 28.867 13.8674 28.867C18.8019 28.867 23.404 26.2111 25.8773 21.9372C26.2258 21.334 26.0203 20.5636 25.4165 20.2144C24.8139 19.8653 24.0429 20.0708 23.695 20.674C21.6704 24.1724 17.9045 26.3464 13.8674 26.3464C7.61154 26.3464 2.52122 21.2568 2.52122 15.0016C2.52122 8.74511 7.61154 3.65543 13.8674 3.65543C19.2558 3.65543 23.7703 7.43472 24.9205 12.4797H23.067C22.8212 12.4797 22.5997 12.6214 22.4951 12.8429C22.391 13.0644 22.4248 13.3254 22.5819 13.5137L25.7337 17.2956C25.8537 17.4392 26.0305 17.5222 26.2182 17.5222C26.4052 17.5222 26.5826 17.4385 26.702 17.2956L29.8538 13.5137C30.0109 13.3248 30.044 13.0637 29.94 12.8423Z" fill="#CF2023"/>
<path d="M13.8675 4.28479C13.1712 4.28479 12.6069 4.84903 12.6069 5.5454V13.1946C12.0369 13.5942 11.6616 14.2529 11.6616 15.0009C11.6616 16.2175 12.6516 17.2075 13.8682 17.2075C14.2014 17.2075 14.5154 17.1277 14.7988 16.9943L19.1838 19.5251C19.3829 19.6406 19.5987 19.6949 19.8131 19.6949C20.2485 19.6949 20.6723 19.4689 20.9059 19.0643C21.2538 18.4624 21.0476 17.6907 20.4438 17.3428L16.0543 14.8082C15.9956 14.1418 15.649 13.5597 15.1294 13.1959V5.5454C15.1281 4.84967 14.5633 4.28479 13.8675 4.28479ZM13.8675 15.9456C13.3461 15.9456 12.9222 15.5211 12.9222 15.0009C12.9222 14.4801 13.3467 14.0556 13.8675 14.0556C14.3884 14.0556 14.8128 14.4801 14.8128 15.0009C14.8128 15.5211 14.3884 15.9456 13.8675 15.9456Z" fill="#CF2023"/>
</svg>
