<svg viewBox="0 0 25 25" fill="none" xmlns="http://www.w3.org/2000/svg">
<path d="M18.4082 11.8164C14.7736 11.8164 11.8164 14.7736 11.8164 18.4082C11.8164 22.0428 14.7736 25 18.4082 25C22.0428 25 25 22.0428 25 18.4082C25 14.7736 22.0428 11.8164 18.4082 11.8164ZM18.4082 23.0469C15.8504 23.0469 13.7695 20.966 13.7695 18.4082C13.7695 15.8504 15.8504 13.7695 18.4082 13.7695C20.966 13.7695 23.0469 15.8504 23.0469 18.4082C23.0469 20.966 20.966 23.0469 18.4082 23.0469ZM19.3359 17.4316H20.9961V19.3848H17.3828V15.1367H19.3359V17.4316ZM12.2469 12.4937C11.6522 13.1132 11.1498 13.8218 10.7618 14.5971C5.77049 15.4284 1.95312 19.7765 1.95312 25H0C0 21.6612 1.30024 18.5221 3.66116 16.1612C5.02262 14.7997 6.6431 13.7918 8.41122 13.1817C6.5176 11.8774 5.27344 9.69467 5.27344 7.22656C5.27344 3.24192 8.51536 0 12.5 0C16.4846 0 19.7266 3.24192 19.7266 7.22656C19.7266 8.17108 19.5442 9.07364 19.2131 9.90143C18.948 9.87663 18.6796 9.86328 18.4082 9.86328C17.927 9.86328 17.4551 9.90391 16.9952 9.98077C17.4885 9.17873 17.7734 8.23536 17.7734 7.22656C17.7734 4.31881 15.4078 1.95312 12.5 1.95312C9.59225 1.95312 7.22656 4.31881 7.22656 7.22656C7.22656 10.0494 9.45625 12.3611 12.2469 12.4937Z"/>
</svg>
