<svg viewBox="0 0 25 25" xmlns="http://www.w3.org/2000/svg">
<path d="M22.7475 14.5315L19.997 13.2813V0H15.3154L13.4289 1.88657C11.8779 0.65957 9.67266 0.542285 7.99341 1.65503L7.66553 1.87227L7.66548 3.70425L12.6337 8.82734H14.6206L14.8378 8.49946C15.9881 6.76333 15.8239 4.46514 14.478 2.90889L15.9222 1.46484H18.5322V12.8551H10.0373L5.88008 9.33745C5.09897 8.67651 4.10732 8.35933 3.08755 8.44429C2.06787 8.52925 1.14233 9.00625 0.481396 9.78735L0.00830078 10.3465L7.81304 16.9505L9.16997 20.4785C7.38589 20.8167 6.03218 22.3866 6.03218 24.2676V25H22.0804V24.2676C22.0804 22.1406 20.3499 20.4102 18.2229 20.4102H18.0048L16.8541 17.4182H18.071L24.3466 20.2708L24.6497 19.604C25.5237 17.6811 24.6704 15.4056 22.7475 14.5315ZM13.8067 7.36255H13.2538L9.13042 3.11064L9.13047 2.68618C10.3346 2.08232 11.8221 2.30601 12.793 3.27695L13.2161 3.69995C14.1869 4.67085 14.4105 6.15835 13.8067 7.36255ZM23.5136 18.2831L18.3883 15.9534H8.90244L2.16055 10.2487C2.47393 10.0544 2.83115 9.9356 3.20928 9.9041C3.83896 9.85171 4.45151 10.0476 4.93394 10.4557L9.50078 14.32H18.7421L22.1414 15.8651C23.0963 16.2992 23.6242 17.2929 23.5136 18.2831ZM7.61167 23.5352C7.92173 22.573 8.82568 21.875 9.8896 21.875H18.2229C19.2869 21.875 20.1909 22.573 20.5009 23.5352H7.61167ZM10.7131 20.4102L9.56235 17.4182H15.2846L16.4354 20.4102H10.7131Z"/>
</svg>
