<svg width="100" height="101" viewBox="0 0 100 101" fill="none" xmlns="http://www.w3.org/2000/svg">
<path d="M34.3348 31.2381C35.1221 31.2381 35.7604 30.5998 35.7604 29.8128C35.7604 29.0258 35.1221 28.3871 34.3348 28.3871C33.5474 28.3871 32.9094 29.0254 32.9094 29.8128C32.9094 30.6001 33.5478 31.2381 34.3348 31.2381Z" fill="#2B2A29"/>
<path d="M17.9997 17.5034C18.7367 17.5034 19.333 16.9064 19.333 16.17V13.5034C19.333 12.767 18.7367 12.17 17.9997 12.17C17.2627 12.17 16.6664 12.767 16.6664 13.5034V16.17C16.6664 16.9064 17.2627 17.5034 17.9997 17.5034Z" fill="#2B2A29"/>
<path d="M17.9997 20.17C17.2627 20.17 16.6664 20.767 16.6664 21.5034V24.17C16.6664 24.9064 17.2627 25.5034 17.9997 25.5034C18.7367 25.5034 19.333 24.9064 19.333 24.17V21.5034C19.333 20.767 18.7367 20.17 17.9997 20.17Z" fill="#2B2A29"/>
<path d="M15.3332 20.17C16.0702 20.17 16.6666 19.573 16.6666 18.8367C16.6666 18.1004 16.0702 17.5034 15.3332 17.5034H12.6666C11.9296 17.5034 11.3333 18.1004 11.3333 18.8367C11.3333 19.573 11.9296 20.17 12.6666 20.17H15.3332Z" fill="#2B2A29"/>
<path d="M20.6665 20.17H23.3331C24.0701 20.17 24.6665 19.573 24.6665 18.8367C24.6665 18.1004 24.0701 17.5034 23.3331 17.5034H20.6665C19.9295 17.5034 19.3331 18.1004 19.3331 18.8367C19.3331 19.573 19.9295 20.17 20.6665 20.17Z" fill="#2B2A29"/>
<path d="M59.9998 29.5034C62.5728 29.5034 64.6665 27.4097 64.6665 24.8367C64.6665 22.2637 62.5728 20.17 59.9998 20.17C57.4268 20.17 55.3331 22.2637 55.3331 24.8367C55.3331 27.4097 57.4268 29.5034 59.9998 29.5034ZM59.9998 22.8367C61.1028 22.8367 61.9998 23.7337 61.9998 24.8367C61.9998 25.9397 61.1028 26.8367 59.9998 26.8367C58.8968 26.8367 57.9998 25.9397 57.9998 24.8367C57.9998 23.7337 58.8968 22.8367 59.9998 22.8367Z" fill="#2B2A29"/>
<path d="M83.6686 17.9046C84.456 17.9046 85.0943 17.2663 85.0943 16.4793C85.0943 15.6923 84.456 15.0536 83.6686 15.0536C82.8813 15.0536 82.2433 15.692 82.2433 16.4793C82.2433 17.2666 82.8816 17.9046 83.6686 17.9046V17.9046Z" fill="#2B2A29"/>
<path d="M83.1007 61.8753L83.238 60.634L83.5787 58.8363H87.333C88.07 58.8363 88.6664 58.2393 88.6664 57.503C88.6664 56.7667 88.07 56.1697 87.333 56.1697H84.084L84.8224 52.2737C84.838 52.1923 84.8457 52.109 84.8457 52.0257C84.8457 48.4293 81.92 45.503 78.3237 45.503C77.2287 45.503 76.1454 45.781 75.191 46.3057C74.4334 46.7223 73.5647 46.7217 72.8094 46.3063C71.8537 45.781 70.7704 45.503 69.6754 45.503C66.079 45.503 63.1534 48.4293 63.1534 52.0257C63.1534 52.109 63.161 52.1923 63.1767 52.2737L63.9167 56.1697H60.5524L61.2914 52.2743C61.307 52.1923 61.3147 52.109 61.3147 52.0257C61.3147 48.4293 58.389 45.503 54.7927 45.503C53.699 45.503 52.6144 45.7803 51.6574 46.3063C50.8997 46.723 50.031 46.7203 49.2784 46.3063C48.3227 45.781 47.2394 45.503 46.1444 45.503C42.5467 45.503 39.621 48.4293 39.621 52.0257C39.621 52.109 39.6287 52.1923 39.6444 52.2743L40.3847 56.17H37.544L38.156 52.9407C38.1717 52.8593 38.1794 52.776 38.1794 52.6927C38.1794 49.0963 35.2537 46.17 31.6574 46.17C30.5624 46.17 29.479 46.448 28.5247 46.9727C27.767 47.3893 26.8984 47.3887 26.143 46.9733C25.1874 46.448 24.104 46.17 23.009 46.17C19.4127 46.17 16.487 49.0963 16.487 52.6927C16.487 52.776 16.4947 52.8593 16.5104 52.9407L17.1237 56.17H13.9997C13.2627 56.17 12.6664 56.767 12.6664 57.5033C12.6664 58.2397 13.2627 58.8367 13.9997 58.8367H17.6304L18.0794 61.2L18.157 61.899C14.9377 62.9233 12.6664 65.9263 12.6664 69.366V86.8366C12.6664 87.573 13.2627 88.17 13.9997 88.17H87.333C88.07 88.17 88.6664 87.573 88.6664 86.8366V69.366C88.6664 65.8853 86.3637 62.8747 83.1007 61.8753V61.8753ZM80.6027 60.239L79.4687 70.4406L76.4974 65.2407C75.979 64.333 75.0457 63.7913 74 63.7913C72.9544 63.7913 72.0207 64.333 71.5027 65.2407L68.53 70.4413L67.3817 60.138L67.135 58.8367H70.5567C71.2507 60.0263 72.5264 60.8367 74.0004 60.8367C75.4744 60.8367 76.7504 60.0263 77.444 58.8367H80.8684L80.6027 60.239ZM72.6664 56.8367C72.6664 56.1017 73.264 55.5033 73.9997 55.5033C74.7354 55.5033 75.333 56.1017 75.333 56.8367C75.333 57.5717 74.7354 58.17 73.9997 58.17C73.264 58.17 72.6664 57.5717 72.6664 56.8367ZM65.8214 51.9103C65.884 49.8373 67.5884 48.17 69.6754 48.17C70.3224 48.17 70.9617 48.3333 71.523 48.6427C73.0714 49.495 74.9227 49.4963 76.476 48.6427C77.0374 48.3333 77.6767 48.17 78.3237 48.17C80.411 48.17 82.1154 49.8373 82.1777 51.9103L81.3724 56.17H77.9324C77.6127 54.282 75.9774 52.8367 73.9997 52.8367C72.022 52.8367 70.3867 54.282 70.067 56.17H66.629L65.8214 51.9103ZM64.4234 58.8367L64.7457 60.5333L64.8534 61.5033H59.6094L59.7054 60.635L60.0464 58.8367H64.4234ZM43.6034 58.8367H46.468C47.22 60.4077 48.812 61.5033 50.6667 61.5033C52.5214 61.5033 54.1134 60.4077 54.8654 58.8367H57.336L57.0707 60.239L55.938 70.442L52.9667 65.2407C52.4484 64.333 51.515 63.7913 50.4694 63.7913C49.4237 63.7913 48.49 64.333 47.972 65.2407L44.9994 70.4413L43.851 60.1373L43.6034 58.8367ZM48.6664 56.8367C48.6664 55.7337 49.5634 54.8367 50.6664 54.8367C51.7694 54.8367 52.6664 55.7337 52.6664 56.8367C52.6664 57.9397 51.7694 58.8367 50.6664 58.8367C49.5634 58.8367 48.6664 57.9397 48.6664 56.8367ZM42.2887 51.9097C42.3514 49.8373 44.057 48.17 46.144 48.17C46.791 48.17 47.4304 48.3333 47.9917 48.6427C49.5437 49.4967 51.3927 49.4963 52.9424 48.6433C53.506 48.3333 54.1454 48.17 54.7927 48.17C56.88 48.17 58.5844 49.8373 58.6467 51.9103L57.8404 56.17H55.2657C54.9387 53.9143 53.011 52.17 50.6664 52.17C48.3217 52.17 46.394 53.9143 46.067 56.17H43.097L42.2887 51.9097ZM40.892 58.8367L41.2147 60.5333L41.3224 61.5033H36.549L36.5714 61.301L37.0384 58.8367H40.892ZM19.1547 52.577C19.217 50.504 20.9217 48.8367 23.0087 48.8367C23.6557 48.8367 24.295 49 24.8564 49.3093C26.4047 50.1617 28.256 50.163 29.8094 49.3093C30.3707 49 31.01 48.8367 31.657 48.8367C33.7444 48.8367 35.4487 50.504 35.511 52.577L34.8317 56.17H31.0874C30.5354 54.6213 29.069 53.5033 27.333 53.5033C25.597 53.5033 24.131 54.6213 23.5787 56.17H19.836L19.1547 52.577ZM28.6664 57.5033C28.6664 58.2383 28.0687 58.8367 27.333 58.8367C26.5974 58.8367 25.9997 58.2383 25.9997 57.5033C25.9997 56.7683 26.5974 56.17 27.333 56.17C28.0687 56.17 28.6664 56.7683 28.6664 57.5033ZM23.5787 58.8367C24.1307 60.3853 25.597 61.5033 27.333 61.5033C29.069 61.5033 30.535 60.3853 31.0874 58.8367H34.3274L33.936 60.9057L32.802 71.1073L29.8307 65.9073C29.3124 64.9997 28.379 64.458 27.3334 64.458C26.2877 64.458 25.354 64.9997 24.836 65.9073L21.8634 71.108L20.715 60.8047L20.3414 58.8367H23.5787ZM85.9997 85.5033H15.333V69.366C15.333 67.275 16.602 65.424 18.4584 64.612L19.2914 72.1086C19.4097 73.1593 20.1847 74.009 21.2197 74.2233C21.393 74.259 21.5634 74.276 21.7327 74.276C22.5934 74.276 23.3824 73.8253 23.8264 73.0466L27.1507 67.2303C27.165 67.2043 27.2107 67.125 27.333 67.125C27.4554 67.125 27.501 67.2043 27.5154 67.2303L30.8397 73.0466C31.3697 73.977 32.3867 74.44 33.4464 74.223C34.4814 74.0086 35.2564 73.1593 35.3747 72.107L36.2537 64.17H41.619L42.427 71.4403C42.543 72.4917 43.3177 73.342 44.354 73.557C45.384 73.77 46.4374 73.2973 46.962 72.3806L50.2864 66.5643C50.3007 66.5383 50.3464 66.459 50.4687 66.459C50.591 66.459 50.6367 66.5383 50.651 66.5643L53.974 72.3813C54.4207 73.16 55.2084 73.6107 56.069 73.61C56.2384 73.61 56.41 73.593 56.5834 73.5573C57.634 73.3393 58.3907 72.509 58.5104 71.4413L59.3144 64.17H65.1497L65.9577 71.442C66.076 72.4926 66.851 73.3423 67.886 73.5566C68.0594 73.5923 68.2297 73.6093 68.399 73.6093C69.2597 73.6093 70.0487 73.1586 70.4927 72.38L73.817 66.5637C73.8314 66.5377 73.877 66.4583 73.9994 66.4583C74.1217 66.4583 74.1674 66.5377 74.1817 66.5637L77.506 72.38C78.036 73.311 79.0504 73.774 80.1127 73.5563C81.1477 73.342 81.9227 72.4927 82.041 71.4403L82.801 64.5777C84.7007 65.37 85.9994 67.238 85.9994 69.3653V85.5033H85.9997Z" fill="#2B2A29"/>
<path d="M74.0003 42.8367C74.7373 42.8367 75.3337 42.2397 75.3337 41.5034V37.5034C75.3337 36.767 74.7373 36.17 74.0003 36.17C73.2633 36.17 72.667 36.767 72.667 37.5034V41.5034C72.667 42.2397 73.2633 42.8367 74.0003 42.8367Z" fill="#2B2A29"/>
<path d="M79.3317 42.8367C79.7627 42.8367 80.1857 42.6283 80.4424 42.243L82.8344 38.6543C83.2434 38.0417 83.0777 37.2137 82.4647 36.8053C81.85 36.3953 81.0234 36.5623 80.6157 37.175L78.2237 40.7637C77.8147 41.3763 77.9804 42.2043 78.5934 42.6127C78.8214 42.7643 79.0777 42.8367 79.3317 42.8367V42.8367Z" fill="#2B2A29"/>
<path d="M67.5573 42.243C67.814 42.6283 68.237 42.8366 68.668 42.8366C68.922 42.8366 69.1783 42.7643 69.4063 42.6126C70.0196 42.2043 70.185 41.3763 69.776 40.7636L67.384 37.175C66.975 36.5623 66.1496 36.395 65.535 36.8053C64.9216 37.2136 64.7563 38.0416 65.1653 38.6543L67.5573 42.243Z" fill="#2B2A29"/>
<path d="M82.6235 74.426L77.5425 77.6214L76.5598 77.0037C73.4972 75.074 70.1172 75.074 67.0469 77.003L66.0645 77.621L65.2618 77.1164C62.0235 75.078 58.4755 75.1887 55.2748 77.4314L55.0519 77.5877C51.9435 75.5987 48.5035 75.6027 45.3992 77.5804C42.2132 75.3934 38.7235 75.2794 35.4872 77.3317L35.0369 77.6174L34.1355 77.046C31.0445 75.0864 27.6409 75.089 24.5495 77.0487L23.6539 77.617L18.7149 74.483C18.0899 74.0884 17.2682 74.2727 16.8739 74.8944C16.4795 75.516 16.6642 76.3397 17.2852 76.7344L21.1655 79.196L17.2852 81.658C16.6642 82.0527 16.4792 82.876 16.8739 83.498C17.2685 84.1204 18.0899 84.3027 18.7149 83.9094L23.6545 80.775L24.5505 81.3437C27.6392 83.3047 31.0438 83.3047 34.1352 81.3464L35.0365 80.775L35.4868 81.0607C38.7258 83.1144 42.2139 82.999 45.3992 80.8117C48.5038 82.7897 51.9422 82.7944 55.0515 80.8047L55.2745 80.961C58.4762 83.2044 62.0232 83.3147 65.2615 81.276L66.0639 80.7714L67.0465 81.3894C68.5805 82.3544 70.1925 82.8367 71.8032 82.836C73.4152 82.836 75.0272 82.3537 76.5598 81.3894L77.5425 80.7714L82.6235 83.966C82.8435 84.1047 83.0895 84.1704 83.3318 84.1704C83.7745 84.1704 84.2082 83.9497 84.4622 83.5467C84.8542 82.9237 84.6665 82.1 84.0428 81.708L80.0475 79.196L84.0428 76.6837C84.6665 76.2917 84.8542 75.4684 84.4622 74.845C84.0688 74.222 83.2458 74.0354 82.6235 74.426V74.426ZM26.1665 79.1957C28.2752 77.9337 30.4125 77.9327 32.5232 79.1957C30.4122 80.4594 28.2749 80.4584 26.1665 79.1957ZM37.6305 79.1954C39.3772 78.334 41.1689 78.3394 42.9132 79.1954C41.1699 80.0507 39.3778 80.0564 37.6305 79.1954V79.1954ZM47.9912 79.1954C49.4515 78.5914 50.9379 78.6037 52.4009 79.1954C50.9379 79.7867 49.4512 79.799 47.9912 79.1954ZM57.4888 79.1957C59.4712 78.0777 61.5335 78.0787 63.5145 79.1957C61.5335 80.3117 59.4712 80.3134 57.4888 79.1957ZM68.5838 79.1957C70.7238 77.8987 72.8882 77.9 75.0232 79.196C72.8882 80.4907 70.7238 80.4927 68.5838 79.1957Z" fill="#2B2A29"/>
</svg>
