<svg width="100" height="101" viewBox="0 0 100 101" fill="none" xmlns="http://www.w3.org/2000/svg">
<path d="M13.3335 38.387C12.5462 38.387 11.9082 39.0254 11.9082 39.8127C11.9082 40.6 12.5465 41.238 13.3335 41.238C14.1205 41.238 14.7592 40.5997 14.7592 39.8127C14.7592 39.0257 14.1209 38.387 13.3335 38.387Z" fill="#2B2A29"/>
<path d="M23.6654 16.8367C24.4017 16.8367 24.9987 16.2397 24.9987 15.5034V12.8367C24.9987 12.1004 24.4017 11.5034 23.6654 11.5034C22.929 11.5034 22.332 12.1004 22.332 12.8367V15.5034C22.332 16.2397 22.929 16.8367 23.6654 16.8367Z" fill="#2B2A29"/>
<path d="M23.6654 19.5034C22.929 19.5034 22.332 20.1004 22.332 20.8367V23.5034C22.332 24.2397 22.929 24.8367 23.6654 24.8367C24.4017 24.8367 24.9987 24.2397 24.9987 23.5034V20.8367C24.9987 20.1004 24.4014 19.5034 23.6654 19.5034Z" fill="#2B2A29"/>
<path d="M22.3315 18.17C22.3315 17.4337 21.7345 16.8367 20.9982 16.8367H18.3315C17.5952 16.8367 16.9982 17.4337 16.9982 18.17C16.9982 18.9063 17.5952 19.5033 18.3315 19.5033H20.9982C21.7342 19.5033 22.3315 18.9063 22.3315 18.17Z" fill="#2B2A29"/>
<path d="M26.3322 19.5033H28.9989C29.7352 19.5033 30.3322 18.9063 30.3322 18.17C30.3322 17.4337 29.7352 16.8367 28.9989 16.8367H26.3322C25.5959 16.8367 24.9989 17.4337 24.9989 18.17C24.9989 18.9063 25.5959 19.5033 26.3322 19.5033Z" fill="#2B2A29"/>
<path d="M80.3317 75.5034C77.7587 75.5034 75.665 77.597 75.665 80.17C75.665 82.743 77.7587 84.8367 80.3317 84.8367C82.9047 84.8367 84.9984 82.743 84.9984 80.17C84.9984 77.597 82.9044 75.5034 80.3317 75.5034ZM80.3317 82.17C79.2287 82.17 78.3317 81.273 78.3317 80.17C78.3317 79.067 79.2287 78.17 80.3317 78.17C81.4347 78.17 82.3317 79.067 82.3317 80.17C82.3317 81.273 81.4344 82.17 80.3317 82.17Z" fill="#2B2A29"/>
<path d="M86.6667 58.387C85.8793 58.387 85.2413 59.0253 85.2413 59.8127C85.2413 60.6 85.8797 61.238 86.6667 61.238C87.4537 61.238 88.0923 60.5997 88.0923 59.8127C88.0923 59.0257 87.454 58.387 86.6667 58.387Z" fill="#2B2A29"/>
<path d="M57.6651 41.299C56.8161 41.299 56.1278 41.9873 56.1278 42.8367C56.1278 43.686 56.8161 44.374 57.6651 44.374C58.5141 44.374 59.2025 43.6857 59.2025 42.8367C59.2025 41.9877 58.5141 41.299 57.6651 41.299Z" fill="#2B2A29"/>
<path d="M38.9983 41.299C38.1493 41.299 37.4609 41.9873 37.4609 42.8367C37.4609 43.686 38.1493 44.374 38.9983 44.374C39.8473 44.374 40.5356 43.6857 40.5356 42.8367C40.5356 41.9877 39.8473 41.299 38.9983 41.299Z" fill="#2B2A29"/>
<path d="M55.1234 50.1087C54.4157 49.899 53.6754 50.2967 53.4627 51.0027C53.1457 52.0587 52.0304 52.6627 50.9724 52.343C50.2647 52.136 49.5237 52.531 49.3117 53.237C49.1001 53.9427 49.5004 54.6857 50.2057 54.8977C50.6517 55.031 51.1017 55.095 51.5451 55.095C53.5521 55.095 55.4117 53.7883 56.0177 51.7693C56.2291 51.0647 55.8287 50.321 55.1234 50.1087V50.1087Z" fill="#2B2A29"/>
<path d="M81.7935 46.2984C83.2178 46.2984 84.5572 45.7437 85.5642 44.7357C86.5719 43.7287 87.1268 42.3894 87.1268 40.965C87.1268 39.5407 86.5722 38.2014 85.5642 37.1944L83.2072 34.8367L85.5645 32.4794C86.5722 31.4724 87.1272 30.133 87.1272 28.7087C87.1272 27.2844 86.5725 25.945 85.5645 24.938C83.5502 22.9224 80.0372 22.9224 78.0228 24.938L75.6655 27.2954L73.3082 24.938C71.2938 22.9224 67.7808 22.9224 65.7665 24.938C65.2882 25.416 64.9205 25.9727 64.6572 26.574C63.9972 26.413 63.3312 26.2764 62.6598 26.1937C58.1032 25.6384 53.5765 26.818 49.9112 29.521C49.7732 29.6227 49.5832 29.622 49.4452 29.5217C45.7785 26.8174 41.2525 25.637 36.6965 26.1937C28.5735 27.1877 22.0702 33.82 21.2328 41.964C20.7848 46.3157 21.9248 50.6514 24.4425 54.1744C26.8702 57.5714 28.4445 60.725 29.2545 63.8144C29.6478 65.3177 29.8502 66.541 29.8562 67.4504C29.9082 75.1274 30.7955 81.1384 32.4948 85.3164C33.3652 87.455 35.4655 88.837 37.8445 88.837C41.0548 88.837 43.6662 86.2257 43.6662 83.0154V68.17C43.6662 64.8614 46.3575 62.17 49.6662 62.17C52.9748 62.17 55.6662 64.8614 55.6662 68.17V83C55.6662 86.218 58.2845 88.8367 61.5028 88.8367C63.8902 88.8367 65.9952 87.4507 66.8655 85.306C68.5628 81.1297 69.4489 75.1217 69.5009 67.4494C69.5069 66.5404 69.7092 65.3174 70.1025 63.814C70.9125 60.7247 72.4865 57.571 74.9145 54.174C76.8709 51.4367 77.9832 48.2067 78.1769 44.8617C79.1649 45.7814 80.4362 46.2984 81.7935 46.2984V46.2984ZM83.6792 39.0797C84.1832 39.5837 84.4605 40.253 84.4605 40.965C84.4605 41.677 84.1832 42.3467 83.6792 42.8504C82.6715 43.858 80.9162 43.858 79.9085 42.8504L77.9549 40.8967C77.9162 40.664 77.8929 40.428 77.8449 40.1994L81.3222 36.722L83.6792 39.0797ZM75.6655 38.6074L71.8945 34.8367L75.6652 31.066L79.4362 34.8367L75.6655 38.6074ZM73.7798 40.493L71.4225 42.8504C70.4148 43.858 68.6595 43.858 67.6518 42.8504C67.1478 42.3464 66.8705 41.677 66.8705 40.965C66.8705 40.253 67.1478 39.5834 67.6518 39.0797L70.0092 36.7224L73.7798 40.493ZM79.9082 26.823C80.4122 26.319 81.0815 26.0417 81.7935 26.0417C82.5055 26.0417 83.1752 26.319 83.6789 26.823C84.1825 27.327 84.4602 27.9964 84.4602 28.7084C84.4602 29.4204 84.1829 30.09 83.6789 30.5937L81.3215 32.951L77.5508 29.1804L79.9082 26.823ZM67.6515 26.823C68.1555 26.319 68.8248 26.0417 69.5368 26.0417C70.2488 26.0417 70.9185 26.319 71.4222 26.823L73.7795 29.1804L70.0088 32.951L67.6515 30.5937C67.1475 30.0897 66.8702 29.4204 66.8702 28.7084C66.8702 27.9964 67.1478 27.327 67.6515 26.823V26.823ZM72.7442 52.623C70.1245 56.289 68.4162 59.7284 67.5222 63.138C67.0722 64.8567 66.8405 66.3014 66.8335 67.4317C66.7848 74.661 65.9415 80.4947 64.3942 84.3027C63.9412 85.4194 62.7788 86.17 61.5022 86.17C59.7542 86.17 58.3322 84.748 58.3322 83V68.17C58.3322 63.3914 54.4442 59.5034 49.6655 59.5034C44.8868 59.5034 40.9988 63.3914 40.9988 68.17V83.015C40.9988 84.7547 39.5835 86.17 37.8438 86.17C36.5742 86.17 35.4168 85.4227 34.9642 84.3107C33.4155 80.5027 32.5708 74.666 32.5222 67.4324C32.5152 66.3014 32.2832 64.8567 31.8335 63.138C30.9395 59.7284 29.2312 56.289 26.6115 52.623C24.4722 49.6297 23.5042 45.9407 23.8848 42.2364C24.5965 35.3184 30.1205 29.685 37.0202 28.8404C40.8945 28.3664 44.7462 29.369 47.8625 31.6677C48.9315 32.4554 50.4238 32.4547 51.4928 31.667C54.6088 29.3687 58.4552 28.3657 62.3352 28.8404C62.9808 28.9194 63.6215 29.0557 64.2538 29.2207C64.3715 30.4497 64.8815 31.595 65.7662 32.479L68.1238 34.8367L65.7665 37.194C64.7588 38.201 64.2038 39.5404 64.2038 40.9647C64.2038 42.389 64.7585 43.7284 65.7665 44.7354C66.7735 45.743 68.1128 46.298 69.5372 46.298C70.9615 46.298 72.3008 45.7434 73.3078 44.7354L75.4888 42.5544C75.7842 46.151 74.8222 49.7154 72.7442 52.623V52.623Z" fill="#2B2A29"/>
</svg>
