<svg width="100" height="101" viewBox="0 0 100 101" fill="none" xmlns="http://www.w3.org/2000/svg">
<path d="M13.3335 39.7204C12.5462 39.7204 11.9082 40.3587 11.9082 41.1461C11.9082 41.9334 12.5465 42.5714 13.3335 42.5714C14.1205 42.5714 14.7592 41.9331 14.7592 41.1461C14.7592 40.3591 14.1209 39.7204 13.3335 39.7204Z" fill="#2B2A29"/>
<path d="M19.6655 18.1701C20.4025 18.1701 20.9988 17.5731 20.9988 16.8367V14.1701C20.9988 13.4337 20.4025 12.8367 19.6655 12.8367C18.9285 12.8367 18.3322 13.4337 18.3322 14.1701V16.8367C18.3322 17.5731 18.9285 18.1701 19.6655 18.1701Z" fill="#2B2A29"/>
<path d="M20.9988 24.8367V22.1701C20.9988 21.4337 20.4025 20.8367 19.6655 20.8367C18.9285 20.8367 18.3322 21.4337 18.3322 22.1701V24.8367C18.3322 25.5731 18.9285 26.1701 19.6655 26.1701C20.4025 26.1701 20.9988 25.5731 20.9988 24.8367Z" fill="#2B2A29"/>
<path d="M16.9982 18.17H14.3315C13.5945 18.17 12.9982 18.767 12.9982 19.5034C12.9982 20.2397 13.5945 20.8367 14.3315 20.8367H16.9982C17.7352 20.8367 18.3315 20.2397 18.3315 19.5034C18.3315 18.767 17.7348 18.17 16.9982 18.17Z" fill="#2B2A29"/>
<path d="M22.3322 20.8367H24.9989C25.7359 20.8367 26.3322 20.2397 26.3322 19.5034C26.3322 18.767 25.7359 18.17 24.9989 18.17H22.3322C21.5952 18.17 20.9989 18.767 20.9989 19.5034C20.9989 20.2397 21.5952 20.8367 22.3322 20.8367Z" fill="#2B2A29"/>
<path d="M78.9986 71.5034C76.4256 71.5034 74.3319 73.5971 74.3319 76.1701C74.3319 78.7431 76.4256 80.8367 78.9986 80.8367C81.5716 80.8367 83.6652 78.7431 83.6652 76.1701C83.6652 73.5971 81.5712 71.5034 78.9986 71.5034ZM78.9986 78.1701C77.8956 78.1701 76.9986 77.2731 76.9986 76.1701C76.9986 75.0671 77.8956 74.1701 78.9986 74.1701C80.1016 74.1701 80.9986 75.0671 80.9986 76.1701C80.9986 77.2731 80.1012 78.1701 78.9986 78.1701Z" fill="#2B2A29"/>
<path d="M86.6667 54.3871C85.8793 54.3871 85.2413 55.0254 85.2413 55.8127C85.2413 56.6001 85.8797 57.2381 86.6667 57.2381C87.4537 57.2381 88.0923 56.5997 88.0923 55.8127C88.0923 55.0257 87.454 54.3871 86.6667 54.3871Z" fill="#2B2A29"/>
<path d="M76.7902 40.631C75.9529 32.487 69.4502 25.8544 61.3252 24.8604C56.7769 24.3004 52.2432 25.484 48.5766 28.1877C48.4426 28.2887 48.2486 28.2894 48.1116 28.1884C44.4436 25.4834 39.9099 24.3037 35.3629 24.8604C27.2379 25.8544 20.7353 32.4874 19.8979 40.631C19.3953 45.527 20.8549 50.2744 24.0099 53.9994C25.1663 55.362 26.0176 56.7747 26.5439 58.1994C27.8083 61.6194 28.5099 64.431 28.5219 66.1167C28.5739 73.7937 29.4619 79.8047 31.1599 83.9814C32.0296 86.1214 34.1299 87.5034 36.5102 87.5034C39.7199 87.5034 42.3319 84.892 42.3319 81.6817V66.8367C42.3319 63.528 45.0232 60.8367 48.3319 60.8367C51.6406 60.8367 54.3319 63.528 54.3319 66.8367V81.6667C54.3319 84.8847 56.9502 87.5034 60.1692 87.5034C62.5546 87.5034 64.6602 86.1174 65.5326 83.972C67.2279 79.797 68.1146 73.7897 68.1666 66.1167C68.1732 65.202 68.3749 63.9787 68.7696 62.4807C69.5782 59.392 71.1522 56.239 73.5809 52.84C76.0972 49.3164 77.2366 44.9807 76.7902 40.631V40.631ZM71.4112 51.2897C68.7902 54.957 67.0819 58.3964 66.1899 61.804C65.7392 63.5164 65.5076 64.961 65.4999 66.0984C65.4516 73.3287 64.6079 79.162 63.0612 82.968C62.6069 84.0854 61.4452 84.8364 60.1692 84.8364C58.4206 84.8364 56.9986 83.4144 56.9986 81.6664V66.8367C56.9986 62.058 53.1106 58.17 48.3319 58.17C43.5532 58.17 39.6653 62.058 39.6653 66.8367V81.6817C39.6653 83.4214 38.2499 84.8367 36.5102 84.8367C35.2406 84.8367 34.0833 84.0894 33.6313 82.9767C32.0819 79.1694 31.2366 73.3327 31.1886 66.0984C31.1716 63.5514 30.0143 59.8947 29.0466 57.2747C28.4113 55.558 27.4019 53.8757 26.0439 52.2747C23.3629 49.1094 22.1233 45.071 22.5516 40.903C23.2613 33.9857 28.7859 28.3517 35.6856 27.507C39.5646 27.0337 43.4149 28.0357 46.5279 30.3344C47.5982 31.1227 49.0892 31.1194 50.1596 30.3337C53.2742 28.036 57.1179 27.0344 61.0019 27.507C67.9016 28.3514 73.4262 33.9857 74.1359 40.9034C74.5179 44.607 73.5492 48.2957 71.4112 51.2897V51.2897Z" fill="#2B2A29"/>
<path d="M58.4116 39.5034L52.9989 39.5834V34.0901C52.9989 32.6638 51.8389 31.5034 50.4116 31.5034H46.2526C44.8256 31.5034 43.6652 32.6634 43.6652 34.0901L43.7446 39.5034H38.2522C36.8253 39.5034 35.6649 40.6634 35.6649 42.0901V46.2501C35.6649 47.6764 36.8249 48.8368 38.2522 48.8368L43.6649 48.7568V54.2501C43.6649 55.6764 44.8249 56.8368 46.2522 56.8368H50.4112C51.8382 56.8368 52.9986 55.6768 52.9986 54.2501L52.9192 48.8368H58.4116C59.8386 48.8368 60.9989 47.6768 60.9989 46.2501V42.0901C60.9989 40.6634 59.8386 39.5034 58.4116 39.5034V39.5034ZM52.9192 46.1701C51.4922 46.1701 50.3319 47.3301 50.3319 48.7568L50.4112 54.1701L46.3319 54.2501V48.7568C46.3319 47.3304 45.1719 46.1701 43.7446 46.1701L38.3319 46.2501L38.2526 42.1701H43.7449C45.1719 42.1701 46.3322 41.0101 46.3322 39.5834L46.2526 34.1701L50.3319 34.0901V39.5834C50.3319 41.0098 51.4919 42.1701 52.9192 42.1701H58.3332L58.4112 46.1701H52.9192Z" fill="#2B2A29"/>
<path d="M48.9991 23.5034C49.7361 23.5034 50.3324 22.9064 50.3324 22.1701V14.1701C50.3324 13.4337 49.7361 12.8367 48.9991 12.8367C48.2621 12.8367 47.6658 13.4337 47.6658 14.1701V22.1701C47.6658 22.9064 48.2621 23.5034 48.9991 23.5034Z" fill="#2B2A29"/>
<path d="M54.3321 22.1701C54.6731 22.1701 55.0144 22.0397 55.2747 21.7794L60.608 16.4461C61.1287 15.9254 61.1287 15.0814 60.608 14.5607C60.0874 14.0401 59.2434 14.0401 58.7227 14.5607L53.3894 19.8941C52.8687 20.4147 52.8687 21.2587 53.3894 21.7794C53.6497 22.0397 53.9907 22.1701 54.3321 22.1701Z" fill="#2B2A29"/>
<path d="M42.7227 21.7794C42.9831 22.0397 43.3244 22.1701 43.6654 22.1701C44.0064 22.1701 44.3477 22.0397 44.6081 21.7794C45.1287 21.2587 45.1287 20.4147 44.6081 19.8941L39.2747 14.5607C38.7541 14.0401 37.9101 14.0401 37.3894 14.5607C36.8687 15.0814 36.8687 15.9254 37.3894 16.4461L42.7227 21.7794Z" fill="#2B2A29"/>
</svg>
