<svg width="100" height="101" viewBox="0 0 100 101" fill="none" xmlns="http://www.w3.org/2000/svg">
<path d="M19.4546 15.238C20.242 15.238 20.8803 14.5997 20.8803 13.8127C20.8803 13.0257 20.242 12.387 19.4546 12.387C18.6673 12.387 18.0293 13.0254 18.0293 13.8127C18.0293 14.6 18.6676 15.238 19.4546 15.238V15.238Z" fill="#2B2A29"/>
<path d="M76.596 53.5034H56.4527V38.8367H70.6507C71.0393 38.8367 71.4077 38.6674 71.6617 38.373C74.2533 35.3594 75.4533 31.5177 75.04 27.5547C74.3527 20.9694 69.018 15.6067 62.355 14.8047C61.2103 14.6674 59.7403 14.8 57.995 15.2044C54.7033 15.9674 51.2137 15.9394 47.907 15.123C46.1667 14.6927 44.3647 14.586 42.5503 14.8047C35.8877 15.6067 30.553 20.9694 29.8653 27.5547C29.452 31.5177 30.6517 35.3594 33.2437 38.373C33.4977 38.6674 33.866 38.8367 34.2547 38.8367H47.1193V53.5034H29.6427C23.105 53.5034 17.786 58.8034 17.786 65.3184V86.8367C17.786 87.573 18.383 88.17 19.1193 88.17H87.1193C87.8557 88.17 88.4527 87.573 88.4527 86.8367V65.3184C88.4527 58.8034 83.1337 53.5034 76.596 53.5034V53.5034ZM58.1123 62.2184C56.941 60.247 54.826 59.0707 52.4527 59.0707C50.0793 59.0707 47.9643 60.247 46.793 62.2184C46.1347 63.3264 45.7863 64.5987 45.7863 65.8967V77.8804C45.7863 78.525 45.513 79.1434 45.037 79.577C44.5573 80.014 43.938 80.224 43.28 80.1597C42.429 80.0797 41.6557 79.4424 41.3093 78.5354C40.1487 75.495 39.515 70.9174 39.4773 65.2984C39.4657 63.622 38.8797 61.196 37.7357 58.0894C37.497 57.4424 37.1857 56.802 36.8197 56.17H47.587C48.339 57.741 49.931 58.8367 51.7857 58.8367C53.6403 58.8367 55.2323 57.741 55.9843 56.17H68.085C67.719 56.802 67.408 57.442 67.169 58.0894C66.025 61.196 65.4393 63.622 65.4273 65.2984C65.389 71.107 64.715 75.786 63.4793 78.8304C63.0277 79.9437 61.6967 80.4684 60.51 79.9984C59.6773 79.6684 59.118 78.7607 59.118 77.7414V65.8967C59.1187 64.5984 58.7703 63.3264 58.1123 62.2184V62.2184ZM49.786 49.5034H53.786V54.17C53.786 55.273 52.889 56.17 51.786 56.17C50.683 56.17 49.786 55.273 49.786 54.17V49.5034ZM53.786 30.8367H49.786V27.5034C49.786 26.4004 50.683 25.5034 51.786 25.5034C52.889 25.5034 53.786 26.4004 53.786 27.5034V30.8367ZM49.786 33.5034H53.786V36.17H49.786V33.5034ZM53.786 38.8367V41.5034H49.786V38.8367H53.786ZM49.786 44.17H53.786V46.8367H49.786V44.17ZM34.8863 36.17C33.0407 33.7944 32.202 30.857 32.518 27.832C33.0773 22.4727 37.4307 18.1074 42.8697 17.4517C44.3627 17.272 45.8423 17.3594 47.268 17.7114C50.981 18.6274 54.8997 18.6594 58.5973 17.8017C60.0187 17.473 61.2053 17.35 62.036 17.4514C67.4747 18.107 71.8283 22.472 72.3877 27.8317C72.7033 30.8564 71.865 33.794 70.0193 36.1697H56.453V27.5034C56.453 24.9304 54.3593 22.8367 51.7863 22.8367C49.2133 22.8367 47.1197 24.9304 47.1197 27.5034V36.17H34.8863ZM85.786 85.5034H20.4527V65.3184C20.4527 60.274 24.575 56.17 29.6427 56.17H33.6067C34.3273 57.1017 34.881 58.054 35.2333 59.011C36.2417 61.748 36.8017 63.9877 36.8107 65.3164C36.851 71.3354 37.526 76.1027 38.8183 79.4864C39.5233 81.3334 41.1763 82.64 43.03 82.8144C43.185 82.8287 43.34 82.8357 43.4943 82.8357C44.724 82.8357 45.92 82.3794 46.8323 81.5487C47.863 80.6107 48.4533 79.2734 48.4533 77.88V65.8967C48.4533 65.0777 48.672 64.277 49.086 63.5804C49.7717 62.426 51.03 61.7374 52.4527 61.7374C53.8753 61.7374 55.1337 62.426 55.8193 63.5804C56.2333 64.277 56.452 65.0777 56.452 65.8967V77.741C56.452 79.844 57.6877 81.747 59.5277 82.4774C62.0707 83.485 64.9503 82.299 65.9513 79.8327C67.3323 76.4304 68.053 71.5464 68.0947 65.3164C68.1037 63.9877 68.6637 61.748 69.672 59.011C70.0243 58.054 70.578 57.1014 71.2987 56.17H76.596C81.6637 56.17 85.786 60.274 85.786 65.3184V85.5034Z" fill="#2B2A29"/>
<path d="M16.4526 33.5034C17.1889 33.5034 17.7859 32.9064 17.7859 32.1701V29.5034C17.7859 28.767 17.1889 28.17 16.4526 28.17C15.7163 28.17 15.1193 28.767 15.1193 29.5034V32.1701C15.1193 32.9064 15.7163 33.5034 16.4526 33.5034Z" fill="#2B2A29"/>
<path d="M17.7859 37.5034C17.7859 36.767 17.1889 36.17 16.4526 36.17C15.7163 36.17 15.1193 36.767 15.1193 37.5034V40.17C15.1193 40.9064 15.7163 41.5034 16.4526 41.5034C17.1889 41.5034 17.7859 40.9064 17.7859 40.17V37.5034Z" fill="#2B2A29"/>
<path d="M13.7861 33.5034H11.1195C10.3831 33.5034 9.78613 34.1004 9.78613 34.8367C9.78613 35.573 10.3831 36.17 11.1195 36.17H13.7861C14.5225 36.17 15.1195 35.573 15.1195 34.8367C15.1195 34.1004 14.5225 33.5034 13.7861 33.5034Z" fill="#2B2A29"/>
<path d="M17.786 34.8367C17.786 35.573 18.383 36.17 19.1193 36.17H21.786C22.5223 36.17 23.1193 35.573 23.1193 34.8367C23.1193 34.1004 22.5223 33.5034 21.786 33.5034H19.1193C18.383 33.5034 17.786 34.1004 17.786 34.8367V34.8367Z" fill="#2B2A29"/>
<path d="M83.7865 21.5034C86.3595 21.5034 88.4532 19.4097 88.4532 16.8367C88.4532 14.2637 86.3595 12.17 83.7865 12.17C81.2135 12.17 79.1199 14.2637 79.1199 16.8367C79.1199 19.4097 81.2135 21.5034 83.7865 21.5034V21.5034ZM83.7865 14.8367C84.8895 14.8367 85.7865 15.7337 85.7865 16.8367C85.7865 17.9397 84.8895 18.8367 83.7865 18.8367C82.6835 18.8367 81.7865 17.9397 81.7865 16.8367C81.7865 15.7337 82.6835 14.8367 83.7865 14.8367V14.8367Z" fill="#2B2A29"/>
<path d="M88.7878 36.387C88.0004 36.387 87.3624 37.0254 87.3624 37.8127C87.3624 38.6 88.0008 39.238 88.7878 39.238C89.5748 39.238 90.2134 38.5997 90.2134 37.8127C90.2134 37.0257 89.5751 36.387 88.7878 36.387Z" fill="#2B2A29"/>
<path d="M60.4526 22.8367C62.9903 22.8367 65.2749 24.2467 66.4149 26.517C66.6486 26.983 67.1186 27.252 67.6076 27.252C67.8083 27.252 68.0126 27.2064 68.2046 27.11C68.8629 26.78 69.1283 25.9784 68.7976 25.3204C67.2033 22.1434 64.0053 20.17 60.4526 20.17C59.7163 20.17 59.1193 20.767 59.1193 21.5034C59.1193 22.2397 59.7163 22.8367 60.4526 22.8367Z" fill="#2B2A29"/>
</svg>
