<svg width="100" height="101" viewBox="0 0 100 101" fill="none" xmlns="http://www.w3.org/2000/svg">
<path d="M15.4546 51.7203C14.6673 51.7203 14.0293 52.3587 14.0293 53.146C14.0293 53.9333 14.6676 54.5713 15.4546 54.5713C16.2416 54.5713 16.8803 53.933 16.8803 53.146C16.8803 52.359 16.242 51.7203 15.4546 51.7203V51.7203Z" fill="#2B2A29"/>
<path d="M19.1195 16.8367C19.8558 16.8367 20.4528 16.2397 20.4528 15.5034V12.8367C20.4528 12.1004 19.8558 11.5034 19.1195 11.5034C18.3831 11.5034 17.7861 12.1004 17.7861 12.8367V15.5034C17.7861 16.2397 18.3831 16.8367 19.1195 16.8367Z" fill="#2B2A29"/>
<path d="M19.1195 19.5034C18.3831 19.5034 17.7861 20.1004 17.7861 20.8367V23.5034C17.7861 24.2397 18.3831 24.8367 19.1195 24.8367C19.8558 24.8367 20.4528 24.2397 20.4528 23.5034V20.8367C20.4528 20.1004 19.8558 19.5034 19.1195 19.5034Z" fill="#2B2A29"/>
<path d="M16.453 16.8367H13.7863C13.05 16.8367 12.453 17.4337 12.453 18.17C12.453 18.9063 13.05 19.5033 13.7863 19.5033H16.453C17.1893 19.5033 17.7863 18.9063 17.7863 18.17C17.7863 17.4337 17.1893 16.8367 16.453 16.8367Z" fill="#2B2A29"/>
<path d="M25.7862 18.17C25.7862 17.4337 25.1892 16.8367 24.4529 16.8367H21.7862C21.0499 16.8367 20.4529 17.4337 20.4529 18.17C20.4529 18.9063 21.0499 19.5033 21.7862 19.5033H24.4529C25.1892 19.5033 25.7862 18.9063 25.7862 18.17Z" fill="#2B2A29"/>
<path d="M78.4527 75.5034C75.8797 75.5034 73.786 77.597 73.786 80.17C73.786 82.743 75.8797 84.8367 78.4527 84.8367C81.0257 84.8367 83.1193 82.743 83.1193 80.17C83.1193 77.597 81.0257 75.5034 78.4527 75.5034ZM78.4527 82.17C77.3497 82.17 76.4527 81.273 76.4527 80.17C76.4527 79.067 77.3497 78.17 78.4527 78.17C79.5557 78.17 80.4527 79.067 80.4527 80.17C80.4527 81.273 79.5557 82.17 78.4527 82.17Z" fill="#2B2A29"/>
<path d="M86.1215 59.7203C85.3342 59.7203 84.6962 60.3587 84.6962 61.146C84.6962 61.9333 85.3345 62.5713 86.1215 62.5713C86.9085 62.5713 87.5472 61.933 87.5472 61.146C87.5472 60.359 86.9088 59.7203 86.1215 59.7203Z" fill="#2B2A29"/>
<path d="M62.0868 54.136C62.8041 53.97 63.2514 53.2543 63.0861 52.5363C62.9194 51.8183 62.2008 51.3723 61.4864 51.537L59.1198 52.083V50.17H60.4531C61.1894 50.17 61.7864 49.573 61.7864 48.8367V43.5033H77.2831C77.7088 43.5033 78.1088 43.3003 78.3598 42.9563C80.8831 39.5013 82.0264 35.2467 81.5771 30.9767C80.7391 22.9957 74.2348 16.497 66.1104 15.5243C61.5604 14.9767 57.0394 16.135 53.3761 18.7777C53.2341 18.8793 53.0298 18.8793 52.8878 18.7777C49.2251 16.135 44.7074 14.9783 40.1534 15.5243C32.0308 16.4967 25.5258 22.9957 24.6871 30.9767C24.2378 35.247 25.3811 39.5013 27.9044 42.9563C28.1558 43.3 28.5554 43.5033 28.9811 43.5033H40.0568C40.7931 43.5033 41.3901 42.9063 41.3901 42.17C41.3901 41.4337 40.7931 40.8367 40.0568 40.8367H29.6774C27.8114 38.021 26.9828 34.644 27.3394 31.2553C28.0491 24.5007 33.5718 18.9983 40.4714 18.1713C44.3511 17.711 48.2078 18.6897 51.3281 20.9403C52.4074 21.719 53.8568 21.719 54.9361 20.9403C58.0551 18.6903 61.9101 17.7073 65.7928 18.1713C72.6931 18.998 78.2161 24.5007 78.9248 31.2553C79.2814 34.644 78.4528 38.021 76.5868 40.8367H61.7861V35.5033C61.7861 34.767 61.1891 34.17 60.4528 34.17H45.7861C45.0498 34.17 44.4528 34.767 44.4528 35.5033V48.8367C44.4528 49.573 45.0498 50.17 45.7861 50.17H47.1194V54.8527L44.1528 55.5373C43.4354 55.7033 42.9881 56.419 43.1534 57.137C43.2961 57.7537 43.8448 58.1703 44.4518 58.1703C44.5514 58.1703 44.6524 58.1593 44.7531 58.1363L47.1198 57.5903V61.5197L44.1531 62.2043C43.4358 62.3703 42.9884 63.086 43.1538 63.804C43.2964 64.4207 43.8451 64.8373 44.4521 64.8373C44.5518 64.8373 44.6528 64.8263 44.7534 64.8033L47.1201 64.2573V68.1867L44.1534 68.8713C43.4361 69.0373 42.9888 69.753 43.1541 70.471C43.2968 71.0877 43.8454 71.5043 44.4524 71.5043C44.5521 71.5043 44.6531 71.4933 44.7538 71.4703L47.1204 70.9243V74.8537L44.1538 75.5383C43.4364 75.7043 42.9891 76.42 43.1544 77.138C43.2971 77.7547 43.8458 78.1713 44.4528 78.1713C44.5524 78.1713 44.6534 78.1603 44.7541 78.1373L47.1208 77.5913V81.5207L44.1541 82.2053C43.4368 82.3713 42.9894 83.087 43.1548 83.805C43.2974 84.4217 43.8461 84.8383 44.4531 84.8383C44.5528 84.8383 44.6538 84.8273 44.7544 84.8043L47.2964 84.2177C47.9234 86.8607 50.2891 88.838 53.1208 88.838C56.4294 88.838 59.1208 86.1467 59.1208 82.838V81.4887L62.0874 80.804C62.8048 80.638 63.2521 79.9223 63.0868 79.2043C62.9201 78.4863 62.2014 78.041 61.4871 78.205L59.1204 78.751V74.8217L62.0871 74.137C62.8044 73.971 63.2518 73.2553 63.0864 72.5373C62.9198 71.8193 62.2011 71.3733 61.4868 71.538L59.1201 72.084V68.1547L62.0868 67.47C62.8041 67.304 63.2514 66.5883 63.0861 65.8703C62.9194 65.1523 62.2008 64.7063 61.4864 64.871L59.1198 65.417V61.4877L62.0864 60.803C62.8038 60.637 63.2511 59.9213 63.0858 59.2033C62.9191 58.4853 62.2004 58.0393 61.4861 58.204L59.1194 58.75V54.8207L62.0868 54.136ZM47.1201 36.8367H59.1201V47.5033H47.1201V36.8367ZM49.7868 50.17H56.4534V52.6987L49.7868 54.237V50.17ZM56.4534 82.8367C56.4534 84.6747 54.9581 86.17 53.1201 86.17C51.5524 86.17 50.2428 85.0783 49.8888 83.6177L56.4534 82.1027V82.8367ZM56.4534 79.3653L49.7868 80.9037V76.9743L56.4534 75.436V79.3653ZM56.4534 72.6987L49.7868 74.237V70.3077L56.4534 68.7693V72.6987ZM56.4534 66.032L49.7868 67.5703V63.641L56.4534 62.1027V66.032ZM56.4534 59.3653L49.7868 60.9037V56.9743L56.4534 55.436V59.3653Z" fill="#2B2A29"/>
</svg>
