<svg width="100" height="100" viewBox="0 0 100 100" fill="none" xmlns="http://www.w3.org/2000/svg">
<path d="M19.4546 15.068C20.242 15.068 20.8803 14.4297 20.8803 13.6427C20.8803 12.8557 20.242 12.217 19.4546 12.217C18.6673 12.217 18.0293 12.8553 18.0293 13.6427C18.0293 14.43 18.6676 15.068 19.4546 15.068Z"/>
<path d="M76.5961 53.3333H56.4528V38.6666H70.6508C71.0395 38.6666 71.4078 38.4973 71.6618 38.203C74.2535 35.1893 75.4535 31.3476 75.0401 27.3846C74.3528 20.7993 69.0181 15.4366 62.3551 14.6346C61.2105 14.4973 59.7405 14.63 57.9951 15.0343C54.7035 15.7973 51.2138 15.7693 47.9071 14.953C46.1668 14.5226 44.3648 14.416 42.5505 14.6346C35.8878 15.4366 30.5531 20.7993 29.8655 27.3846C29.4521 31.3476 30.6518 35.1893 33.2438 38.203C33.4978 38.4973 33.8661 38.6666 34.2548 38.6666H47.1195V53.3333H29.6428C23.1051 53.3333 17.7861 58.6333 17.7861 65.1483V86.6666C17.7861 87.403 18.3831 88 19.1195 88H87.1195C87.8558 88 88.4528 87.403 88.4528 86.6666V65.1483C88.4528 58.6333 83.1338 53.3333 76.5961 53.3333ZM58.1125 62.0483C56.9411 60.077 54.8261 58.9006 52.4528 58.9006C50.0795 58.9006 47.9645 60.077 46.7931 62.0483C46.1348 63.1563 45.7865 64.4286 45.7865 65.7266V77.7103C45.7865 78.355 45.5131 78.9733 45.0371 79.407C44.5575 79.844 43.9381 80.054 43.2801 79.9896C42.4291 79.9096 41.6558 79.2723 41.3095 78.3653C40.1488 75.325 39.5151 70.7473 39.4775 65.1283C39.4658 63.452 38.8798 61.026 37.7358 57.9193C37.4971 57.2723 37.1858 56.632 36.8198 56H47.5871C48.3391 57.571 49.9311 58.6666 51.7858 58.6666C53.6405 58.6666 55.2325 57.571 55.9845 56H68.0851C67.7191 56.632 67.4081 57.272 67.1691 57.9193C66.0251 61.026 65.4395 63.452 65.4275 65.1283C65.3891 70.937 64.7151 75.616 63.4795 78.6603C63.0278 79.7736 61.6968 80.2983 60.5101 79.8283C59.6775 79.4983 59.1181 78.5906 59.1181 77.5713V65.7266C59.1188 64.4283 58.7705 63.1563 58.1125 62.0483ZM49.7861 49.3333H53.7861V54C53.7861 55.103 52.8891 56 51.7861 56C50.6831 56 49.7861 55.103 49.7861 54V49.3333ZM53.7861 30.6666H49.7861V27.3333C49.7861 26.2303 50.6831 25.3333 51.7861 25.3333C52.8891 25.3333 53.7861 26.2303 53.7861 27.3333V30.6666ZM49.7861 33.3333H53.7861V36H49.7861V33.3333ZM53.7861 38.6666V41.3333H49.7861V38.6666H53.7861ZM49.7861 44H53.7861V46.6666H49.7861V44ZM34.8865 36C33.0408 33.6243 32.2021 30.687 32.5181 27.662C33.0775 22.3026 37.4308 17.9373 42.8698 17.2816C44.3628 17.102 45.8425 17.1893 47.2681 17.5413C50.9811 18.4573 54.8998 18.4893 58.5975 17.6316C60.0188 17.303 61.2055 17.18 62.0361 17.2813C67.4748 17.937 71.8285 22.302 72.3878 27.6616C72.7035 30.6863 71.8651 33.624 70.0195 35.9996H56.4531V27.3333C56.4531 24.7603 54.3595 22.6666 51.7865 22.6666C49.2135 22.6666 47.1198 24.7603 47.1198 27.3333V36H34.8865ZM85.7861 85.3333H20.4528V65.1483C20.4528 60.104 24.5751 56 29.6428 56H33.6068C34.3275 56.9316 34.8811 57.884 35.2335 58.841C36.2418 61.578 36.8018 63.8176 36.8108 65.1463C36.8511 71.1653 37.5261 75.9326 38.8185 79.3163C39.5235 81.1633 41.1765 82.47 43.0301 82.6443C43.1851 82.6586 43.3401 82.6656 43.4945 82.6656C44.7241 82.6656 45.9201 82.2093 46.8325 81.3786C47.8631 80.4406 48.4535 79.1033 48.4535 77.71V65.7266C48.4535 64.9076 48.6721 64.107 49.0861 63.4103C49.7718 62.256 51.0301 61.5673 52.4528 61.5673C53.8755 61.5673 55.1338 62.256 55.8195 63.4103C56.2335 64.107 56.4521 64.9076 56.4521 65.7266V77.571C56.4521 79.674 57.6878 81.577 59.5278 82.3073C62.0708 83.315 64.9505 82.129 65.9515 79.6626C67.3325 76.2603 68.0531 71.3763 68.0948 65.1463C68.1038 63.8176 68.6638 61.578 69.6721 58.841C70.0245 57.884 70.5781 56.9313 71.2988 56H76.5961C81.6638 56 85.7861 60.104 85.7861 65.1483V85.3333Z"/>
<path d="M16.4525 33.3334C17.1888 33.3334 17.7858 32.7363 17.7858 32V29.3333C17.7858 28.597 17.1888 28 16.4525 28C15.7161 28 15.1191 28.597 15.1191 29.3333V32C15.1191 32.7363 15.7161 33.3334 16.4525 33.3334Z"/>
<path d="M17.7858 37.3333C17.7858 36.597 17.1888 36 16.4525 36C15.7161 36 15.1191 36.597 15.1191 37.3333V40C15.1191 40.7363 15.7161 41.3333 16.4525 41.3333C17.1888 41.3333 17.7858 40.7363 17.7858 40V37.3333Z"/>
<path d="M13.7861 33.3333H11.1195C10.3831 33.3333 9.78613 33.9303 9.78613 34.6667C9.78613 35.403 10.3831 36 11.1195 36H13.7861C14.5225 36 15.1195 35.403 15.1195 34.6667C15.1195 33.9303 14.5225 33.3333 13.7861 33.3333Z"/>
<path d="M17.7861 34.6667C17.7861 35.403 18.3831 36 19.1195 36H21.7861C22.5225 36 23.1195 35.403 23.1195 34.6667C23.1195 33.9303 22.5225 33.3333 21.7861 33.3333H19.1195C18.3831 33.3333 17.7861 33.9303 17.7861 34.6667Z"/>
<path d="M83.7868 21.3333C86.3598 21.3333 88.4535 19.2397 88.4535 16.6667C88.4535 14.0937 86.3598 12 83.7868 12C81.2138 12 79.1201 14.0937 79.1201 16.6667C79.1201 19.2397 81.2138 21.3333 83.7868 21.3333ZM83.7868 14.6667C84.8898 14.6667 85.7868 15.5637 85.7868 16.6667C85.7868 17.7697 84.8898 18.6667 83.7868 18.6667C82.6838 18.6667 81.7868 17.7697 81.7868 16.6667C81.7868 15.5637 82.6838 14.6667 83.7868 14.6667Z"/>
<path d="M88.7876 36.217C88.0003 36.217 87.3623 36.8553 87.3623 37.6427C87.3623 38.43 88.0006 39.068 88.7876 39.068C89.5746 39.068 90.2133 38.4297 90.2133 37.6427C90.2133 36.8556 89.575 36.217 88.7876 36.217Z"/>
<path d="M60.4525 22.6667C62.9901 22.6667 65.2748 24.0767 66.4148 26.347C66.6485 26.813 67.1185 27.082 67.6075 27.082C67.8081 27.082 68.0125 27.0363 68.2045 26.94C68.8628 26.61 69.1281 25.8083 68.7975 25.1503C67.2031 21.9733 64.0051 20 60.4525 20C59.7161 20 59.1191 20.597 59.1191 21.3333C59.1191 22.0697 59.7161 22.6667 60.4525 22.6667Z"/>
</svg>
