<svg viewBox="0 0 100 101" fill="none" xmlns="http://www.w3.org/2000/svg">
<path d="M75.9998 18.17C76.7369 18.17 77.3332 17.5737 77.3332 16.8367V14.17C77.3332 13.433 76.7369 12.8367 75.9998 12.8367C75.2628 12.8367 74.6665 13.433 74.6665 14.17V16.8367C74.6665 17.5737 75.2628 18.17 75.9998 18.17Z" fill="url(#paint0_linear)"/>
<path d="M77.3332 22.17C77.3332 21.433 76.7369 20.8367 75.9998 20.8367C75.2628 20.8367 74.6665 21.433 74.6665 22.17V24.8367C74.6665 25.5737 75.2628 26.17 75.9998 26.17C76.7369 26.17 77.3332 25.5737 77.3332 24.8367V22.17Z" fill="url(#paint1_linear)"/>
<path d="M70.6666 20.8367H73.3332C74.0702 20.8367 74.6666 20.2404 74.6666 19.5034C74.6666 18.7664 74.0702 18.17 73.3332 18.17H70.6666C69.9296 18.17 69.3333 18.7664 69.3333 19.5034C69.3333 20.2404 69.9296 20.8367 70.6666 20.8367Z" fill="url(#paint2_linear)"/>
<path d="M81.3332 18.17H78.6666C77.9296 18.17 77.3333 18.7664 77.3333 19.5034C77.3333 20.2404 77.9296 20.8367 78.6666 20.8367H81.3332C82.0702 20.8367 82.6666 20.2404 82.6666 19.5034C82.6666 18.7664 82.0702 18.17 81.3332 18.17Z" fill="url(#paint3_linear)"/>
<path d="M85.3333 38.17C86.0697 38.17 86.6667 37.573 86.6667 36.8366C86.6667 36.1002 86.0697 35.5033 85.3333 35.5033C84.597 35.5033 84 36.1002 84 36.8366C84 37.573 84.597 38.17 85.3333 38.17Z" fill="url(#paint4_linear)"/>
<path d="M14.6667 75.5034C15.4031 75.5034 16 74.9064 16 74.17C16 73.4336 15.4031 72.8367 14.6667 72.8367C13.9303 72.8367 13.3334 73.4336 13.3334 74.17C13.3334 74.9064 13.9303 75.5034 14.6667 75.5034Z" fill="url(#paint5_linear)"/>
<path d="M75.9998 44.8367C76.7362 44.8367 77.3332 44.2398 77.3332 43.5034C77.3332 42.767 76.7362 42.17 75.9998 42.17C75.2635 42.17 74.6665 42.767 74.6665 43.5034C74.6665 44.2398 75.2635 44.8367 75.9998 44.8367Z" fill="url(#paint6_linear)"/>
<path d="M66.6667 72.8367C63.7254 72.8367 61.3334 70.4447 61.3334 67.5033V66.17V63.47C61.345 63.458 61.361 63.4543 61.3724 63.442L68.987 55.067C69.3567 54.6593 69.4387 54.0657 69.1927 53.5737L66.8944 48.9773L70.3997 44.303C70.755 43.829 70.755 43.178 70.3997 42.704L66.849 37.9697L69.2384 31.9983C69.5117 31.3147 69.1784 30.5387 68.495 30.2653L62.525 27.8773L61.3154 20.6183C61.2084 19.9747 60.6524 19.5033 60 19.5033H52.6667L49.0664 14.704C48.63 14.122 47.8034 13.997 47.216 14.4253L34.9907 23.316C34.919 23.368 34.8764 23.441 34.818 23.5033H17.043C14.9974 23.5033 13.3334 25.1673 13.3334 27.213V36.3927C13.3334 37.045 13.8047 37.601 14.448 37.7077L22.0404 38.9733L16.0274 43.4837C15.4597 43.9093 15.3244 44.705 15.72 45.2937C18.3307 49.1817 22.672 51.5033 27.3334 51.5033H33.3334V54.17H26C23.427 54.17 21.3334 56.2637 21.3334 58.8367C21.3334 61.4097 23.427 63.5033 26 63.5033H30.4577C29.7304 64.7347 29.3334 66.1493 29.3334 67.6073V74.0657C29.3334 75.99 30.032 77.8437 31.2577 79.2917C28.515 80.6867 26.6667 83.2437 26.6667 86.17C26.6667 86.907 27.263 87.5033 28 87.5033H78.6667C79.4037 87.5033 80 86.907 80 86.17C80 78.8183 74.0184 72.8367 66.6667 72.8367ZM47.7214 17.355L50.9337 21.6363C51.185 21.972 51.5807 22.17 52 22.17H58.871L60.018 29.0553C60.0947 29.515 60.406 29.9017 60.8384 30.075L66.2667 32.2457L64.0947 37.6753C63.9227 38.1077 63.9867 38.5987 64.2667 38.9697L67.6667 43.5033L64.267 48.0373C63.9637 48.441 63.9154 48.9813 64.1407 49.4333L66.3984 53.949L61.3334 59.5197V42.1387C61.3334 31.8627 52.974 23.5033 42.698 23.5033H39.266L47.7214 17.355ZM29.5444 84.8367C30.2867 82.5383 32.8997 80.8367 36 80.8367H42.6667C43.4037 80.8367 44 80.2403 44 79.5033C44 78.7663 43.4037 78.17 42.6667 78.17H36C35.35 78.17 34.7157 78.228 34.103 78.337C32.7677 77.3007 32 75.7547 32 74.066V67.6077C32 66.0557 32.6707 64.575 33.8387 63.545C33.8524 63.533 33.8574 63.5157 33.8704 63.5033H42.6667C43.4037 63.5033 44 62.907 44 62.17C44 61.433 43.4037 60.8367 42.6667 60.8367H26C24.897 60.8367 24 59.9397 24 58.8367C24 57.7337 24.897 56.8367 26 56.8367H42.6667C43.4037 56.8367 44 56.2403 44 55.5033C44 54.7663 43.4037 54.17 42.6667 54.17H36V50.17C36 49.433 35.4037 48.8367 34.6667 48.8367H27.3334C23.9844 48.8367 20.8387 47.3537 18.6954 44.816L26.1327 39.2367C26.5597 38.9163 26.755 38.3733 26.6287 37.854C26.5024 37.3357 26.0794 36.9427 25.552 36.8553L16 35.2637V27.213C16 26.6373 16.4674 26.17 17.043 26.17H42.698C51.5027 26.17 58.6667 33.334 58.6667 42.1387V78.17C58.6667 78.907 59.263 79.5033 60 79.5033C60.737 79.5033 61.3334 78.907 61.3334 78.17V73.4493C62.7504 74.7217 64.6167 75.5033 66.6667 75.5033C72.0964 75.5033 76.5924 79.5827 77.25 84.8367H29.5444Z" fill="url(#paint7_linear)"/>
<path d="M28.6667 32.8367C29.7713 32.8367 30.6668 31.9412 30.6668 30.8367C30.6668 29.7321 29.7713 28.8367 28.6667 28.8367C27.5622 28.8367 26.6667 29.7321 26.6667 30.8367C26.6667 31.9412 27.5622 32.8367 28.6667 32.8367Z" fill="url(#paint8_linear)"/>
<defs>
<linearGradient id="paint0_linear" x1="76.3699" y1="13.6367" x2="75.4368" y2="13.7557" gradientUnits="userSpaceOnUse">
<stop stop-color="#9A0037"/>
<stop offset="1" stop-color="#CF2023"/>
</linearGradient>
<linearGradient id="paint1_linear" x1="76.3699" y1="21.6367" x2="75.4368" y2="21.7557" gradientUnits="userSpaceOnUse">
<stop stop-color="#9A0037"/>
<stop offset="1" stop-color="#CF2023"/>
</linearGradient>
<linearGradient id="paint2_linear" x1="72.7401" y1="18.57" x2="71.2352" y2="19.3378" gradientUnits="userSpaceOnUse">
<stop stop-color="#9A0037"/>
<stop offset="1" stop-color="#CF2023"/>
</linearGradient>
<linearGradient id="paint3_linear" x1="80.7401" y1="18.57" x2="79.2352" y2="19.3378" gradientUnits="userSpaceOnUse">
<stop stop-color="#9A0037"/>
<stop offset="1" stop-color="#CF2023"/>
</linearGradient>
<linearGradient id="paint4_linear" x1="85.7034" y1="35.9033" x2="84.8131" y2="36.1304" gradientUnits="userSpaceOnUse">
<stop stop-color="#9A0037"/>
<stop offset="1" stop-color="#CF2023"/>
</linearGradient>
<linearGradient id="paint5_linear" x1="15.0368" y1="73.2367" x2="14.1464" y2="73.4638" gradientUnits="userSpaceOnUse">
<stop stop-color="#9A0037"/>
<stop offset="1" stop-color="#CF2023"/>
</linearGradient>
<linearGradient id="paint6_linear" x1="76.3699" y1="42.57" x2="75.4796" y2="42.7972" gradientUnits="userSpaceOnUse">
<stop stop-color="#9A0037"/>
<stop offset="1" stop-color="#CF2023"/>
</linearGradient>
<linearGradient id="paint7_linear" x1="55.9184" y1="25.1707" x2="33.4209" y2="30.3881" gradientUnits="userSpaceOnUse">
<stop stop-color="#9A0037"/>
<stop offset="1" stop-color="#CF2023"/>
</linearGradient>
<linearGradient id="paint8_linear" x1="29.2219" y1="29.4367" x2="27.8863" y2="29.7774" gradientUnits="userSpaceOnUse">
<stop stop-color="#9A0037"/>
<stop offset="1" stop-color="#CF2023"/>
</linearGradient>
</defs>
</svg>
