<svg viewBox="0 0 100 100" fill="none" xmlns="http://www.w3.org/2000/svg">
<path d="M13.3335 39.5503C12.5462 39.5503 11.9082 40.1887 11.9082 40.976C11.9082 41.7633 12.5465 42.4013 13.3335 42.4013C14.1205 42.4013 14.7592 41.763 14.7592 40.976C14.7592 40.189 14.1209 39.5503 13.3335 39.5503Z"/>
<path d="M19.6654 18C20.4024 18 20.9987 17.403 20.9987 16.6667V14C20.9987 13.2637 20.4024 12.6667 19.6654 12.6667C18.9284 12.6667 18.332 13.2637 18.332 14V16.6667C18.332 17.403 18.9284 18 19.6654 18Z"/>
<path d="M20.9987 24.6667V22C20.9987 21.2637 20.4024 20.6667 19.6654 20.6667C18.9284 20.6667 18.332 21.2637 18.332 22V24.6667C18.332 25.403 18.9284 26 19.6654 26C20.4024 26 20.9987 25.403 20.9987 24.6667Z"/>
<path d="M16.998 18H14.3314C13.5944 18 12.998 18.597 12.998 19.3333C12.998 20.0696 13.5944 20.6666 14.3314 20.6666H16.998C17.735 20.6666 18.3314 20.0696 18.3314 19.3333C18.3314 18.597 17.7347 18 16.998 18Z"/>
<path d="M22.3324 20.6666H24.999C25.736 20.6666 26.3324 20.0696 26.3324 19.3333C26.3324 18.597 25.736 18 24.999 18H22.3324C21.5954 18 20.999 18.597 20.999 19.3333C20.999 20.0696 21.5954 20.6666 22.3324 20.6666Z"/>
<path d="M78.9987 71.3333C76.4257 71.3333 74.332 73.427 74.332 76C74.332 78.573 76.4257 80.6666 78.9987 80.6666C81.5717 80.6666 83.6654 78.573 83.6654 76C83.6654 73.427 81.5714 71.3333 78.9987 71.3333ZM78.9987 78C77.8957 78 76.9987 77.103 76.9987 76C76.9987 74.897 77.8957 74 78.9987 74C80.1017 74 80.9987 74.897 80.9987 76C80.9987 77.103 80.1014 78 78.9987 78Z"/>
<path d="M86.6665 54.217C85.8792 54.217 85.2412 54.8553 85.2412 55.6426C85.2412 56.43 85.8795 57.068 86.6665 57.068C87.4535 57.068 88.0922 56.4296 88.0922 55.6426C88.0922 54.8556 87.4539 54.217 86.6665 54.217Z"/>
<path d="M76.7902 40.461C75.9529 32.317 69.4502 25.6843 61.3252 24.6903C56.7769 24.1303 52.2432 25.314 48.5766 28.0177C48.4426 28.1187 48.2486 28.1193 48.1116 28.0183C44.4436 25.3133 39.9099 24.1337 35.3629 24.6903C27.2379 25.6843 20.7353 32.3173 19.8979 40.461C19.3953 45.357 20.8549 50.1043 24.0099 53.8293C25.1663 55.192 26.0176 56.6047 26.5439 58.0293C27.8083 61.4493 28.5099 64.261 28.5219 65.9467C28.5739 73.6237 29.4619 79.6347 31.1599 83.8113C32.0296 85.9513 34.1299 87.3333 36.5103 87.3333C39.7199 87.3333 42.3319 84.722 42.3319 81.5117V66.6667C42.3319 63.358 45.0232 60.6667 48.3319 60.6667C51.6406 60.6667 54.3319 63.358 54.3319 66.6667V81.4967C54.3319 84.7147 56.9502 87.3333 60.1692 87.3333C62.5546 87.3333 64.6602 85.9473 65.5326 83.802C67.2279 79.627 68.1146 73.6197 68.1666 65.9467C68.1732 65.032 68.3749 63.8087 68.7696 62.3107C69.5782 59.222 71.1522 56.069 73.5809 52.67C76.0972 49.1463 77.2366 44.8107 76.7902 40.461ZM71.4112 51.1197C68.7902 54.787 67.0819 58.2263 66.1899 61.634C65.7392 63.3463 65.5076 64.791 65.4999 65.9283C65.4516 73.1587 64.6079 78.992 63.0612 82.798C62.6069 83.9153 61.4452 84.6663 60.1692 84.6663C58.4206 84.6663 56.9986 83.2443 56.9986 81.4963V66.6667C56.9986 61.888 53.1106 58 48.3319 58C43.5532 58 39.6653 61.888 39.6653 66.6667V81.5117C39.6653 83.2513 38.2499 84.6667 36.5103 84.6667C35.2406 84.6667 34.0833 83.9193 33.6313 82.8067C32.0819 78.9993 31.2366 73.1627 31.1886 65.9283C31.1716 63.3813 30.0143 59.7247 29.0466 57.1047C28.4113 55.388 27.4019 53.7057 26.0439 52.1047C23.3629 48.9393 22.1233 44.901 22.5516 40.733C23.2613 33.8157 28.7859 28.1817 35.6856 27.337C39.5646 26.8637 43.4149 27.8657 46.5279 30.1643C47.5982 30.9527 49.0892 30.9493 50.1596 30.1637C53.2742 27.866 57.1179 26.8643 61.0019 27.337C67.9016 28.1813 73.4262 33.8157 74.1359 40.7333C74.5179 44.437 73.5492 48.1257 71.4112 51.1197Z"/>
<path d="M58.4117 39.3333L52.999 39.4133V33.92C52.999 32.4936 51.839 31.3333 50.4117 31.3333H46.2527C44.8257 31.3333 43.6654 32.4933 43.6654 33.92L43.7447 39.3333H38.2524C36.8254 39.3333 35.665 40.4933 35.665 41.92V46.08C35.665 47.5063 36.825 48.6667 38.2524 48.6667L43.665 48.5866V54.08C43.665 55.5063 44.825 56.6667 46.2524 56.6667H50.4114C51.8384 56.6667 52.9987 55.5067 52.9987 54.08L52.9194 48.6667H58.4117C59.8387 48.6667 60.999 47.5067 60.999 46.08V41.92C60.999 40.4933 59.8387 39.3333 58.4117 39.3333ZM52.9194 46C51.4924 46 50.332 47.16 50.332 48.5866L50.4114 54L46.332 54.08V48.5866C46.332 47.1603 45.172 46 43.7447 46L38.332 46.08L38.2527 42H43.745C45.172 42 46.3324 40.84 46.3324 39.4133L46.2527 34L50.332 33.92V39.4133C50.332 40.8396 51.492 42 52.9194 42H58.3334L58.4114 46H52.9194Z"/>
<path d="M48.9994 23.3333C49.7364 23.3333 50.3327 22.7363 50.3327 22V14C50.3327 13.2637 49.7364 12.6667 48.9994 12.6667C48.2624 12.6667 47.666 13.2637 47.666 14V22C47.666 22.7363 48.2624 23.3333 48.9994 23.3333Z"/>
<path d="M54.3322 22C54.6732 22 55.0145 21.8697 55.2748 21.6093L60.6082 16.276C61.1288 15.7553 61.1288 14.9113 60.6082 14.3907C60.0875 13.87 59.2435 13.87 58.7228 14.3907L53.3895 19.724C52.8689 20.2447 52.8689 21.0887 53.3895 21.6093C53.6499 21.8697 53.9909 22 54.3322 22Z"/>
<path d="M42.7229 21.6093C42.9832 21.8697 43.3245 22 43.6655 22C44.0065 22 44.3479 21.8697 44.6082 21.6093C45.1289 21.0887 45.1289 20.2447 44.6082 19.724L39.2749 14.3907C38.7542 13.87 37.9102 13.87 37.3895 14.3907C36.8689 14.9113 36.8689 15.7553 37.3895 16.276L42.7229 21.6093Z"/>
</svg>
