<svg width="100" height="101" viewBox="0 0 100 101" fill="none" xmlns="http://www.w3.org/2000/svg">
<path d="M56.6613 16.9564C57.4486 16.9564 58.0866 16.3181 58.0866 15.5307C58.0866 14.7434 57.4483 14.1054 56.6613 14.1054C55.8743 14.1054 55.236 14.7437 55.236 15.5307C55.236 16.3177 55.874 16.9564 56.6613 16.9564V16.9564Z" fill="#2B2A29"/>
<path d="M79.79 34.1347C80.5263 34.1347 81.1233 33.5377 81.1233 32.8014V30.1347C81.1233 29.3984 80.5263 28.8014 79.79 28.8014C79.0537 28.8014 78.4567 29.3984 78.4567 30.1347V32.8014C78.4567 33.5377 79.0537 34.1347 79.79 34.1347Z" fill="#2B2A29"/>
<path d="M79.79 36.8015C79.0537 36.8015 78.4567 37.3985 78.4567 38.1348V40.8015C78.4567 41.5378 79.0537 42.1348 79.79 42.1348C80.5263 42.1348 81.1233 41.5378 81.1233 40.8015V38.1348C81.1233 37.3985 80.5263 36.8015 79.79 36.8015Z" fill="#2B2A29"/>
<path d="M74.4569 36.8014H77.1235C77.8599 36.8014 78.4569 36.2044 78.4569 35.4681C78.4569 34.7318 77.8599 34.1348 77.1235 34.1348H74.4569C73.7205 34.1348 73.1235 34.7318 73.1235 35.4681C73.1235 36.2044 73.7205 36.8014 74.4569 36.8014Z" fill="#2B2A29"/>
<path d="M82.4561 36.8014H85.1228C85.8591 36.8014 86.4561 36.2044 86.4561 35.4681C86.4561 34.7318 85.8591 34.1348 85.1228 34.1348H82.4561C81.7198 34.1348 81.1228 34.7318 81.1228 35.4681C81.1228 36.2044 81.7198 36.8014 82.4561 36.8014Z" fill="#2B2A29"/>
<path d="M17.7895 74.1348C15.2165 74.1348 13.1228 76.2284 13.1228 78.8014C13.1228 81.3744 15.2165 83.4681 17.7895 83.4681C20.3625 83.4681 22.4561 81.3744 22.4561 78.8014C22.4561 76.2284 20.3621 74.1348 17.7895 74.1348V74.1348ZM17.7895 80.8014C16.6865 80.8014 15.7895 79.9044 15.7895 78.8014C15.7895 77.6984 16.6865 76.8014 17.7895 76.8014C18.8925 76.8014 19.7895 77.6984 19.7895 78.8014C19.7895 79.9044 18.8921 80.8014 17.7895 80.8014Z" fill="#2B2A29"/>
<path d="M48.6613 79.4387C47.874 79.4387 47.236 80.0771 47.236 80.8641C47.236 81.6511 47.8743 82.2897 48.6613 82.2897C49.4483 82.2897 50.0866 81.6514 50.0866 80.8641C50.0866 80.0767 49.4486 79.4387 48.6613 79.4387Z" fill="#2B2A29"/>
<path d="M86.3307 66.7621L65.5884 46.0197C65.0677 45.4991 64.2237 45.4991 63.7031 46.0197L61.8174 47.9054L56.1607 42.2487C54.5617 40.6494 52.3894 39.8477 50.2021 39.9281C51.5587 36.9731 51.0481 33.3651 48.6181 30.9351C47.8747 30.1914 47.0154 29.6371 46.1024 29.2481C44.8627 25.1381 41.0454 22.1344 36.5367 22.1344C34.8577 22.1344 33.1974 22.5601 31.7367 23.3647C30.2017 24.2104 28.4411 24.2104 26.9047 23.3647C25.4431 22.5601 23.7831 22.1344 22.1041 22.1344C16.5944 22.1344 12.1111 26.6174 12.1111 32.1274C12.1111 32.2107 12.1188 32.2941 12.1344 32.3761L14.7654 46.2264L16.7881 64.4287C16.9424 65.8194 17.9274 66.9014 19.2971 67.1854C20.6681 67.4647 22.0014 66.8671 22.6954 65.6521L28.2411 55.9471C28.5641 55.3821 29.1031 55.3207 29.3197 55.3207C29.5371 55.3207 30.0764 55.3821 30.3991 55.9471L35.9447 65.6514C36.5247 66.6671 37.5514 67.2544 38.6734 67.2544C38.8941 67.2544 39.1181 67.2317 39.3434 67.1854C40.7137 66.9014 41.6987 65.8194 41.8531 64.4287L43.0651 53.4994C43.3177 53.8517 43.5911 54.1921 43.9044 54.5054L49.5611 60.1621L47.6754 62.0477C47.1547 62.5684 47.1547 63.4124 47.6754 63.9331L68.4177 84.6754C69.4574 85.7151 70.8227 86.2347 72.1884 86.2347C73.5541 86.2347 74.9201 85.7151 75.9597 84.6754V84.6747C78.0391 82.5954 78.0391 79.2124 75.9597 77.1331L55.2174 56.3907C54.6967 55.8701 53.8527 55.8701 53.3321 56.3907L51.4464 58.2764L45.7897 52.6197C44.6924 51.5214 44.1524 50.0281 44.2454 48.5214C44.7367 48.6941 45.2534 48.8007 45.7897 48.8007C47.0364 48.8007 48.2084 48.3151 49.0891 47.4341C49.9708 46.5524 50.4564 45.3807 50.4564 44.1341C50.4564 43.5967 50.3494 43.0794 50.1761 42.5871C51.6771 42.4964 53.1781 43.0374 54.2754 44.1341L59.9321 49.7907L58.0464 51.6764C57.5257 52.1971 57.5257 53.0411 58.0464 53.5617L78.7887 74.3041C79.8284 75.3437 81.1937 75.8634 82.5594 75.8634C83.9251 75.8634 85.2911 75.3437 86.3307 74.3041C88.4101 72.2244 88.4101 68.8411 86.3307 66.7621V66.7621ZM54.2747 59.2194L74.0741 79.0187C75.1131 80.0584 75.1131 81.7497 74.0741 82.7901C73.0337 83.8291 71.3417 83.8291 70.3027 82.7901L50.5034 62.9907L54.2747 59.2194ZM48.2941 36.5924C48.2941 37.7487 47.9124 38.8387 47.2361 39.7507C46.5591 39.5407 45.8437 39.4797 45.1411 39.5724L46.4627 32.6014C46.5504 32.6784 46.6481 32.7374 46.7321 32.8211C47.7394 33.8281 48.2941 35.1677 48.2941 36.5924ZM39.2031 64.1347C39.1674 64.4524 38.9367 64.5461 38.8027 64.5741C38.6694 64.6041 38.4201 64.6067 38.2604 64.3294L32.7141 54.6244C32.0097 53.3907 30.7407 52.6544 29.3194 52.6544C27.8987 52.6544 26.6301 53.3907 25.9254 54.6244L20.3798 64.3294C20.2201 64.6067 19.9734 64.6041 19.8374 64.5741C19.7034 64.5461 19.4728 64.4524 19.4371 64.1347L17.3994 45.8307L14.7778 32.0071C14.8428 28.0227 18.1041 24.8014 22.1034 24.8014C23.3337 24.8014 24.5487 25.1127 25.6184 25.7011C27.9707 26.9954 30.6698 26.9954 33.0221 25.7011C34.0911 25.1124 35.3061 24.8014 36.5364 24.8014C39.2907 24.8014 41.6664 26.3471 42.9177 28.6001C40.8837 28.6111 38.8531 29.3867 37.3047 30.9357C36.7841 31.4564 36.7841 32.3004 37.3047 32.8211C37.8254 33.3417 38.6694 33.3417 39.1901 32.8211C40.4401 31.5711 42.1591 31.0881 43.7841 31.3404C43.8084 31.5634 43.8581 31.7787 43.8617 32.0074L42.0971 41.3127C41.4761 42.1224 41.1227 43.0974 41.1227 44.1351C41.1227 44.5784 41.2047 45.0051 41.3237 45.4197C41.3217 45.4287 41.3154 45.4351 41.3137 45.4444L41.2887 45.6667C39.2351 47.0581 36.2661 46.8681 34.4761 45.0781C32.3967 42.9987 32.3967 39.6151 34.4761 37.5357C34.9967 37.0151 34.9967 36.1711 34.4761 35.6504C33.9554 35.1297 33.1114 35.1297 32.5908 35.6504C29.4718 38.7694 29.4718 43.8444 32.5908 46.9634C34.1501 48.5234 36.1987 49.3034 38.2477 49.3034C39.1594 49.3034 40.0651 49.1237 40.9334 48.8151L39.2031 64.1347ZM47.2031 45.5487C46.4491 46.3041 45.1308 46.3047 44.3758 45.5481C43.9981 45.1711 43.7897 44.6684 43.7897 44.1347C43.7897 43.6011 43.9981 43.0984 44.3764 42.7207C44.7534 42.3431 45.2561 42.1347 45.7897 42.1347C46.3234 42.1347 46.8261 42.3431 47.2031 42.7207C47.2037 42.7207 47.2037 42.7207 47.2037 42.7214C47.5814 43.0984 47.7897 43.6011 47.7897 44.1347C47.7897 44.6684 47.5814 45.1711 47.2031 45.5487V45.5487ZM84.4451 72.4191C83.4047 73.4581 81.7127 73.4581 80.6737 72.4191L60.8744 52.6197L64.6457 48.8484L84.4451 68.6477C85.4844 69.6874 85.4844 71.3787 84.4451 72.4191Z" fill="#2B2A29"/>
</svg>
