<svg width="100" height="101" viewBox="0 0 100 101" fill="none" xmlns="http://www.w3.org/2000/svg">
<path d="M24.6667 9.83673C18.785 9.83673 14 14.6217 14 20.5034C14 25.9324 18.08 30.4181 23.3333 31.0774V39.8367H20.6667C19.9297 39.8367 19.3333 40.4337 19.3333 41.1701V85.1701C19.3333 88.1107 21.7253 90.5034 24.6667 90.5034C27.608 90.5034 30 88.1107 30 85.1701V41.1701C30 40.4337 29.4037 39.8367 28.6667 39.8367H26V31.0774C31.2533 30.4181 35.3333 25.9324 35.3333 20.5034C35.3333 14.6217 30.5483 9.83673 24.6667 9.83673V9.83673ZM27.3333 85.1701C27.3333 86.6407 26.1367 87.8367 24.6667 87.8367C23.1967 87.8367 22 86.6407 22 85.1701V42.5034H27.3333V85.1701ZM24.6667 28.5034C20.2553 28.5034 16.6667 24.9147 16.6667 20.5034C16.6667 16.0921 20.2553 12.5034 24.6667 12.5034C29.078 12.5034 32.6667 16.0921 32.6667 20.5034C32.6667 24.9147 29.078 28.5034 24.6667 28.5034Z" fill="#2B2A29"/>
<path d="M28.6663 21.1701C28.6663 22.6408 27.4696 23.8368 25.9996 23.8368C25.2626 23.8368 24.6663 24.4338 24.6663 25.1701C24.6663 25.9065 25.2626 26.5035 25.9996 26.5035C28.9409 26.5035 31.3329 24.1108 31.3329 21.1701C31.3329 20.4338 30.7366 19.8368 29.9996 19.8368C29.2626 19.8368 28.6663 20.4338 28.6663 21.1701Z" fill="#2B2A29"/>
<path d="M84.6667 39.8367H82V15.8367C82 15.3307 81.7137 14.8687 81.2604 14.6434C80.8097 14.4174 80.2657 14.4677 79.8634 14.773L74.53 18.7997C73.9427 19.243 73.8257 20.079 74.2697 20.667C74.7124 21.2544 75.5484 21.37 76.137 20.9274L79.3337 18.514V39.8367H76.667C75.93 39.8367 75.3337 40.4337 75.3337 41.17V85.17C75.3337 88.1107 77.7257 90.5034 80.667 90.5034C83.6084 90.5034 86.0004 88.1107 86.0004 85.17V41.17C86 40.4337 85.4037 39.8367 84.6667 39.8367V39.8367ZM83.3334 85.17C83.3334 86.6407 82.1367 87.8367 80.6667 87.8367C79.1967 87.8367 78 86.6407 78 85.17V42.5034H83.3334V85.17Z" fill="#2B2A29"/>
<path d="M64.6669 54.5034H62.0002V46.5034C62.0002 44.2677 61.0392 42.156 59.4472 40.6617C62.4899 39.5287 64.6669 36.6027 64.6669 33.17C64.6669 28.7587 61.0782 25.17 56.6669 25.17C55.9299 25.17 55.3335 25.767 55.3335 26.5034C55.3335 27.2397 55.9299 27.8367 56.6669 27.8367C59.6082 27.8367 62.0002 30.2294 62.0002 33.17C62.0002 35.83 60.0375 38.0224 57.4869 38.4204C56.7182 36.8957 55.1542 35.8367 53.3335 35.8367C51.5129 35.8367 49.9489 36.8957 49.1802 38.4204C46.6295 38.0224 44.6669 35.83 44.6669 33.17C44.6669 30.2294 47.0589 27.8367 50.0002 27.8367C50.7372 27.8367 51.3335 27.2397 51.3335 26.5034C51.3335 25.767 50.7372 25.17 50.0002 25.17C45.5889 25.17 42.0002 28.7587 42.0002 33.17C42.0002 36.601 44.1752 39.526 47.2155 40.66C45.6149 42.1544 44.6669 44.2567 44.6669 46.5034V54.5034H42.0002C41.2632 54.5034 40.6669 55.1004 40.6669 55.8367V85.17C40.6669 88.1107 43.0589 90.5034 46.0002 90.5034C48.9415 90.5034 51.3335 88.1107 51.3335 85.17V55.8367C51.3335 55.1004 50.7372 54.5034 50.0002 54.5034H47.3335V46.5034C47.3335 44.957 48.0105 43.5164 49.1415 42.5154C49.8962 44.0797 51.4839 45.17 53.3335 45.17C55.1872 45.17 56.7785 44.075 57.5312 42.5054C58.6652 43.501 59.3335 44.937 59.3335 46.5034V54.5034H56.6669C55.9299 54.5034 55.3335 55.1004 55.3335 55.8367V85.17C55.3335 88.1107 57.7255 90.5034 60.6669 90.5034C63.6082 90.5034 66.0002 88.1107 66.0002 85.17V55.8367C66.0002 55.1004 65.4039 54.5034 64.6669 54.5034V54.5034ZM48.6669 85.17C48.6669 86.6407 47.4702 87.8367 46.0002 87.8367C44.5302 87.8367 43.3335 86.6407 43.3335 85.17V57.17H48.6669V85.17ZM53.3335 42.5034C52.2305 42.5034 51.3335 41.6064 51.3335 40.5034C51.3335 39.4004 52.2305 38.5034 53.3335 38.5034C54.4365 38.5034 55.3335 39.4004 55.3335 40.5034C55.3335 41.6064 54.4365 42.5034 53.3335 42.5034ZM63.3335 85.17C63.3335 86.6407 62.1369 87.8367 60.6669 87.8367C59.1969 87.8367 58.0002 86.6407 58.0002 85.17V57.17H63.3335V85.17Z" fill="#2B2A29"/>
</svg>
