<svg width="100" height="101" viewBox="0 0 100 101" fill="none" xmlns="http://www.w3.org/2000/svg">
<path d="M55.0016 17.2381C55.789 17.2381 56.4273 16.5998 56.4273 15.8128C56.4273 15.0258 55.789 14.3871 55.0016 14.3871C54.2143 14.3871 53.5763 15.0254 53.5763 15.8128C53.5763 16.6001 54.2146 17.2381 55.0016 17.2381V17.2381Z" fill="#2B2A29"/>
<path d="M78.6673 18.1701C79.4043 18.1701 80.0007 17.5731 80.0007 16.8367V14.1701C80.0007 13.4337 79.4043 12.8367 78.6673 12.8367C77.9303 12.8367 77.334 13.4337 77.334 14.1701V16.8367C77.334 17.5731 77.9303 18.1701 78.6673 18.1701Z" fill="#2B2A29"/>
<path d="M78.6673 20.8367C77.9303 20.8367 77.334 21.4337 77.334 22.1701V24.8367C77.334 25.5731 77.9303 26.1701 78.6673 26.1701C79.4043 26.1701 80.0007 25.5731 80.0007 24.8367V22.1701C80.0007 21.4337 79.4043 20.8367 78.6673 20.8367Z" fill="#2B2A29"/>
<path d="M76 18.1701H73.3333C72.5963 18.1701 72 18.7671 72 19.5034C72 20.2398 72.5963 20.8368 73.3333 20.8368H76C76.737 20.8368 77.3333 20.2398 77.3333 19.5034C77.3333 18.7671 76.737 18.1701 76 18.1701Z" fill="#2B2A29"/>
<path d="M84.0007 18.1701H81.3341C80.5971 18.1701 80.0007 18.7671 80.0007 19.5034C80.0007 20.2398 80.5971 20.8368 81.3341 20.8368H84.0007C84.7377 20.8368 85.3341 20.2398 85.3341 19.5034C85.3341 18.7671 84.7377 18.1701 84.0007 18.1701Z" fill="#2B2A29"/>
<path d="M72.0003 28.8367H16.0003C15.264 28.8367 14.667 29.4337 14.667 30.1701V86.1701C14.667 86.5237 14.8077 86.8627 15.0577 87.1127C15.3077 87.3627 15.6467 87.5034 16.0003 87.5034L72.0003 87.5021C72.7373 87.5021 73.3337 86.9051 73.3337 86.1687V75.3027V46.7761V30.1701C73.3337 29.4337 72.7373 28.8367 72.0003 28.8367V28.8367ZM47.7687 63.7344C46.7633 62.7254 45.4247 62.1701 44.0003 62.1701C42.576 62.1701 41.238 62.7254 40.232 63.7337C39.226 64.7421 38.674 66.0827 38.678 67.5071L38.6923 72.4791C38.6943 73.0604 38.4177 73.5794 37.9347 73.9024C37.71 74.0501 37.4783 74.0054 37.324 73.9407C37.1033 73.8491 36.843 73.6264 36.7747 73.2801C36.6947 72.8661 36.6047 72.3231 36.5143 71.7254C36.1213 69.1321 35.514 66.5631 34.7123 64.0544C35.936 61.8857 37.5443 59.9331 39.4207 58.4007C42.118 56.1991 45.885 56.1991 48.5803 58.4007C50.4573 59.9324 52.0653 61.8861 53.2893 64.0554C52.488 66.5624 51.8807 69.1314 51.4877 71.7257C51.3967 72.3214 51.308 72.8637 51.226 73.2791C51.1583 73.6274 50.898 73.8494 50.6767 73.9411C50.5217 74.0061 50.2913 74.0524 50.0673 73.9027C49.583 73.5797 49.307 73.0617 49.3097 72.4791L49.3227 67.5077C49.326 66.0827 48.775 64.7431 47.7687 63.7344V63.7344ZM64.481 58.1714H58.1863C59.139 55.1281 59.1523 53.9101 59.0407 53.2464C58.3663 49.2404 55.0757 46.0447 51.042 45.4744C50.8883 45.4524 50.7153 45.4361 50.5367 45.4267C49.2087 45.3517 47.801 45.6631 46.3337 46.3401H46.3323C44.7647 47.0641 43.236 47.0627 41.6683 46.3401C40.1977 45.6624 38.785 45.3517 37.4667 45.4267C37.2843 45.4357 37.113 45.4521 36.9627 45.4737C32.9257 46.0447 29.6353 49.2407 28.9607 53.2457C28.8487 53.9101 28.862 55.1281 29.8147 58.1714H23.5197C24.4723 55.1281 24.4857 53.9101 24.374 53.2464C23.76 49.6024 20.9067 46.6021 17.3337 45.6924V38.1701H70.667V45.6911C67.0817 46.5974 64.246 49.5671 63.6267 53.2457C63.515 53.9097 63.5283 55.1281 64.481 58.1714V58.1714ZM50.2673 56.3354C46.5773 53.3211 41.4223 53.3224 37.734 56.3354C36.1653 57.6157 34.769 59.1601 33.58 60.8587C31.482 55.3147 31.5517 53.9157 31.59 53.6891C32.0737 50.8167 34.4363 48.5237 37.34 48.1134C37.42 48.1017 37.5093 48.0944 37.6077 48.0894C37.6883 48.0847 37.769 48.0827 37.851 48.0827C38.676 48.0827 39.5627 48.3061 40.5517 48.7617C42.8387 49.8164 45.1617 49.8164 47.448 48.7617C48.5367 48.2611 49.5053 48.0514 50.396 48.0891C50.491 48.0944 50.581 48.1014 50.6657 48.1137C53.564 48.5234 55.9273 50.8161 56.4103 53.6894C56.4483 53.9154 56.5177 55.3144 54.4203 60.8587C53.2313 59.1601 51.835 57.6157 50.2673 56.3354ZM17.3337 48.4574C19.5937 49.2841 21.3413 51.2987 21.7443 53.6897C21.7833 53.9221 21.8627 55.3831 19.5737 61.3367C18.6257 63.8014 17.878 66.3424 17.3333 68.9187V48.4574H17.3337ZM66.257 53.6891C66.6593 51.2984 68.3637 49.3094 70.667 48.4671V68.8987C70.1227 66.3271 69.3727 63.7934 68.4273 61.3367C66.1383 55.3831 66.2177 53.9221 66.257 53.6891ZM70.667 31.5034V35.5034H17.3337V31.5034H70.667ZM17.3337 84.8354V76.2194C18.2743 75.7214 18.969 74.8497 19.1767 73.7894C19.2633 73.3467 19.3597 72.7647 19.4567 72.1254C19.9637 68.7784 20.8407 65.4711 22.0627 62.2941C22.2617 61.7764 22.4393 61.2984 22.6077 60.8384H30.727C30.8953 61.2987 31.0727 61.7764 31.272 62.2941C32.4933 65.4697 33.3703 68.7777 33.8773 72.1254C33.9743 72.7647 34.0707 73.3467 34.1573 73.7907C34.387 74.9641 35.188 75.9404 36.3 76.4034C37.354 76.8414 38.4893 76.7394 39.416 76.1201C40.6373 75.3037 41.364 73.9397 41.3587 72.4717L41.3443 67.5004C41.343 66.7894 41.619 66.1207 42.1203 65.6177C43.1257 64.6111 44.8757 64.6111 45.8807 65.6177C46.382 66.1211 46.658 66.7897 46.6553 67.5004L46.6423 72.4711C46.637 73.9397 47.3637 75.3044 48.585 76.1201C49.132 76.4861 49.753 76.6714 50.387 76.6714C50.8243 76.6714 51.2697 76.5821 51.6997 76.4031C52.8117 75.9407 53.6137 74.9644 53.843 73.7931C53.9303 73.3491 54.0267 72.7664 54.123 72.1251C54.632 68.7747 55.5083 65.4667 56.7297 62.2937C56.9287 61.7761 57.1063 61.2981 57.2747 60.8381H65.3933C65.5613 61.2984 65.739 61.7761 65.9383 62.2937C67.1597 65.4671 68.036 68.7747 68.545 72.1251C68.6413 72.7664 68.7377 73.3491 68.825 73.7897C69.035 74.8671 69.73 75.7574 70.6673 76.2481V84.8367L17.3337 84.8354Z" fill="#2B2A29"/>
</svg>
