<svg width="60" height="60" viewBox="0 0 60 60" fill="none" xmlns="http://www.w3.org/2000/svg">
<path d="M30.0242 60C29.2738 60 28.5234 59.9373 27.7855 59.7994C24.3963 59.21 21.4448 57.3166 19.4688 54.4953C17.4928 51.674 16.7299 48.2508 17.3177 44.8527L17.3553 44.6646L7.56279 34.8464C7.2001 34.4828 7 33.9937 7 33.4796C7 32.9655 7.2001 32.4765 7.56279 32.1129L10.8645 28.8025C11.2271 28.4389 11.7149 28.2382 12.2277 28.2382C12.7404 28.2382 13.2282 28.4389 13.5908 28.8025L14.1661 29.3668L14.4288 29.0533C15.8295 27.3981 16.6049 25.279 16.5924 23.1097V21.4796C16.5924 20.3887 17.0301 19.3229 17.8055 18.5455L23.0206 13.3166L22.4829 12.7774C21.6199 11.9122 21.4323 10.6082 21.9951 9.52978L22.1202 9.279L17.1176 4.26332L16.8675 4.41379C16.4423 4.66458 15.967 4.80251 15.4668 4.80251C14.7414 4.80251 14.0536 4.51411 13.5408 4C13.0281 3.48589 12.7404 2.77116 12.7529 2.04389C12.7654 1.30408 13.0531 0.61442 13.5783 0.100313L13.5908 0.0877743C13.6659 0.0376176 13.7534 0 13.8535 0C13.9535 0 14.0536 0.0376175 14.1161 0.112853C14.2662 0.263323 14.2537 0.501567 14.1036 0.639498C13.7159 1.02821 13.5033 1.52978 13.4908 2.06897C13.4783 2.59561 13.6784 3.10972 14.0536 3.48589C14.4288 3.84953 14.929 4.0627 15.4543 4.0627C15.9796 4.0627 16.4673 3.86207 16.8425 3.49843C16.9175 3.4232 17.0176 3.38558 17.1176 3.38558C17.2177 3.38558 17.3177 3.4232 17.3803 3.49843L22.6079 8.73981L22.8705 8.56426C23.3333 8.25078 23.8585 8.08777 24.4213 8.08777C25.1592 8.08777 25.8471 8.37618 26.3723 8.89028L31.8626 14.395L34.2013 12.0376C34.689 11.5486 35.3269 11.2853 36.0022 11.2853C37.4154 11.2853 38.5535 12.4389 38.5535 13.8433C38.5535 13.9185 38.5535 13.9937 38.541 14.069L38.5035 14.4828L38.9662 14.4702C39.454 14.4702 39.9167 14.6082 40.3294 14.8589C41.5175 15.6113 41.8802 17.1912 41.1298 18.395L40.8547 18.8339L41.3549 18.9592C41.4925 18.9969 41.6426 19.047 41.7676 19.1097C43.0558 19.6865 43.6311 21.2038 43.0558 22.4953L42.8682 22.9216L43.3309 23.0094C43.6811 23.0846 44.0063 23.2226 44.3064 23.4357C45.457 24.2508 45.7196 25.8558 44.9067 27.0094L44.7191 27.2727L47.1454 29.7179C48.0583 30.6332 48.2084 32.0251 47.5331 33.1285L47.3705 33.3793L52.348 38.3699L55.5871 38.395C55.7872 38.395 55.9623 38.558 55.9623 38.7712L55.9748 42.1442C55.9748 42.3574 55.8123 42.5204 55.5996 42.5204C55.387 42.5204 55.2245 42.3574 55.2245 42.1442L55.2119 39.1473L52.1854 39.1348C52.0854 39.1348 51.9978 39.0972 51.9228 39.0219L46.8327 33.9185L46.5826 34.069C46.1574 34.3198 45.6821 34.4451 45.1944 34.4451C44.4565 34.4451 43.7686 34.1567 43.2434 33.6426L40.8046 31.1975L36.2273 35.7868L36.64 36.0376C38.8787 37.3918 40.6296 39.3605 41.7176 41.7429C42.8057 44.1254 43.1308 46.7461 42.6806 49.3292C41.6176 55.4984 36.2899 60 30.0242 60ZM30.0117 34.9216C23.3208 34.9216 17.8805 40.3762 17.8805 47.0846C17.8805 53.7931 23.3208 59.2477 30.0117 59.2477C36.7026 59.2477 42.1428 53.7931 42.1428 47.0846V47.0721C42.1303 40.3636 36.7026 34.9216 30.0117 34.9216ZM12.2277 28.9906C11.915 28.9906 11.6148 29.116 11.3897 29.3417L8.10056 32.6395C7.87544 32.8652 7.75038 33.1661 7.75038 33.4796C7.75038 33.7931 7.87544 34.094 8.10056 34.3198L17.5428 43.7868L17.7304 43.1975C18.3683 41.1787 19.5063 39.3229 21.0196 37.8433L21.2947 37.5799L13.0781 29.3417C12.8405 29.1034 12.5528 28.9906 12.2277 28.9906ZM18.3433 19.0846C17.7054 19.7116 17.3553 20.5893 17.3553 21.4796V23.1097C17.3553 25.5047 16.5048 27.8245 14.929 29.6301L14.7039 29.8934L21.87 37.0784L22.1327 36.8777C24.3838 35.1223 27.1852 34.1693 30.0242 34.1693C31.8626 34.1693 33.6385 34.558 35.3144 35.3103L35.552 35.4232L44.1188 26.8339C44.8067 26.1317 44.8067 24.9906 44.1188 24.2884C43.7812 23.9373 43.3184 23.7492 42.8307 23.7492C42.3554 23.7492 41.9052 23.9373 41.5675 24.2759L38.7036 27.1473C38.6285 27.2226 38.5285 27.2602 38.4284 27.2602C38.3284 27.2602 38.2283 27.2226 38.1658 27.1473C38.0908 27.0721 38.0532 26.9843 38.0532 26.884C38.0532 26.7837 38.0908 26.6834 38.1658 26.6207L42.0178 22.7586C42.7056 22.0564 42.7056 20.9154 42.0178 20.2132C41.6801 19.8621 41.2174 19.674 40.7296 19.674C40.2544 19.674 39.8041 19.8621 39.4665 20.2006L35.6145 24.0627C35.5395 24.1379 35.4394 24.1756 35.3394 24.1756C35.2393 24.1756 35.1393 24.1379 35.0767 24.0627C35.0017 23.9875 34.9642 23.8997 34.9642 23.7994C34.9642 23.6991 35.0017 23.5987 35.0767 23.5361L40.2544 18.3448C40.9422 17.6301 40.9422 16.5266 40.2544 15.8245C39.9167 15.4734 39.454 15.2727 38.9662 15.2727C38.491 15.2727 38.0407 15.4608 37.7031 15.7868L32.5129 20.9906C32.4379 21.0533 32.3504 21.1034 32.2503 21.1034C32.1503 21.1034 32.0502 21.0658 31.9877 20.9906C31.8376 20.8401 31.8501 20.6019 32.0002 20.464L37.2904 15.1599C37.9782 14.4577 37.9782 13.3166 37.2904 12.6144C36.9527 12.2633 36.49 12.0752 36.0022 12.0752C35.527 12.0752 35.0767 12.2633 34.7391 12.6019L27.8106 19.5361C27.748 19.5987 27.6855 19.6614 27.6105 19.7241C26.6475 20.6019 25.3968 21.0909 24.0837 21.0909C23.2708 21.0909 22.4829 20.9154 21.7325 20.5517L21.6699 20.5266C21.4823 20.4389 21.4073 20.2132 21.4949 20.0251C21.5574 19.8997 21.695 19.8119 21.8325 19.8119C21.8825 19.8119 21.9451 19.8245 21.9951 19.8495L22.0576 19.8746C22.683 20.1756 23.3833 20.326 24.0712 20.326C25.2217 20.326 26.2973 19.9122 27.1102 19.1724C27.1727 19.1223 27.2228 19.0596 27.2853 19.0094L27.9731 18.3198L23.5584 13.8934L18.3433 19.0846ZM41.3549 30.6458L43.7937 33.0909C44.1688 33.4671 44.6691 33.6803 45.2069 33.6803C45.7446 33.6803 46.2449 33.4671 46.6201 33.0909C47.3955 32.3135 47.3955 31.0345 46.6201 30.2571L44.1814 27.8119L41.3549 30.6458ZM24.4213 8.82759C23.8836 8.82759 23.3833 9.04075 23.0081 9.41693C22.2327 10.1944 22.2327 11.4734 23.0081 12.2508L28.4984 17.7555L31.3248 14.9216L25.8346 9.41693C25.4594 9.04075 24.9591 8.82759 24.4213 8.82759Z" fill="#2B2A29"/>
<path d="M27.673 54.4828C27.573 54.4828 27.4729 54.4702 27.3728 54.4326H27.3603C27.2353 54.395 27.1102 54.3198 27.0102 54.2194C25.4844 52.6395 25.5844 49.605 25.6595 48.7147C25.672 48.6019 25.672 48.5016 25.6845 48.4138V48.3762C25.7345 47.7492 25.7595 47.4734 25.6345 47.2727C25.4844 47.0345 25.0592 46.7712 24.3213 46.3825C23.0707 45.7179 22.5204 43.8746 23.0582 42.1944C23.2833 41.442 23.771 40.79 24.4088 40.3511C24.9716 39.9749 25.647 39.7868 26.4099 39.7868C26.635 39.7868 26.8601 39.7994 27.0977 39.837C27.9982 39.9624 29.0362 40.5643 29.724 40.953L30.0117 41.116L30.1868 41.0282C30.4494 40.9028 30.712 40.7524 30.9622 40.5893C31.4499 40.2633 31.9627 40.0251 32.5255 39.8872C32.9882 39.7618 33.4384 39.6991 33.8511 39.6991C34.4014 39.6991 34.9017 39.8119 35.3519 40.0376C36.0522 40.4013 36.59 41.0157 36.8652 41.768C37.478 43.3354 37.1278 45.6301 35.7271 46.3825C34.9892 46.7712 34.564 47.0345 34.4139 47.2727C34.2889 47.4734 34.3139 47.7618 34.3639 48.3887C34.3764 48.5016 34.3764 48.6144 34.3889 48.7273C34.4514 49.6176 34.564 52.652 33.0257 54.232C32.9382 54.3198 32.8131 54.395 32.688 54.4326H32.6755C32.5755 54.4702 32.4754 54.4828 32.3754 54.4828C32.3254 54.4828 32.2878 54.4828 32.2378 54.4702C31.7626 54.395 31.4249 53.9436 31.5124 53.4546V53.442V53.4295C31.55 53.0533 31.8001 49.6677 30.3744 47.8746L30.3369 47.8245L30.2743 47.7868C30.1993 47.7492 30.1242 47.7241 30.0492 47.7241C29.9742 47.7241 29.8866 47.7492 29.8241 47.7868L29.7616 47.8245L29.724 47.8746C28.2733 49.6552 28.5234 53.0533 28.5609 53.4295V53.442V53.4546C28.586 53.605 28.5735 53.7555 28.5234 53.8934C28.3734 54.2445 28.0357 54.4828 27.673 54.4828ZM30.0242 46.9718C30.3869 46.9718 30.712 47.1348 30.9372 47.4107C32.2253 49.0282 32.3003 51.7116 32.2753 52.79C32.2753 52.79 32.1128 53.6677 32.3379 53.743C32.5755 53.8182 32.9757 52.9781 32.9757 52.9781C33.501 51.9749 33.7386 50.4075 33.6135 48.7649C33.601 48.6395 33.601 48.5267 33.5885 48.4263C33.526 47.7367 33.4884 47.2727 33.7511 46.8589C33.9887 46.4702 34.4389 46.1818 35.3519 45.6928C36.3024 45.1787 36.6901 43.3981 36.1523 42.0314C35.7396 41.0031 34.9142 40.4263 33.8261 40.4263C33.4759 40.4263 33.1008 40.4765 32.7005 40.5893C32.3879 40.6771 32.0752 40.79 31.7751 40.953L30.562 41.4922L31.9877 41.6552C32.0502 41.6552 32.1002 41.6426 32.1503 41.6301C32.1753 41.6301 32.2003 41.6301 32.2128 41.6301C32.3879 41.6301 32.538 41.7555 32.5755 41.931C32.613 42.1317 32.4879 42.3323 32.2878 42.3699C32.1253 42.395 31.9627 42.4201 31.7876 42.4201C31.0122 42.4201 30.2868 42.094 29.7991 41.8558C29.674 41.7931 29.4989 41.6928 29.2988 41.5799C28.6985 41.2288 27.698 40.652 26.9476 40.5517C26.7475 40.5267 26.5474 40.5141 26.3723 40.5141C25.0717 40.5141 24.1087 41.2038 23.7335 42.395C23.3208 43.6991 23.7335 45.2163 24.634 45.6928C25.5469 46.1818 25.9972 46.4577 26.2348 46.8589C26.4974 47.2853 26.4599 47.7367 26.3974 48.4263V48.464C26.3848 48.5517 26.3848 48.652 26.3723 48.7649C26.2473 50.4075 26.4849 51.9749 27.0102 52.9781C27.0102 52.9781 27.3603 53.8057 27.598 53.743C27.8231 53.6803 27.7105 52.79 27.7105 52.79C27.6855 51.7116 27.7605 49.0031 29.0862 47.3981C29.1362 47.3354 29.1863 47.2853 29.2488 47.2351C29.4989 47.0721 29.7491 46.9718 30.0242 46.9718Z" fill="#2B2A29"/>
</svg>
