<svg width="60" height="60" viewBox="0 0 60 60" fill="none" xmlns="http://www.w3.org/2000/svg">
<g clip-path="url(#clip0)">
<path d="M30.3846 13.9256C30.2324 13.9256 30.1055 13.8491 30.0421 13.7088L27.9997 9.56431L23.4454 8.90118C23.3059 8.87568 23.179 8.78641 23.1409 8.64613C23.0902 8.50586 23.1283 8.35283 23.2424 8.25081L26.5408 5.02445L25.7669 0.459098C25.7543 0.382583 25.7669 0.293317 25.805 0.216802C25.8684 0.0892783 25.9953 0.012764 26.1475 0.012764C26.211 0.012764 26.2744 0.0255164 26.3251 0.0510212L30.3973 2.20618L34.4695 0.0510212C34.5203 0.0255164 34.5837 0.012764 34.6471 0.012764C34.6725 0.012764 34.6852 0.012764 34.7105 0.012764C34.9135 0.0510212 35.0531 0.242307 35.015 0.459098L34.2412 5.02445L37.5395 8.25081C37.6029 8.31457 37.641 8.39109 37.6537 8.4676C37.6791 8.67164 37.5395 8.87568 37.3365 8.90118L32.7569 9.56431L30.7145 13.7216C30.6764 13.7981 30.613 13.8619 30.5369 13.9001C30.4988 13.9129 30.4354 13.9256 30.3846 13.9256ZM27.3146 5.07546C27.34 5.20299 27.2893 5.33051 27.2005 5.41978L24.3081 8.25081L28.3041 8.83742C28.431 8.85017 28.5325 8.93944 28.5959 9.04146L30.3846 12.6759L32.1734 9.04146C32.2241 8.92669 32.3383 8.85017 32.4651 8.83742L36.4612 8.25081L33.5688 5.41978C33.48 5.33051 33.442 5.20299 33.4546 5.07546L34.1397 1.08396L30.5749 2.97132C30.5242 2.99682 30.4607 3.00958 30.3973 3.00958C30.3339 3.00958 30.2705 2.99682 30.2197 2.97132L26.6296 1.08396L27.3146 5.07546Z" fill="#2B2A29"/>
<path d="M12.269 20.9267C12.1168 20.9267 11.9899 20.8502 11.9265 20.7099L9.88407 16.5526L5.32981 15.8895C5.19027 15.864 5.06341 15.7747 5.02535 15.6344C4.9746 15.4942 5.01266 15.3411 5.12684 15.2391L8.42519 12.0128L7.65134 7.4474C7.63866 7.37089 7.65134 7.28162 7.6894 7.20511C7.75283 7.07758 7.87969 7.00107 8.03192 7.00107C8.09535 7.00107 8.15878 7.01382 8.20953 7.03933L12.2817 9.19448L16.3539 7.03933C16.4047 7.01382 16.4681 7.00107 16.5315 7.00107C16.5569 7.00107 16.5696 7.00107 16.5949 7.00107C16.7979 7.03933 16.9375 7.23061 16.8994 7.4474L16.1256 12.0128L19.4239 15.2391C19.4873 15.3029 19.5254 15.3794 19.5381 15.4559C19.5508 15.5579 19.5254 15.6599 19.462 15.7365C19.3985 15.813 19.3097 15.8767 19.2083 15.8895L14.6413 16.5526L12.5989 20.7099C12.5608 20.7864 12.4974 20.8502 12.4213 20.8884C12.3832 20.9139 12.3198 20.9267 12.269 20.9267ZM9.19903 12.0765C9.2244 12.204 9.17366 12.3316 9.08486 12.4208L6.19246 15.2519L10.1885 15.8385C10.3154 15.8512 10.4169 15.9405 10.4803 16.0425L12.269 19.6769L14.0578 16.0425C14.1085 15.9277 14.2227 15.8512 14.3495 15.8385L18.3456 15.2519L15.4405 12.4208C15.3517 12.3316 15.3137 12.204 15.3264 12.0765L16.0114 8.08502L12.434 9.97238C12.3832 9.99788 12.3198 10.0106 12.2563 10.0106C12.1929 10.0106 12.1295 9.99788 12.0787 9.97238L8.51399 8.08502L9.19903 12.0765Z" fill="#2B2A29"/>
<path d="M48.5001 20.9267C48.3479 20.9267 48.221 20.8502 48.1576 20.7099L46.1152 16.5526L41.5609 15.8895C41.4213 15.864 41.2945 15.7747 41.2564 15.6344C41.2057 15.4942 41.2437 15.3411 41.3579 15.2391L44.6563 12.0128L43.8824 7.4474C43.8697 7.37089 43.8824 7.28162 43.9205 7.20511C43.9839 7.07758 44.1108 7.00107 44.263 7.00107C44.3264 7.00107 44.3899 7.01382 44.4406 7.03933L48.5128 9.19448L52.585 7.03933C52.6357 7.01382 52.6992 7.00107 52.7626 7.00107C52.788 7.00107 52.8007 7.00107 52.826 7.00107C52.9275 7.01382 53.0163 7.07758 53.0671 7.1541C53.1305 7.24336 53.1432 7.33263 53.1305 7.43465L52.3567 12L55.655 15.2264C55.7184 15.2901 55.7565 15.3666 55.7692 15.4432C55.7819 15.5452 55.7565 15.6472 55.6931 15.7237C55.6296 15.8002 55.5408 15.864 55.4393 15.8767L50.8851 16.5399L48.8426 20.6971C48.8046 20.7737 48.7412 20.8374 48.665 20.8757C48.6143 20.9139 48.5635 20.9267 48.5001 20.9267ZM45.4428 12.0765C45.4682 12.204 45.4174 12.3316 45.3286 12.4208L42.4362 15.2519L46.4323 15.8385C46.5592 15.8512 46.6607 15.9405 46.7241 16.0425L48.5128 19.6769L50.3015 16.0425C50.3523 15.9277 50.4664 15.8512 50.5933 15.8385L54.5894 15.2519L51.6843 12.4208C51.5955 12.3316 51.5574 12.204 51.5701 12.0765L52.2552 8.08502L48.6777 9.97238C48.627 9.99788 48.5635 10.0106 48.5001 10.0106C48.4367 10.0106 48.3733 9.99788 48.3225 9.97238L44.7578 8.08502L45.4428 12.0765Z" fill="#2B2A29"/>
<path d="M23.864 60C23.3819 60 22.9252 59.8087 22.5827 59.4644C18.612 55.3454 18.8911 47.3241 19.0687 44.9777C19.0941 44.6716 19.1194 44.3783 19.1448 44.0978V44.034C19.297 42.1849 19.3478 41.3433 18.9038 40.6291C18.4217 39.8385 17.2927 39.1498 15.098 37.9766C12.0407 36.3443 10.6452 31.5749 11.9899 27.3411C13.2205 23.4644 16.3285 21.2455 20.5149 21.2455C21.0731 21.2455 21.6566 21.2838 22.2402 21.3603C24.5617 21.6663 27.3146 23.2731 29.1413 24.3316C29.4585 24.5101 29.7756 24.7014 30.042 24.8417L30.207 24.9309L30.3846 24.8417C30.3973 24.8417 30.4099 24.8289 30.4226 24.8289C31.3741 24.4208 32.3002 23.9235 33.1755 23.3496C34.2665 22.6738 35.294 22.0234 37.2604 21.4878C38.4655 21.1562 39.6073 20.9904 40.6602 20.9904C42.0557 20.9904 43.3369 21.2838 44.4533 21.8449C46.1659 22.712 47.4853 24.2296 48.2718 26.2189C49.0964 28.3741 49.2613 30.7205 48.7665 32.9777C48.2464 35.3241 47.0666 37.084 45.4555 37.9384C43.2608 39.1116 42.1318 39.8002 41.6497 40.5909C41.2057 41.305 41.2564 42.1594 41.4087 43.9958C41.434 44.2891 41.4594 44.5951 41.4848 44.9267C41.6624 47.2859 41.9415 55.2816 37.9708 59.4134C37.7678 59.5919 37.5268 59.7322 37.273 59.8087H37.2604C37.0701 59.8725 36.8671 59.9107 36.6641 59.9107H36.6388C36.5373 59.9107 36.4358 59.898 36.3343 59.8852C35.3955 59.7195 34.7612 58.8013 34.9261 57.8576V57.8449V57.8321C35.0784 55.9065 35.0784 53.9426 34.9135 52.017C34.6597 49.0712 33.8986 44.9904 31.7039 42.2359C31.6278 42.1467 31.5517 42.0701 31.4756 42.0064C31.1457 41.7258 30.7398 41.5728 30.3085 41.5728C29.7756 41.5728 29.2682 41.8023 28.9257 42.2104C26.6803 44.9649 25.9064 49.0457 25.64 51.9915C25.4751 53.9299 25.4624 55.8937 25.6273 57.8321V57.8449V57.8576C25.7288 58.4442 25.5385 59.0308 25.1199 59.4517C24.7774 59.8215 24.3334 60 23.864 60ZM30.2958 40.8459C31.0696 40.8459 31.7927 41.1902 32.2875 41.8023C36.7149 47.3624 35.7127 57.5643 35.6746 57.9979C35.6746 58.0106 35.6746 58.0234 35.6746 58.0234C35.6366 58.2147 35.6492 58.4187 35.7254 58.61C35.8776 58.9798 36.2328 59.2221 36.6388 59.2221C36.7656 59.2221 36.8798 59.1966 37.0066 59.1583C37.1208 59.1201 37.235 59.0691 37.3492 59.0053L37.3872 58.9798L37.4253 58.9416C40.3938 55.8427 41.0788 49.7343 40.7236 45.0542C40.6983 44.7226 40.6729 44.4166 40.6475 44.1233C40.4953 42.2487 40.4065 41.2157 41.0027 40.2466C41.5863 39.3029 42.7407 38.576 45.1003 37.3135C46.4957 36.5739 47.5614 34.9416 48.0308 32.8502C48.5001 30.746 48.3352 28.5654 47.5741 26.5505C46.3689 23.4899 43.8951 21.8066 40.6221 21.8066C39.6326 21.8066 38.567 21.9596 37.4633 22.2657C35.6112 22.7758 34.6724 23.3624 33.5814 24.0383C33.0613 24.3571 32.5412 24.6886 31.8688 25.033L31.1204 25.4155L31.9069 25.7216C33.1374 26.2062 34.2157 26.4485 35.2052 26.4485C35.5731 26.4485 35.941 26.4102 36.2962 26.3465C36.3216 26.3465 36.347 26.3337 36.3723 26.3337C36.5499 26.3337 36.7149 26.4612 36.7402 26.6398C36.7656 26.7418 36.7402 26.8438 36.6768 26.9331C36.6261 27.0223 36.5373 27.0733 36.4358 27.0988C36.0425 27.1754 35.6366 27.2136 35.2179 27.2136C33.2516 27.2136 31.3487 26.372 30.0928 25.7471C29.7503 25.5813 29.2809 25.3008 28.7861 25.0075C27.0101 23.9745 24.3334 22.4187 22.1641 22.1382C21.5932 22.0616 21.0223 22.0234 20.4895 22.0234C15.0853 22.0234 13.2712 25.9129 12.7384 27.5834C11.5205 31.4219 12.7765 35.8725 15.4786 37.3135C17.8382 38.576 18.9926 39.2901 19.5761 40.2338C20.1724 41.203 20.0836 42.2359 19.9313 44.1105C19.906 44.4038 19.8806 44.7099 19.8552 45.0415C19.5 49.7216 20.1724 55.83 23.1536 58.9288L23.1916 58.9671L23.2297 58.9926C23.3312 59.0563 23.4453 59.1073 23.5722 59.1456C23.6864 59.1966 23.8132 59.2094 23.9401 59.2094C24.0035 59.2094 24.0796 59.1966 24.1431 59.1839C24.6759 59.0691 25.0184 58.5462 24.9042 58.0106C24.9042 58.0106 24.9042 57.9979 24.9042 57.9851C24.8535 57.5516 23.8513 47.2986 28.3675 41.7641C28.469 41.6366 28.5832 41.5218 28.71 41.4198C29.1287 41.05 29.7122 40.8459 30.2958 40.8459Z" fill="#2B2A29"/>
</g>
<defs>
<clipPath id="clip0">
<rect width="60" height="60" fill="white"/>
</clipPath>
</defs>
</svg>
