<svg width="60" height="60" viewBox="0 0 60 60" fill="none" xmlns="http://www.w3.org/2000/svg">
<path d="M9.38973 60C9.16888 60 9 59.8304 9 59.6087V52.8783C9 52.3435 9.05196 51.8087 9.16888 51.287C9.19487 51.1957 9.20786 51.1043 9.23384 51.013C9.88339 48.6391 11.7021 46.7609 14.1055 45.9783L23.6669 42.8609V37.9696L23.472 37.8522C20.3022 35.9739 18.0937 32.8174 17.4052 29.1783V29.1652L16.7816 27.013L16.5868 26.9478C14.6901 26.3609 13.5728 24.3913 14.0405 22.4478C14.2744 21.4565 15.0278 20.6478 16.0022 20.3478L16.275 20.2696V13.8C16.262 6.18261 22.4327 0 30.0065 0C37.5803 0 43.751 6.19565 43.738 13.8V20.2696L44.0108 20.3609C44.9852 20.6609 45.7256 21.4696 45.9725 22.4609C46.4402 24.4043 45.3229 26.3739 43.4262 26.9609L43.2314 27.0261L42.6078 29.1783V29.1913C41.9193 32.8304 39.6978 35.987 36.528 37.8652L36.3331 37.9826V42.8739L45.8945 45.9913C48.2979 46.7739 50.1166 48.6522 50.7662 51.0261C50.7921 51.1174 50.8181 51.2087 50.8311 51.3C50.948 51.8217 51 52.3565 51 52.8913V59.6087C51 59.8304 50.8311 60 50.6103 60H9.38973ZM35.8525 43.6435C34.2546 44.4522 32.5527 44.9087 30.76 45.013L30.3962 45.0391V59.2174H50.2335V52.8783C50.2335 52.4087 50.1946 51.9261 50.0906 51.4696C50.0646 51.3783 50.0517 51.3 50.0257 51.2217C49.4541 49.1087 47.8172 47.4261 45.6607 46.7217L36.0084 43.5783L35.8525 43.6435ZM14.3523 46.7217C12.1958 47.4261 10.5719 49.1087 9.98732 51.2217C9.96134 51.3 9.94835 51.3913 9.92236 51.4696C9.81843 51.9391 9.76647 52.4087 9.76647 52.8913V59.2174H29.6038V45.0391L29.24 45.013C27.4603 44.9087 25.7454 44.4522 24.1475 43.6435L24.0046 43.5652L14.3523 46.7217ZM24.4463 42.9261L24.6672 43.0304C26.317 43.8391 28.1618 44.2565 29.9935 44.2565C31.8252 44.2565 33.67 43.8261 35.3198 43.0304L35.5407 42.9261V38.4L34.9951 38.6348C33.4101 39.313 31.7213 39.6522 29.9935 39.6522C28.2527 39.6522 26.5769 39.313 24.979 38.6348L24.4333 38.4V42.9261H24.4463ZM18.1977 29.2174C19.185 34.0565 22.9264 37.7478 27.772 38.6609C28.5125 38.8043 29.266 38.8696 30.0065 38.8696C35.7875 38.8696 40.7631 34.7217 41.8413 29.0087C41.8413 28.9957 41.8413 28.9826 41.8543 28.9696L42.0882 28.1478L33.3842 29.7652C32.2669 29.9739 31.1367 30.0783 30.0065 30.0783C28.8763 30.0783 27.7461 29.9739 26.6288 29.7652L17.9118 28.1478L18.1457 28.9696C18.1457 28.9826 18.1587 28.9957 18.1587 29.0087L18.1977 29.2174ZM16.314 21.0783C15.5475 21.2739 14.9629 21.8739 14.781 22.6435C14.729 22.8783 14.6901 23.113 14.7031 23.3478C14.7031 24.7957 15.7294 26.0348 17.1584 26.2826C17.3273 26.3087 17.4442 26.4391 17.4702 26.6087V26.6348L17.665 27.313L26.7587 29.0087C27.824 29.2043 28.9153 29.3087 29.9935 29.3087C31.0718 29.3087 32.163 29.2043 33.2283 29.0087L42.322 27.313L42.5169 26.6348V26.6087C42.5428 26.4391 42.6728 26.3087 42.8286 26.2826C42.8936 26.2696 42.9586 26.2565 43.0105 26.2435C43.777 26.0609 44.4265 25.5783 44.8423 24.9C45.258 24.2217 45.3749 23.413 45.193 22.6435C44.9981 21.8217 44.3226 21.1957 43.4912 21.0391L43.4262 21.0261L43.3613 21.0391C43.3483 21.0391 43.3353 21.0391 43.3093 21.0391H43.2703C42.9066 21.0391 34.3845 20.987 27.1485 16.5652L27.0575 16.513H19.8475L19.7306 19.2522C19.7176 19.5652 19.6397 19.8522 19.4968 20.1261C19.12 20.8696 18.3795 21.3391 17.5481 21.3391C17.2103 21.3391 16.8856 21.2609 16.5738 21.1043L16.4439 21.0391L16.314 21.0783ZM17.0414 20.5043L17.3792 20.5435C17.4182 20.5435 17.4442 20.5565 17.4831 20.5565C17.5091 20.5565 17.5351 20.5565 17.5481 20.5565C18.3016 20.5565 18.9122 19.9696 18.9511 19.213L19.068 16.513H17.0414V20.5043ZM30.1494 17.2565C35.2938 19.6304 40.5422 20.1261 42.5558 20.2304L42.9715 20.2565V18.7826L42.6208 18.7565C40.0486 18.5217 37.5933 17.7913 35.3328 16.5652L35.2419 16.513H30.3053H28.9023L30.1494 17.2565ZM39.0742 17.2696C40.2045 17.5957 41.3607 17.8304 42.5299 17.9478L42.9586 17.987V16.487H39.1782H37.0996L39.0742 17.2696ZM17.0414 15.7304H42.9586V13.8652H17.0414V15.7304ZM30.0065 0.782609C23.2512 0.795652 17.704 5.89565 17.0934 12.6522L17.0544 13.0826H42.9456L42.9066 12.6522C42.309 5.89565 36.7618 0.795652 30.0065 0.782609Z" fill="#2B2A29"/>
<path d="M33.9038 51.3913C33.3322 51.3913 32.8645 50.9218 32.8645 50.3478C32.8645 49.7739 33.3322 49.3044 33.9038 49.3044C34.4754 49.3044 34.9431 49.7739 34.9431 50.3478C34.9431 50.9218 34.4754 51.3913 33.9038 51.3913ZM33.9038 49.8261C33.618 49.8261 33.3841 50.0609 33.3841 50.3478C33.3841 50.6348 33.618 50.8696 33.9038 50.8696C34.1896 50.8696 34.4234 50.6348 34.4234 50.3478C34.4234 50.0609 34.1896 49.8261 33.9038 49.8261Z" fill="#2B2A29"/>
<path d="M33.9038 56.6087C33.3322 56.6087 32.8645 56.1392 32.8645 55.5653C32.8645 54.9913 33.3322 54.5218 33.9038 54.5218C34.4754 54.5218 34.9431 54.9913 34.9431 55.5653C34.9431 56.1392 34.4754 56.6087 33.9038 56.6087ZM33.9038 55.0435C33.618 55.0435 33.3841 55.2783 33.3841 55.5653C33.3841 55.8522 33.618 56.087 33.9038 56.087C34.1896 56.087 34.4234 55.8522 34.4234 55.5653C34.4234 55.2783 34.1896 55.0435 33.9038 55.0435Z" fill="#2B2A29"/>
</svg>
