<svg width="60" height="60" viewBox="0 0 60 60" fill="none" xmlns="http://www.w3.org/2000/svg">
<path d="M46.6135 14.3426H42.0717V15.0598H46.6135V14.3426Z" fill="black"/>
<path d="M44.7011 12.4303H43.984V16.9721H44.7011V12.4303Z" fill="black"/>
<path d="M43.9841 24.1434V20.7968L43.4701 20.7251C40.8167 20.3426 38.7012 18.2151 38.3187 15.5737L38.247 15.0598H34.9004V14.3426H38.247L38.3187 13.8287C38.7012 11.1753 40.8287 9.05975 43.4701 8.67728L43.9841 8.60557V5.25896H44.7012V8.60557L45.2151 8.67728C47.8685 9.05975 49.9841 11.1872 50.3665 13.8287L50.4382 14.3426H53.7849V15.0598H50.4382L50.3665 15.5737C49.9841 18.2271 47.8566 20.3426 45.2151 20.7251L44.7012 20.7968V24.1434H43.9841ZM44.3426 9.3227C41.3785 9.3227 38.9641 11.737 38.9641 14.7012C38.9641 17.6653 41.3785 20.0797 44.3426 20.0797C47.3068 20.0797 49.7211 17.6653 49.7211 14.7012C49.7211 11.737 47.3068 9.3227 44.3426 9.3227Z" fill="black"/>
<path d="M0 60V19.1235H29.0677L28.9363 18.4183C28.7689 17.51 28.6853 16.5777 28.6853 15.6574C28.6853 7.02789 35.7132 0 44.3426 0C52.9721 0 60 7.02789 60 15.6574C60 16.5777 59.9163 17.51 59.749 18.4183L59.6175 19.1235H60V60H0ZM42.012 59.2829H59.2829V42.012L42.012 59.2829ZM31.1952 59.2829H40.996L59.2829 40.996V31.1952L39.4183 51.0478L8.21115 19.8406H0.717131V22.1474L16.9004 38.3307L0.717131 54.502V59.2829H5.749L21.8008 43.2311L34.5299 55.9602L31.1952 59.2829ZM6.75299 59.2829H30.1793L33.502 55.9602L21.7888 44.247L6.75299 59.2829ZM0.717131 53.498L15.8845 38.3307L0.717131 23.1633V53.498ZM39.4183 50.0438L59.2829 30.1793C59.2829 30.1793 59.4024 19.7331 59.2829 20.1633C59.1036 20.7968 58.1594 23.0438 58.1594 23.0438C57.4303 24.4064 56.51 25.6494 55.4104 26.7371L44.3426 37.8048L33.2749 26.7371C31.4701 24.9442 30.1195 22.7092 29.3785 20.2709L29.247 19.8526H9.22709L39.4183 50.0438ZM44.3426 0.717131C40.3506 0.717131 36.5976 2.27092 33.7769 5.09163C30.9562 7.91235 29.4024 11.6653 29.4024 15.6574C29.4024 19.6494 30.9562 23.4024 33.7769 26.2231L44.3426 36.7888L54.9084 26.2231C57.7291 23.4024 59.2829 19.6494 59.2829 15.6574C59.2829 11.6653 57.7291 7.91235 54.9084 5.09163C52.0877 2.27092 48.3347 0.717131 44.3426 0.717131Z" fill="black"/>
</svg>
