<svg width="60" height="60" viewBox="0 0 60 60" fill="none" xmlns="http://www.w3.org/2000/svg">
<g clip-path="url(#clip0)">
<path d="M29.9998 59.9998C28.2591 59.9998 26.7653 58.7532 26.4319 57.0375C26.2468 56.087 26.4566 55.1243 26.9998 54.322C27.543 53.5197 28.3702 52.9766 29.3208 52.8038L29.6171 52.7421V46.3236L29.2591 46.3113C25.4566 46.1508 21.827 44.645 19.0245 42.0776L18.7653 41.8431L14.2097 46.3977L14.3826 46.6445C15.2097 47.8912 15.185 49.4958 14.3208 50.7178C13.6418 51.6805 12.5307 52.2483 11.3579 52.2483C10.6048 52.2483 9.88873 52.0261 9.28379 51.5941C8.49366 51.0387 7.9628 50.2117 7.80231 49.2489C7.64181 48.2985 7.85169 47.3358 8.40724 46.5458C9.08626 45.583 10.1974 45.0152 11.3702 45.0152C12.1233 45.0152 12.8393 45.2374 13.4443 45.6694L13.7035 45.8546L18.2468 41.3123L17.9998 41.0531C15.4319 38.2759 13.9134 34.6594 13.7159 30.87L13.7035 30.5244H7.23441L7.17268 30.8083C6.83934 32.2771 5.65416 33.3633 4.16033 33.5855C3.98749 33.6102 3.80231 33.6225 3.61712 33.6225C1.827 33.6225 0.283788 32.2895 0.0245289 30.5244C-0.271767 28.5372 1.0986 26.698 3.08626 26.4018C3.2591 26.3771 3.44428 26.3648 3.62947 26.3648C5.41959 26.3648 6.9628 27.6978 7.22206 29.4629L7.27144 29.7838H13.7035L13.7159 29.4259C13.8517 25.5871 15.3579 21.9212 17.9381 19.0823L18.1727 18.8231L13.5924 14.2438L13.3455 14.4043C12.7529 14.7869 12.0739 14.9844 11.3702 14.9844C10.3949 14.9844 9.49366 14.6018 8.80231 13.9229C8.11095 13.244 7.74058 12.3306 7.74058 11.3555C7.74058 10.3804 8.11095 9.47935 8.80231 8.78814C9.49366 8.09692 10.3949 7.72663 11.3702 7.72663C12.3332 7.72663 13.2468 8.10926 13.9381 8.78814C15.1974 10.0471 15.3579 12.022 14.3208 13.4662L14.1356 13.7254L18.7035 18.2924L18.9628 18.0455C21.7529 15.4658 25.3702 13.9352 29.1603 13.7377L29.506 13.7254V7.24524L29.2221 7.18353C27.7529 6.85026 26.6418 5.67767 26.4196 4.18415C26.2714 3.22138 26.506 2.27096 27.0739 1.481C27.6418 0.691039 28.4937 0.18497 29.4443 0.0368527C29.6295 0.0121664 29.8147 -0.0125198 30.0122 -0.0125198C31.79 -0.0125198 33.3208 1.3082 33.5924 3.06092C33.7406 4.02369 33.506 4.97411 32.9381 5.76407C32.3702 6.54169 31.5184 7.0601 30.5677 7.20822L30.2591 7.25759V13.713L30.6171 13.7254C34.4443 13.8612 38.111 15.3547 40.9505 17.9344L41.2097 18.1689L45.79 13.5896L45.6171 13.3428C44.79 12.0961 44.8147 10.4915 45.6788 9.26952C46.3579 8.30675 47.469 7.73897 48.6418 7.73897C49.3949 7.73897 50.1109 7.96115 50.7159 8.39316C51.506 8.9486 52.0369 9.77559 52.1974 10.7384C52.3579 11.6888 52.148 12.6515 51.5924 13.4415C50.9134 14.4043 49.8023 14.972 48.6295 14.972C47.8764 14.972 47.1603 14.7499 46.5554 14.3179L46.2961 14.1327L41.7282 18.6997L41.9751 18.9589C44.5924 21.7731 46.1233 25.4514 46.2961 29.2901L46.3085 29.648H52.7529L52.8023 29.3395C53.1233 27.6114 54.6171 26.3524 56.3702 26.3524C58.0986 26.3524 59.6048 27.5867 59.9381 29.2901C60.1233 30.2405 59.9258 31.2033 59.3826 32.0179C58.8393 32.8326 58.0245 33.3633 57.0616 33.5485C56.827 33.5978 56.5924 33.6225 56.3579 33.6225C54.6295 33.6225 53.1356 32.3882 52.8023 30.6849L52.7406 30.3886H46.2961L46.2838 30.7466C46.1233 34.5359 44.6171 38.1772 42.0616 40.979L41.827 41.2382L46.3826 45.7929L46.6295 45.6201C47.2344 45.2127 47.9258 45.0029 48.6542 45.0029C49.6295 45.0029 50.543 45.3855 51.2221 46.0644C51.9134 46.7556 52.2838 47.6567 52.2838 48.6318C52.2838 49.6069 51.9011 50.5079 51.2221 51.1992C50.5307 51.8904 49.6295 52.2607 48.6542 52.2607C47.6788 52.2607 46.7776 51.878 46.0863 51.1992C44.8393 49.9525 44.6665 48.0023 45.6788 46.5581L45.8517 46.2989L41.3085 41.7567L41.0492 42.0035C38.2344 44.6079 34.5677 46.1385 30.7406 46.2989L30.3826 46.3113V52.7297L30.6789 52.7914C32.1603 53.0753 33.2961 54.2109 33.5801 55.6921C33.7653 56.6425 33.5554 57.6052 33.0122 58.4076C32.469 59.2099 31.6418 59.753 30.6912 59.9258C30.4566 59.9751 30.2221 59.9998 29.9998 59.9998ZM29.8147 53.4826C28.2961 53.5814 27.111 54.8527 27.111 56.3709C27.111 57.9632 28.4072 59.2592 29.9998 59.2592C31.469 59.2592 32.6912 58.1607 32.864 56.7412H32.8887V56.3709C32.8887 54.8527 31.7035 53.5937 30.185 53.495H30.1356L30.0863 53.5073C30.0616 53.5073 30.0369 53.5197 30.0122 53.5197C29.9875 53.5197 29.9628 53.5197 29.9381 53.5073L29.8887 53.495L29.8147 53.4826ZM48.6788 45.7805C47.9258 45.7805 47.2097 46.0644 46.6665 46.5952C45.5184 47.7061 45.4937 49.5328 46.5924 50.6807C46.6171 50.7054 46.6418 50.7301 46.6665 50.7548C47.2097 51.2732 47.9258 51.5695 48.6788 51.5695C49.469 51.5695 50.2097 51.2609 50.7529 50.6931C51.864 49.5452 51.827 47.7184 50.6788 46.6075C50.148 46.0644 49.4319 45.7805 48.6788 45.7805ZM11.3579 45.7558C10.5801 45.7558 9.85169 46.0521 9.30848 46.6075C8.76527 47.1506 8.46897 47.8789 8.46897 48.6565C8.46897 49.4341 8.77762 50.15 9.32083 50.6931C9.86404 51.2362 10.5924 51.5324 11.3579 51.5324C12.1356 51.5324 12.864 51.2362 13.4072 50.6807C14.4566 49.6316 14.5307 47.9159 13.5677 46.7803L13.5307 46.7433L13.4813 46.7186C13.4443 46.6939 13.4072 46.6569 13.3702 46.6075L13.3455 46.5581L13.3085 46.5211C12.7776 46.0274 12.0863 45.7558 11.3579 45.7558ZM29.9998 14.466C21.4196 14.466 14.4443 21.4399 14.4443 30.0183C14.4443 38.5968 21.4196 45.5707 29.9998 45.5707C38.5677 45.5583 45.5554 38.5845 45.5554 30.0183C45.5677 21.4522 38.5801 14.466 29.9998 14.466ZM56.3702 27.1054C54.7776 27.1054 53.4813 28.4014 53.4813 29.9936C53.4813 31.5859 54.7776 32.8819 56.3702 32.8819C57.9628 32.8819 59.2591 31.5859 59.2591 29.9936C59.2591 28.4014 57.9628 27.1054 56.3702 27.1054ZM3.62947 27.1054C2.03687 27.1054 0.740578 28.4014 0.740578 29.9936C0.740578 31.5859 2.03687 32.8819 3.62947 32.8819C5.22206 32.8819 6.51836 31.5859 6.51836 29.9936C6.5307 28.4014 5.23441 27.1054 3.62947 27.1054ZM11.3579 8.46722C10.5801 8.46722 9.86404 8.76345 9.30848 9.31889C8.76527 9.86199 8.46897 10.5902 8.46897 11.3555C8.46897 12.1208 8.76527 12.849 9.32083 13.4045L9.34552 13.4292C9.88873 13.9599 10.6048 14.2561 11.3702 14.2561C12.148 14.2561 12.8764 13.9476 13.4196 13.4045C13.9628 12.8614 14.2591 12.1331 14.2591 11.3679C14.2591 10.5902 13.9628 9.87433 13.4072 9.31889C12.8517 8.76345 12.1356 8.46722 11.3579 8.46722ZM48.6542 8.46722C47.8764 8.46722 47.1603 8.76345 46.6048 9.31889C46.0616 9.86199 45.7529 10.6026 45.7529 11.3679C45.7529 12.1331 46.0492 12.8614 46.6048 13.4045C47.148 13.9476 47.8764 14.2561 48.6542 14.2561C49.4319 14.2561 50.148 13.9599 50.7035 13.4045C51.2467 12.8614 51.5554 12.1331 51.5554 11.3555C51.5554 10.5779 51.2591 9.86199 50.7035 9.30655C50.148 8.76345 49.4196 8.46722 48.6542 8.46722ZM29.9998 0.740412C28.4072 0.740412 27.111 2.03644 27.111 3.62871C27.111 5.22097 28.4072 6.517 29.9998 6.517C31.5924 6.517 32.8887 5.22097 32.8887 3.62871C32.8887 2.03644 31.5924 0.740412 29.9998 0.740412Z" fill="#2B2A29"/>
<path d="M26.5927 40.5719C26.4692 40.5719 26.3334 40.5472 26.2223 40.5102H26.1976C26.0371 40.4608 25.8889 40.3744 25.7655 40.251C23.5926 37.9922 23.7408 33.6597 23.8396 32.3884C23.8519 32.2156 23.8643 32.0551 23.8766 31.8947C23.9507 30.9689 23.9877 30.5122 23.7778 30.1666C23.5433 29.784 22.926 29.4014 21.7902 28.8089C21.642 28.7348 21.4939 28.6361 21.3704 28.5373C19.8025 27.3401 19.2964 24.6986 20.1976 22.5015C20.9754 20.6377 22.642 19.5639 24.7902 19.5639C25.0865 19.5639 25.4075 19.5886 25.7161 19.6256C26.9877 19.7984 28.4939 20.6624 29.4815 21.2302C29.605 21.3043 29.7161 21.366 29.8149 21.4277L29.9754 21.5141L30.1482 21.44C30.605 21.2302 31.0494 20.9957 31.4692 20.7241C32.1606 20.2674 32.9013 19.9218 33.7038 19.712C34.3704 19.5268 35.0124 19.4404 35.5927 19.4404C38.0248 19.4404 39.1606 20.9957 39.6297 21.9214C40.7531 24.1679 40.2964 27.266 38.6544 28.5373C38.5186 28.6361 38.3828 28.7348 38.2346 28.8089C37.1112 29.4014 36.4939 29.784 36.247 30.1666C36.0248 30.5246 36.0618 30.9813 36.1482 31.8823V31.9317C36.1606 32.0675 36.1729 32.2156 36.1852 32.3761C36.284 33.6474 36.4322 37.9798 34.2593 40.2386C34.1359 40.3621 33.9877 40.4485 33.8272 40.4978H33.8149C33.6914 40.5349 33.568 40.5596 33.4445 40.5596H33.4322C33.3704 40.5596 33.3087 40.5596 33.247 40.5472C32.6544 40.4485 32.247 39.8807 32.3457 39.2759V39.2635V39.2512C32.3951 38.6957 32.7778 33.7091 30.6544 31.0553C30.6173 31.0183 30.5927 30.9936 30.568 30.9566C30.4198 30.8332 30.2346 30.7591 30.0371 30.7591C29.8025 30.7591 29.5803 30.8578 29.4322 31.0307C28.247 32.4748 27.8396 34.6349 27.7038 36.1901C27.6173 37.2022 27.6173 38.2267 27.6914 39.2512V39.2635V39.2759C27.7285 39.461 27.7038 39.6585 27.642 39.8313C27.4815 40.2757 27.0618 40.5719 26.5927 40.5719ZM30.0248 30.0185C30.4939 30.0185 30.926 30.2284 31.2223 30.5863C33.642 33.598 33.0988 39.1154 33.0741 39.3499C33.0741 39.3623 33.0741 39.3746 33.0741 39.3746L32.963 40.0165L33.5433 39.7943L33.5803 39.7819C33.605 39.7696 33.6297 39.7696 33.642 39.7573L33.7161 39.7326L33.7778 39.6709C35.2964 38.0416 35.642 34.857 35.4569 32.4254C35.4445 32.3143 35.4445 32.2033 35.4322 32.1045L35.4198 31.9317C35.247 29.821 35.321 29.5001 37.9013 28.1424C38.0124 28.0806 38.1112 28.0189 38.2099 27.9449C39.5803 26.8834 39.9383 24.1679 38.9754 22.2423C38.2964 20.8969 37.1235 20.181 35.568 20.181C35.0494 20.181 34.4939 20.2674 33.9136 20.4156C33.1852 20.613 32.4939 20.9216 31.8643 21.3536L31.8149 21.3783C31.7408 21.4277 31.6667 21.4771 31.5803 21.5141L30.8519 21.9584L31.6667 22.193C31.9754 22.2794 32.284 22.3287 32.605 22.3287C32.8025 22.3287 32.9877 22.3164 33.1852 22.2794C33.2223 22.267 33.247 22.267 33.2717 22.267C33.4445 22.267 33.605 22.3905 33.6297 22.5633C33.6544 22.662 33.6297 22.7608 33.568 22.8472C33.5186 22.9336 33.4322 22.9829 33.3334 23.0076C33.1112 23.0446 32.8766 23.0693 32.642 23.0693C31.5556 23.0693 30.5062 22.6126 29.8149 22.267C29.6297 22.1806 29.3704 22.0325 29.0988 21.872C28.1606 21.3289 26.7408 20.5143 25.605 20.3538C25.3087 20.3168 25.0124 20.2921 24.7408 20.2921C22.2593 20.2921 21.247 21.8474 20.8643 22.7731C20.0988 24.6369 20.5186 26.9574 21.8025 27.9325C21.9013 28.0066 22.0124 28.0806 22.1235 28.1424C24.7038 29.5124 24.7778 29.8334 24.605 31.9317C24.5927 32.0798 24.5803 32.2526 24.568 32.4254C24.3828 34.857 24.7285 38.0416 26.247 39.6709L26.2964 39.7326L26.3704 39.7573C26.3828 39.7696 26.4075 39.7696 26.4445 39.7819L26.5062 39.7943H26.568L27.0124 39.8066L26.9507 39.3623C26.9507 39.3499 26.9507 39.3376 26.9507 39.3252C26.926 39.0907 26.3704 33.5487 28.8396 30.5369C28.9013 30.4629 28.9754 30.3888 29.0494 30.3271C29.3334 30.1419 29.6667 30.0185 30.0248 30.0185Z" fill="#2B2A29"/>
</g>
<defs>
<clipPath id="clip0">
<rect width="60" height="60" fill="white"/>
</clipPath>
</defs>
</svg>
