<svg width="60" height="60" viewBox="0 0 60 60" fill="none" xmlns="http://www.w3.org/2000/svg">
<g clip-path="url(#clip0)">
<path d="M14.8234 8.76454C14.7168 8.76454 14.622 8.71716 14.5628 8.64608C14.5036 8.57499 14.468 8.48022 14.468 8.38545C14.468 8.29067 14.5154 8.20774 14.5865 8.13666C16.8493 6.09901 19.5505 4.46414 22.3939 3.43347C24.9648 2.49757 27.8082 2 30.6042 2C31.1255 2 31.6467 2.01185 32.168 2.04739C34.5375 2.2014 36.8596 2.71081 39.0751 3.55194C39.1698 3.58748 39.2291 3.64671 39.2765 3.74148C39.312 3.82441 39.312 3.91919 39.2883 4.01396C39.2409 4.15612 39.0987 4.23905 38.9566 4.23905C38.9092 4.23905 38.8736 4.22721 38.8263 4.21536C36.6819 3.39793 34.4309 2.91221 32.1206 2.7582C31.623 2.72266 31.1136 2.71081 30.6042 2.71081C27.8911 2.71081 25.1425 3.19653 22.6309 4.10874C19.8704 5.11572 17.2522 6.69135 15.0604 8.68162C14.9893 8.74085 14.9064 8.76454 14.8234 8.76454Z" fill="black"/>
<path d="M42.4871 17.5075C42.4278 17.5075 42.3331 17.4957 42.2501 17.4246C42.1791 17.3653 42.1317 17.2706 42.1317 17.1758C42.1198 17.081 42.1554 16.9862 42.2146 16.9152L51.965 5.69621C52.0361 5.61328 52.1309 5.57774 52.2375 5.57774C52.3204 5.57774 52.4033 5.61328 52.4744 5.66067C52.5455 5.71991 52.5929 5.81468 52.5929 5.90945C52.6047 6.00423 52.5692 6.099 52.51 6.17009L42.7596 17.389C42.6885 17.472 42.5937 17.5075 42.4871 17.5075Z" fill="black"/>
<path d="M50.4486 18.0999C49.2638 18.0999 48.3042 17.1403 48.3042 15.9556C48.3042 14.7709 49.2638 13.8113 50.4486 13.8113C51.6333 13.8113 52.593 14.7709 52.593 15.9556C52.593 17.1403 51.6333 18.0999 50.4486 18.0999ZM50.4486 14.5221C49.6548 14.5221 49.015 15.1618 49.015 15.9556C49.015 16.7493 49.6548 17.389 50.4486 17.389C51.2424 17.389 51.8821 16.7493 51.8821 15.9556C51.8821 15.1618 51.2424 14.5221 50.4486 14.5221Z" fill="black"/>
<path d="M43.8733 9.52274C42.6885 9.52274 41.7289 8.56314 41.7289 7.37846C41.7289 6.19378 42.6885 5.23418 43.8733 5.23418C45.058 5.23418 46.0176 6.19378 46.0176 7.37846C46.0176 8.56314 45.058 9.52274 43.8733 9.52274ZM43.8733 5.94499C43.0795 5.94499 42.4397 6.58472 42.4397 7.37846C42.4397 8.1722 43.0795 8.81193 43.8733 8.81193C44.667 8.81193 45.3068 8.1722 45.3068 7.37846C45.3068 6.58472 44.667 5.94499 43.8733 5.94499Z" fill="black"/>
<path d="M11.6958 12.2831C11.5655 12.2831 11.4233 12.1883 11.3641 12.058C11.3048 11.9158 11.3641 11.7144 11.4944 11.6315C11.5536 11.5959 11.6247 11.5722 11.6958 11.5722C11.7787 11.5722 11.8498 11.5959 11.9209 11.6433C12.0275 11.7263 12.0868 11.8921 12.0394 12.0343C11.992 12.1764 11.8617 12.2712 11.7195 12.2831H11.6958Z" fill="black"/>
<path d="M38.7434 58C37.061 58 35.4024 57.6802 33.8149 57.0641L15.6173 49.9205H10.1793V51.8752C10.1793 52.0766 10.0253 52.2306 9.8239 52.2306H0.855422C0.654016 52.2306 0.5 52.0766 0.5 51.8752V31.0603C0.5 30.8589 0.654016 30.7049 0.855422 30.7049H7.18193L7.02791 29.7453C6.8502 28.6554 6.74357 27.5536 6.71988 26.4637C6.6488 23.4665 7.12269 20.5285 8.12972 17.7326C8.36667 17.081 8.62731 16.4294 8.92349 15.8016C8.98273 15.6713 9.11305 15.6002 9.24337 15.6002C9.29076 15.6002 9.35 15.612 9.39739 15.6357C9.5751 15.7186 9.64618 15.9319 9.56325 16.1096C9.27892 16.7138 9.01827 17.3535 8.79317 17.9814C7.80984 20.6943 7.34779 23.5376 7.41888 26.4519C7.44257 27.6366 7.57289 28.8449 7.78614 30.0296L7.90462 30.7049H9.81205C10.0135 30.7049 10.1675 30.8589 10.1675 31.0603V33.5007H14.4799V20.9431C14.4799 20.7417 14.6339 20.5877 14.8353 20.5877H25.0359V13.1716C25.0359 13.0768 25.0715 12.982 25.1426 12.9228C25.2137 12.8517 25.2966 12.8162 25.3914 12.8162L35.9474 12.8517C36.1369 12.8517 36.3028 13.0176 36.3028 13.2071V26.6888H46.5034C46.7048 26.6888 46.8588 26.8428 46.8588 27.0442V42.4214L48.3161 40.7155C48.9203 40.0047 49.4771 39.2702 49.9273 38.5949C51.4675 36.2492 52.5574 33.6784 53.1735 30.9537C53.8962 27.7076 53.9199 24.2602 53.2209 21.0023C53.1972 20.9076 53.2209 20.8128 53.2683 20.7299C53.3157 20.6469 53.3986 20.5995 53.4934 20.5758C53.5171 20.5758 53.5408 20.564 53.5645 20.564C53.7303 20.564 53.8725 20.6825 53.908 20.8483C54.6307 24.2128 54.607 27.755 53.8606 31.1077C53.2327 33.9272 52.1072 36.5691 50.5197 38.9858C49.6193 40.3482 48.3516 41.8528 47.1195 43.0138L46.8588 43.2625V47.2431L54.1924 45.5608C54.5122 45.4898 54.844 45.4542 55.1757 45.4542C55.9932 45.4542 56.7988 45.6911 57.5096 46.1413C58.493 46.7811 59.1683 47.7525 59.4171 48.9135C59.891 51.1881 58.493 53.4271 56.242 53.9958L42.0843 57.5854C40.9825 57.8579 39.857 58 38.7434 58ZM10.1793 49.2215H15.6884C15.7357 49.2215 15.7831 49.2334 15.8187 49.2452L34.0755 56.4125C35.5801 57.0049 37.144 57.3011 38.7434 57.3011C39.7978 57.3011 40.8641 57.1707 41.9066 56.8983L56.0524 53.2968C57.9361 52.8229 59.109 50.9511 58.7062 49.0438C58.5048 48.0842 57.9361 47.2549 57.1187 46.7337C56.5382 46.3546 55.8629 46.1532 55.1639 46.1532C54.8914 46.1532 54.6189 46.1887 54.3464 46.248L46.5508 48.0368L46.5271 48.0487L42.4871 48.9727C41.7408 49.1386 40.9707 49.2452 40.2006 49.2926C39.9637 49.3044 39.7149 49.3163 39.4779 49.3163C38.3524 49.3163 37.2269 49.1741 36.1369 48.9016C35.355 48.7002 34.6086 48.4159 33.8149 48.1079L31.1729 47.0891L31.1492 47.0772C31.09 47.0535 31.0307 47.0417 30.9833 47.018C27.5476 45.6912 23.0574 43.9615 23.0574 43.9615C22.9745 43.926 22.9034 43.8667 22.856 43.772C22.8205 43.689 22.8205 43.5943 22.8442 43.4995C22.8916 43.3573 23.0337 43.2744 23.1759 43.2744C23.2233 43.2744 23.2588 43.2862 23.3062 43.2981L31.3861 46.402L31.4098 46.4138C31.4928 46.4375 31.5876 46.473 31.6705 46.4849L31.6942 46.4967C31.9904 46.5678 32.2984 46.6034 32.6064 46.6034C33.7793 46.6034 34.9167 46.0584 35.6512 45.1343C35.8882 44.8382 36.0777 44.5065 36.2436 44.1037C37.0373 42.1845 36.1133 39.981 34.2058 39.1872L22.1926 34.2116H10.1793V49.2215ZM1.21084 51.5316H9.46847V31.4157H1.21084V51.5316ZM36.3028 39.8743L36.3976 40.0047L36.4094 40.0165L36.4687 40.0994C36.5161 40.1705 36.5635 40.2416 36.6108 40.3127C36.8122 40.6325 36.9663 40.988 37.0847 41.3552C37.4757 42.6347 37.2388 44.1037 36.4568 45.2647L36.3147 45.4779V48.179L36.9544 48.333L37.0018 48.3448C37.8193 48.5107 38.6604 48.5936 39.4898 48.5936C40.0703 48.5936 40.6627 48.5581 41.2432 48.4752C41.6223 48.4278 41.9896 48.3567 42.345 48.2738L46.1598 47.3971V27.3996H45.3305H36.3147V39.8743H36.3028ZM35.1892 46.1769C34.739 46.7574 33.5661 47.0298 33.5542 47.0298L32.7841 47.1957L35.592 48.2738V47.9302C35.592 47.1957 35.6038 46.402 35.6038 46.3427L35.4143 46.3072L35.5446 46.248L35.2484 46.0821L35.1892 46.1769ZM25.7468 34.9105L35.592 38.9858V13.5625L25.7468 13.527V34.9105ZM15.1908 33.5007H22.2873C22.3347 33.5007 22.3821 33.5126 22.4177 33.5244L25.0359 34.6025V21.2985H15.1908V33.5007Z" fill="black"/>
</g>
<defs>
<clipPath id="clip0">
<rect width="59" height="56" fill="white" transform="translate(0.5 2)"/>
</clipPath>
</defs>
</svg>
