<?xml version="1.0" encoding="utf-8"?>
<!-- Generator: Adobe Illustrator 19.0.1, SVG Export Plug-In . SVG Version: 6.00 Build 0)  -->
<svg version="1.1" id="Слой_1" xmlns="http://www.w3.org/2000/svg" xmlns:xlink="http://www.w3.org/1999/xlink" x="0px" y="0px"
	 viewBox="0 0 4941.2 401.4" style="enable-background:new 0 0 4941.2 401.4;" xml:space="preserve">
<style type="text/css">
	.st1{fill:none;stroke:#FFFFFF;stroke-width:0.5669;stroke-miterlimit:22.9256;}
	.st2{fill-rule:evenodd;clip-rule:evenodd;fill:#CF2023;}
	.st3{fill:none;stroke:#E3000F;stroke-width:0.216;stroke-miterlimit:22.9256;}
	.st4{fill-rule:evenodd;clip-rule:evenodd;fill:#B1B2B3;}
	.st5{fill:none;stroke:#B1B2B3;stroke-width:0.216;stroke-miterlimit:22.9256;}
	.st6{fill-rule:evenodd;clip-rule:evenodd;fill:#C5C6C6;}
	.st7{fill:none;stroke:#B1B2B3;stroke-width:0.5669;stroke-miterlimit:22.9256;}
	.st8{clip-path:url(#SVGID_2_);fill:#CF2023;}
	.st9{fill-rule:evenodd;clip-rule:evenodd;}
	.st10{fill:none;stroke:#000000;stroke-width:0.216;stroke-miterlimit:22.9256;}
</style>
<path class="st1" d="M3167.2,13.2c-263.4,38-816.3,164-1253.2,119.4c-195.7-20-335.8-54.6-478-117.6v156.6
	C2043.8,317.7,2912,148.3,3167.2,13.2z"/>
<path class="st2" d="M4005,65.2c-618.9-110.8-1380.1,3.3-2065.4,95c-245.7,32.9-501.2,53.5-758.4,59.2
	c257.1-2.7,512.7-20.3,758.4-50.3C2624.8,85.6,3386-19.6,4004.9,98.5L4005,65.2z"/>
<path class="st3" d="M4005,65.2c-618.9-110.8-1380.1,3.3-2065.4,95c-245.7,32.9-501.2,53.5-758.4,59.2
	c257.1-2.7,512.7-20.3,758.4-50.3C2624.8,85.6,3386-19.6,4004.9,98.5L4005,65.2z"/>
<path class="st4" d="M3687.2,14.5c-563-49.8-1209.9,39.5-1798.4,113.2C1271.5,205.1,610.5,204.5,0.3,86.1v41.8
	c618.3,106.3,1260.6,96,1884.2,15.4C2465.8,68.3,3117.5-19,3687.2,14.5z"/>
<path class="st5" d="M3687.2,14.5c-563-49.8-1209.9,39.5-1798.4,113.2C1271.5,205.1,610.5,204.5,0.3,86.1v41.8
	c618.3,106.3,1260.6,96,1884.2,15.4C2465.8,68.3,3117.5-19,3687.2,14.5z"/>
<path class="st6" d="M4004.9,115.2C3380.6-18.5,2598.3,95.8,1894.4,184c-28.9,3.6-58,7.1-87.2,10.4C1213.6,261,581.9,254,0.3,141.2
	v117c1707,148.4,2716-370.1,4004.6-27.7L4543,401.4h278C4821,401.4,4409,188.4,4004.9,115.2z"/>
<path class="st7" d="M4004.9,115.2C3377.5-16.7,2598.3,95.8,1894.4,184c-28.9,3.6-58,7.1-87.2,10.4C1213.6,261,581.9,254,0.3,141.2
	v117c1707,148.4,2716-370.1,4004.6-27.7"/>
<g>
	<defs>
		<path id="SVGID_1_" d="M4004.9,298.1c-519.3-228.2-1566.5-172.3-2346-72.4C1080.2,299.9,524.8,319.3,0.3,269.8v131.6l4311.8,0
			l127.5,0L4004.9,298.1z"/>
	</defs>
	<clipPath id="SVGID_2_">
		<use xlink:href="#SVGID_1_"  style="overflow:visible;"/>
	</clipPath>
	<polygon class="st8" points="0.3,69.9 4004.9,69.9 4312,401.4 0.3,401.4 	"/>
</g>
<path class="st9" d="M4004.9,230.5C2875-115.6,1313.2,429.6,0.3,239.1v30.7c200.5,28.5,367.4,36.6,536.4,36.7
	c1516.7,0.8,2078.1-378.5,3468.2,0.8l302.6,94.1H4543C4543,401.4,4195,285.7,4004.9,230.5z"/>
<path class="st10" d="M4004.9,230.5C2792.8-107.2,1313.2,429.6,0.3,239.1v30.7c200.5,28.5,367.4,36.6,536.4,36.7
	c1516.7,0.8,2078.1-378.5,3468.2,0.8V230.5z"/>
<path class="st2" d="M4003,64.8c305.9,60.8,624.2,186.1,938.2,336.1c-18,0.5-51.4,0-51.4,0c-303-138-606.6-250.5-898.8-305.1
	L4003,64.8z"/>
</svg>
