<svg width="26" height="25" viewBox="0 0 26 25" fill="none" xmlns="http://www.w3.org/2000/svg">
<g clip-path="url(#clip0)">
<path d="M12.8385 6.83496C10.5408 6.83496 9.4856 8.19677 9.4856 9.11596C9.4856 9.77988 10.0472 10.0863 10.5068 10.0863C11.4258 10.0863 11.0514 8.77553 12.7874 8.77553C13.6385 8.77553 14.3193 9.15009 14.3193 9.9331C14.3193 10.8523 13.3662 11.38 12.8045 11.8566C12.3109 12.2822 11.6642 12.9802 11.6642 14.4441C11.6642 15.3292 11.9024 15.5845 12.6002 15.5845C13.4342 15.5845 13.6044 15.2101 13.6044 14.8867C13.6044 14.0014 13.6214 13.4908 14.5575 12.7588C15.0171 12.4014 16.4638 11.2438 16.4638 9.64369C16.4638 8.0436 15.017 6.83501 12.8385 6.83496Z" fill="white"/>
<path d="M12.6172 16.7593C11.9024 16.7593 11.3237 17.3551 11.3237 18.07C11.3237 18.7679 11.8854 19.3808 12.6172 19.3808C13.3491 19.3808 13.9278 18.768 13.9278 18.07C13.9278 17.3551 13.332 16.7593 12.6172 16.7593Z" fill="white"/>
<path d="M22.3611 4.77515L15.012 0.536828C13.771 -0.178943 12.229 -0.178943 10.9879 0.536828L3.63886 4.77515C2.39546 5.49224 1.62305 6.82944 1.62305 8.26499V16.735C1.62305 18.1705 2.39546 19.5078 3.63886 20.2249L10.9879 24.4632C12.2287 25.1789 13.7708 25.1791 15.012 24.4632L22.3611 20.2249C23.6045 19.5077 24.3769 18.1705 24.3769 16.735V8.26499C24.3769 6.82944 23.6045 5.49224 22.3611 4.77515ZM22.4238 16.735C22.4238 17.4744 22.0259 18.1632 21.3854 18.5326L14.0364 22.7709C13.397 23.1396 12.6029 23.1396 11.9636 22.7709L4.61455 18.5326C3.97402 18.1633 3.57617 17.4744 3.57617 16.735V8.26499C3.57617 7.52554 3.97402 6.83677 4.61455 6.46738L11.9636 2.22906C12.603 1.86036 13.3971 1.86041 14.0364 2.22906L21.3855 6.46738C22.0259 6.83672 22.4238 7.52554 22.4238 8.26499V16.735Z" fill="white"/>
</g>
<defs>
<clipPath id="clip0">
<rect width="25" height="25" fill="white" transform="translate(0.5)"/>
</clipPath>
</defs>
</svg>
