<svg width="1935" height="141" viewBox="0 0 1935 141" fill="none" xmlns="http://www.w3.org/2000/svg">
<g clip-path="url(#clip0)">
<path fill-rule="evenodd" clip-rule="evenodd" d="M366.621 118.092C608.985 157.022 907.075 116.933 1175.44 84.7136C1271.66 73.1541 1371.71 65.9163 1472.44 63.9136C1371.75 64.8622 1271.66 71.046 1175.44 81.5866C907.114 110.924 609.024 147.887 366.66 106.392L366.621 118.092Z" fill="#CF2023"/>
<path d="M366.621 118.092C608.985 157.022 907.075 116.933 1175.44 84.7136C1271.66 73.1541 1371.71 65.9163 1472.44 63.9136C1371.75 64.8622 1271.66 71.046 1175.44 81.5866C907.114 110.924 609.024 147.887 366.66 106.392L366.621 118.092Z" stroke="#E3000F" stroke-width="0.216" stroke-miterlimit="22.9256"/>
<path fill-rule="evenodd" clip-rule="evenodd" d="M491.074 135.906C711.547 153.403 964.877 122.027 1195.34 96.1328C1437.07 68.9381 1695.93 69.1489 1934.88 110.749L1934.88 96.0624C1692.75 58.7138 1441.23 62.3327 1197.02 90.6517C969.38 117.003 714.171 147.676 491.074 135.906Z" fill="#B1B2B3"/>
<path d="M491.074 135.906C711.547 153.403 964.877 122.027 1195.34 96.1328C1437.07 68.9381 1695.93 69.1489 1934.88 110.749L1934.88 96.0624C1692.75 58.7138 1441.23 62.3327 1197.02 90.6517C969.38 117.003 714.171 147.676 491.074 135.906Z" stroke="#B1B2B3" stroke-width="0.216" stroke-miterlimit="22.9256"/>
<path fill-rule="evenodd" clip-rule="evenodd" d="M366.66 100.524C611.139 147.5 917.492 107.341 1193.14 76.3514C1204.46 75.0866 1215.86 73.8568 1227.29 72.6974C1459.75 49.2974 1707.12 51.7568 1934.88 91.3892L1934.88 50.2811C1266.41 -1.85936 871.282 180.316 366.66 60.0137L155.937 -0.0322389L47.0704 -0.0322294C47.0704 -0.0322294 208.412 74.8056 366.66 100.524Z" fill="#C5C6C6"/>
<path d="M366.66 100.524C612.353 146.868 917.492 107.341 1193.14 76.3514C1204.46 75.0866 1215.86 73.8568 1227.29 72.6974C1459.75 49.2974 1707.12 51.7568 1934.88 91.3892L1934.88 50.2811C1266.41 -1.85939 871.283 180.316 366.66 60.0137" stroke="#CF2023" stroke-width="0.5669" stroke-miterlimit="22.9256"/>
<path fill-rule="evenodd" clip-rule="evenodd" d="M366.66 60.0137C809.135 181.616 1420.74 -9.94047 1934.88 56.9919L1934.88 46.2054C1856.37 36.1919 1791.01 33.346 1724.83 33.3108C1130.88 33.0298 911.031 166.297 366.66 33.0299L248.16 -0.0322622L155.937 -0.0322541C155.937 -0.0322541 292.216 40.6191 366.66 60.0137Z" fill="#2B2A29"/>
<path d="M366.66 60.0137C841.325 178.665 1420.74 -9.94045 1934.88 56.9919L1934.88 46.2054C1856.37 36.1919 1791.01 33.346 1724.83 33.3109C1130.88 33.0298 911.031 166.297 366.66 33.0299L366.66 60.0137V60.0137Z" stroke="#CF2023" stroke-width="0.216" stroke-miterlimit="22.9256"/>
<path fill-rule="evenodd" clip-rule="evenodd" d="M367.404 118.233C247.612 96.8704 122.964 52.8461 -1.03237e-05 0.14345C7.04888 -0.0322328 20.1287 0.143448 20.1287 0.143448C138.785 48.6299 257.676 88.1569 372.103 107.341L367.404 118.233Z" fill="#CF2023"/>
</g>
<defs>
<clipPath id="clip0">
<rect width="1935" height="141" fill="white" transform="translate(1935 141) rotate(180)"/>
</clipPath>
</defs>
</svg>
