<?xml version="1.0" encoding="utf-8"?>
<!-- Generator: Adobe Illustrator 19.0.1, SVG Export Plug-In . SVG Version: 6.00 Build 0)  -->
<svg version="1.1" id="Слой_1" xmlns="http://www.w3.org/2000/svg" xmlns:xlink="http://www.w3.org/1999/xlink" x="0px" y="0px"
	 viewBox="0 0 56.568 56.568" style="enable-background:new 0 0 56.568 56.568;" xml:space="preserve">
<style type="text/css">
	.st0{fill:#B2B3B3;}
</style>
<g>
	<path class="st0" d="M55.323,50.261c-0.844,1.969-3.093,3.254-4.901,4.259c-2.371,1.285-4.781,2.049-7.473,2.049
		c-3.736,0-7.111-1.526-10.526-2.772c-2.451-0.884-4.821-1.969-7.031-3.334c-6.83-4.219-15.066-12.455-19.285-19.285
		c-1.366-2.21-2.451-4.58-3.335-7.03C1.527,20.731,0,17.356,0,13.62c0-2.692,0.763-5.103,2.049-7.473
		c1.004-1.809,2.29-4.059,4.259-4.902C7.633,0.643,10.446,0,11.892,0c0.281,0,0.563,0,0.844,0.12
		c0.844,0.281,1.728,2.25,2.129,3.054c1.286,2.29,2.531,4.62,3.857,6.87c0.643,1.045,1.848,2.33,1.848,3.576
		c0,2.45-7.272,6.026-7.272,8.195c0,1.085,1.004,2.491,1.567,3.455c4.058,7.313,9.12,12.375,16.432,16.433
		c0.964,0.563,2.371,1.566,3.455,1.566c2.169,0,5.745-7.271,8.196-7.271c1.245,0,2.531,1.205,3.576,1.848
		c2.25,1.326,4.58,2.571,6.87,3.857c0.803,0.401,2.772,1.285,3.053,2.129c0.121,0.281,0.121,0.563,0.121,0.844
		C56.568,46.122,55.925,48.935,55.323,50.261z"/>
</g>
</svg>
