<svg width="34" height="34" viewBox="0 0 34 34" fill="none" xmlns="http://www.w3.org/2000/svg">
<g clip-path="url(#clip0)">
<path d="M14.2973 34L14.5228 31.8409C14.8638 28.5774 15.7171 25.3225 17.0002 22.3591C18.2833 25.3225 19.1366 28.5774 19.4775 31.8409L19.7031 34L23.9116 29.5368L29.9906 30.2363L28.7788 28.4422C26.7932 25.5025 25.2659 22.0956 24.3481 18.5658C24.3711 18.5228 24.394 18.4796 24.4159 18.4357C25.2918 17.9985 26.0023 17.3345 26.4861 16.4966C26.9699 15.6586 27.1898 14.7111 27.1304 13.7342C27.6702 12.9178 27.9536 11.9874 27.9536 11.0198C27.9536 10.0523 27.6702 9.12191 27.1304 8.30551C27.1898 7.32859 26.9699 6.38109 26.4861 5.54311C25.9843 4.67387 25.2597 3.97544 24.4181 3.54175C23.9809 2.66408 23.3161 1.95197 22.4769 1.4675C21.6389 0.983687 20.6909 0.763821 19.7146 0.823235C18.8981 0.283329 17.9677 0 17.0002 0C16.0326 0 15.1022 0.283329 14.2858 0.823169C13.3094 0.763954 12.3614 0.983687 11.5234 1.4675C10.6842 1.95197 10.0194 2.66408 9.58229 3.54175C8.7406 3.97544 8.01601 4.67394 7.51421 5.54311C7.0304 6.38109 6.81053 7.32859 6.86995 8.30551C6.33011 9.12191 6.04678 10.0523 6.04678 11.0198C6.04678 11.9874 6.33017 12.9178 6.86995 13.7342C6.81053 14.7111 7.0304 15.6586 7.51421 16.4966C7.99795 17.3345 8.70847 17.9985 9.58441 18.4357C9.60632 18.4795 9.62922 18.5228 9.65226 18.5658C8.73449 22.0956 7.20711 25.5025 5.22155 28.4422L4.00977 30.2363L10.0887 29.5368L14.2973 34ZM26.0076 27.7733L23.1476 27.4441L21.1732 29.538C20.7149 26.8025 19.9254 24.1092 18.8473 21.6091C19.1474 21.4861 19.4377 21.3333 19.7146 21.1502C20.6918 21.2094 21.6391 20.9897 22.4769 20.5059C22.5782 20.4474 22.6768 20.3854 22.7729 20.3205C23.5584 22.9304 24.6547 25.4571 26.0076 27.7733ZM9.23888 15.5008C8.61009 14.4117 8.93876 13.393 8.94254 13.1789C8.82995 12.9917 8.03825 12.2782 8.03825 11.0198C8.03825 9.76225 8.83214 9.04437 8.94254 8.86082C8.93862 8.64188 8.60969 7.62865 9.23888 6.53888C9.92636 5.34821 10.9346 5.15178 11.1016 5.05492C11.2072 4.86427 11.4294 3.82136 12.5192 3.19224C13.6083 2.56344 14.6271 2.89205 14.8411 2.89583C15.0281 2.78337 15.7419 1.99154 17.0002 1.99154C18.2578 1.99154 18.9755 2.7853 19.1592 2.89576C19.3759 2.89191 20.3914 2.56304 21.4811 3.19217C22.5702 3.82096 22.7948 4.86725 22.8987 5.05485C23.0635 5.15052 24.0742 5.34854 24.7615 6.53882C25.3903 7.62792 25.0616 8.64659 25.0578 8.86075C25.1704 9.04796 25.9621 9.76139 25.9621 11.0198C25.9621 12.2774 25.1682 12.9952 25.0578 13.1788C25.0617 13.3977 25.3907 14.411 24.7615 15.5007C24.1327 16.5898 23.0868 16.8142 22.8987 16.9183C22.7932 17.1087 22.5709 18.1519 21.4811 18.781C20.3921 19.4098 19.3732 19.0813 19.1592 19.0774C18.9723 19.19 18.2586 19.9818 17.0002 19.9818C15.7426 19.9818 15.0248 19.1879 14.8411 19.0775C14.6227 19.0814 13.609 19.4103 12.5192 18.7811C11.4301 18.1523 11.2055 17.106 11.1016 16.9184C10.9111 16.8129 9.86801 16.5906 9.23888 15.5008ZM11.2275 20.3205C11.3236 20.3854 11.4222 20.4474 11.5235 20.5059C12.3615 20.9896 13.3089 21.2095 14.2858 21.1501C14.5627 21.3332 14.853 21.486 15.1532 21.6091C14.075 24.1092 13.2856 26.8024 12.8272 29.538L10.8528 27.4441L7.99284 27.7732C9.34569 25.4571 10.442 22.9304 11.2275 20.3205Z" fill="#2B2A29"/>
<path d="M20.6914 9.7325L19.2832 8.32422L16.0042 11.6032L14.7168 10.3158L13.3086 11.724L16.0042 14.4196L20.6914 9.7325Z" fill="#2B2A29"/>
<path d="M16.9997 17.9903C20.8432 17.9903 23.9701 14.8634 23.9701 11.02C23.9701 7.17648 20.8432 4.04956 16.9997 4.04956C13.1562 4.04956 10.0293 7.17648 10.0293 11.02C10.0293 14.8634 13.1562 17.9903 16.9997 17.9903ZM16.9997 6.0411C19.745 6.0411 21.9785 8.27461 21.9785 11.02C21.9785 13.7653 19.745 15.9988 16.9997 15.9988C14.2543 15.9988 12.0208 13.7653 12.0208 11.02C12.0208 8.27461 14.2543 6.0411 16.9997 6.0411Z" fill="#2B2A29"/>
</g>
<defs>
<clipPath id="clip0">
<rect width="34" height="34" fill="white"/>
</clipPath>
</defs>
</svg>
