<svg viewBox="0 0 26 26" xmlns="http://www.w3.org/2000/svg">
<path d="M20.8296 15.9374L13.6242 8.1324C13.4577 7.95204 13.2357 7.85303 12.9939 7.85303C12.7569 7.85303 12.5347 7.95204 12.3685 8.1324L5.16987 15.93C5.00337 16.1105 4.91171 16.3511 4.91171 16.6078C4.91171 16.8645 5.00324 17.1053 5.16987 17.2857L5.70001 17.8599C5.86651 18.0403 6.08877 18.1399 6.32576 18.1399C6.56275 18.1399 6.78488 18.0403 6.95151 17.8599L12.9964 11.3119L19.0479 17.8675C19.2144 18.0477 19.4365 18.1471 19.6737 18.1471C19.9107 18.1471 20.1327 18.0477 20.2993 17.8675L20.8296 17.2929C21.1744 16.9193 21.1744 16.3111 20.8296 15.9374Z"/>
</svg>
