<svg width="1935" height="327" viewBox="0 0 1935 327" fill="none" xmlns="http://www.w3.org/2000/svg">
<g clip-path="url(#clip0)">
<path fill-rule="evenodd" clip-rule="evenodd" d="M121.02 297.583C401.338 347.574 746.107 296.094 1056.5 254.719C1167.78 239.875 1283.51 230.581 1400 228.009C1283.55 229.227 1167.78 237.168 1056.5 250.704C746.152 288.378 401.383 335.843 121.065 282.558L121.02 297.583Z" fill="#CF2023"/>
<path d="M121.02 297.583C401.338 347.574 746.107 296.094 1056.5 254.719C1167.78 239.875 1283.51 230.581 1400 228.009C1283.55 229.227 1167.78 237.168 1056.5 250.704C746.152 288.378 401.383 335.843 121.065 282.558L121.02 297.583Z" stroke="#E3000F" stroke-width="0.216" stroke-miterlimit="22.9256"/>
<path fill-rule="evenodd" clip-rule="evenodd" d="M264.962 320.458C519.961 342.927 812.96 302.636 1079.51 269.383C1359.1 234.461 1658.49 234.732 1934.86 288.153L1934.86 269.293C1654.82 221.331 1363.9 225.979 1081.46 262.345C818.169 296.184 522.995 335.573 264.962 320.458Z" fill="#B1B2B3"/>
<path d="M264.962 320.458C519.961 342.927 812.96 302.636 1079.51 269.383C1359.1 234.461 1658.49 234.732 1934.86 288.153L1934.86 269.293C1654.82 221.331 1363.9 225.979 1081.46 262.345C818.169 296.184 522.995 335.573 264.962 320.458Z" stroke="#B1B2B3" stroke-width="0.216" stroke-miterlimit="22.9256"/>
<path fill-rule="evenodd" clip-rule="evenodd" d="M121.065 275.023C403.829 335.347 758.155 283.776 1076.97 243.981C1090.06 242.357 1103.24 240.778 1116.47 239.289C1385.33 209.239 1671.44 212.398 1934.86 263.292L1934.86 210.503C1161.71 143.546 704.709 377.488 121.065 223.001L-122.656 145.892L-248.57 145.892C-248.57 145.892 -61.9634 241.996 121.065 275.023Z" fill="#C5C6C6"/>
<path d="M121.066 275.023C405.233 334.535 758.155 283.776 1076.97 243.981C1090.06 242.357 1103.24 240.778 1116.47 239.289C1385.33 209.239 1671.44 212.398 1934.86 263.292L1934.86 210.503C1161.71 143.546 704.71 377.488 121.066 223.001" stroke="#CF2023" stroke-width="0.5669" stroke-miterlimit="22.9256"/>
<path fill-rule="evenodd" clip-rule="evenodd" d="M121.065 223.001C632.83 379.158 1340.21 133.169 1934.86 219.12L1934.86 205.269C1844.05 192.41 1768.46 188.755 1691.91 188.71C1004.96 188.349 750.682 359.486 121.065 188.349L-15.9911 145.892L-122.656 145.892C-122.656 145.892 34.9636 198.095 121.065 223.001Z" fill="#2B2A29"/>
<path d="M121.066 223.001C670.061 375.368 1340.21 133.169 1934.86 219.12L1934.86 205.269C1844.05 192.41 1768.46 188.755 1691.91 188.71C1004.96 188.349 750.682 359.486 121.066 188.349L121.066 223.001V223.001Z" stroke="#CF2023" stroke-width="0.216" stroke-miterlimit="22.9256"/>
<path fill-rule="evenodd" clip-rule="evenodd" d="M121.926 297.763C-16.6247 270.331 -160.792 213.797 -303.012 146.118C-294.859 145.892 -279.731 146.118 -279.731 146.118C-142.494 208.382 -4.98444 259.141 127.361 283.776L121.926 297.763Z" fill="#CF2023"/>
<path fill-rule="evenodd" clip-rule="evenodd" d="M204.048 197.847C715.812 354.004 1423.2 108.015 2017.85 193.967L2017.85 -121.731C1927.03 -134.59 1851.44 -138.245 1774.9 -138.29C1087.94 -138.651 833.664 32.4858 204.048 -138.651L66.9917 -181.108L-39.6729 120.739C-39.6729 120.739 117.946 172.941 204.048 197.847Z" fill="#2B2A29"/>
</g>
<defs>
<clipPath id="clip0">
<rect width="1935" height="327" fill="white" transform="translate(1935 327) rotate(180)"/>
</clipPath>
</defs>
</svg>
